<svg width="375" height="521" viewBox="0 0 375 521" fill="none" xmlns="http://www.w3.org/2000/svg">
<path d="M216.562 26.4023H212.941C212.27 25.4727 211.668 24.4258 211.137 23.2617C210.91 22.7695 210.688 22.2305 210.469 21.6445C210.258 21.0508 210.066 20.418 209.895 19.7461C209.73 19.0664 209.598 18.3555 209.496 17.6133C209.395 16.8633 209.344 16.082 209.344 15.2695C209.344 14.4023 209.395 13.5898 209.496 12.832C209.598 12.0742 209.73 11.3711 209.895 10.7227C210.066 10.0664 210.258 9.46484 210.469 8.91797C210.688 8.37109 210.91 7.87891 211.137 7.44141C211.668 6.41797 212.27 5.53906 212.941 4.80469H216.562C215.844 5.67969 215.203 6.66016 214.641 7.74609C214.398 8.20703 214.16 8.71875 213.926 9.28125C213.699 9.83594 213.496 10.4297 213.316 11.0625C213.137 11.6953 212.992 12.3672 212.883 13.0781C212.773 13.7812 212.719 14.5117 212.719 15.2695C212.719 15.9805 212.773 16.6836 212.883 17.3789C212.992 18.0742 213.137 18.75 213.316 19.4062C213.496 20.0625 213.699 20.6914 213.926 21.293C214.16 21.8945 214.398 22.4531 214.641 22.9688C215.203 24.1875 215.844 25.332 216.562 26.4023ZM231.914 18.9609C231.914 19.6562 231.781 20.3086 231.516 20.918C231.25 21.5273 230.887 22.0625 230.426 22.5234C229.973 22.9766 229.441 23.3359 228.832 23.6016C228.223 23.8672 227.57 24 226.875 24H218.473V7.19531H226.875C227.57 7.19531 228.223 7.32812 228.832 7.59375C229.441 7.85938 229.973 8.22266 230.426 8.68359C230.887 9.13672 231.25 9.66797 231.516 10.2773C231.781 10.8867 231.914 11.5391 231.914 12.2344C231.914 12.5469 231.871 12.8672 231.785 13.1953C231.699 13.5234 231.578 13.8398 231.422 14.1445C231.266 14.4492 231.078 14.7266 230.859 14.9766C230.641 15.2266 230.398 15.4336 230.133 15.5977C230.406 15.7461 230.652 15.9492 230.871 16.207C231.09 16.457 231.277 16.7344 231.434 17.0391C231.59 17.3438 231.707 17.6641 231.785 18C231.871 18.3281 231.914 18.6484 231.914 18.9609ZM221.836 20.6367H226.875C227.109 20.6367 227.328 20.5938 227.531 20.5078C227.734 20.4219 227.91 20.3047 228.059 20.1562C228.215 20 228.336 19.8203 228.422 19.6172C228.508 19.4141 228.551 19.1953 228.551 18.9609C228.551 18.7266 228.508 18.5078 228.422 18.3047C228.336 18.1016 228.215 17.9258 228.059 17.7773C227.91 17.6211 227.734 17.5 227.531 17.4141C227.328 17.3281 227.109 17.2852 226.875 17.2852H221.836V20.6367ZM221.836 13.9219H226.875C227.109 13.9219 227.328 13.8789 227.531 13.793C227.734 13.707 227.91 13.5898 228.059 13.4414C228.215 13.2852 228.336 13.1055 228.422 12.9023C228.508 12.6914 228.551 12.4688 228.551 12.2344C228.551 12 228.508 11.7812 228.422 11.5781C228.336 11.375 228.215 11.1992 228.059 11.0508C227.91 10.8945 227.734 10.7734 227.531 10.6875C227.328 10.6016 227.109 10.5586 226.875 10.5586H221.836V13.9219ZM237.891 8.03906C237.891 8.33594 237.832 8.61328 237.715 8.87109C237.605 9.12891 237.453 9.35547 237.258 9.55078C237.062 9.73828 236.832 9.89062 236.566 10.0078C236.309 10.1172 236.031 10.1719 235.734 10.1719C235.438 10.1719 235.156 10.1172 234.891 10.0078C234.633 9.89062 234.406 9.73828 234.211 9.55078C234.023 9.35547 233.871 9.12891 233.754 8.87109C233.645 8.61328 233.59 8.33594 233.59 8.03906C233.59 7.75 233.645 7.47656 233.754 7.21875C233.871 6.95312 234.023 6.72656 234.211 6.53906C234.406 6.34375 234.633 6.19141 234.891 6.08203C235.156 5.96484 235.438 5.90625 235.734 5.90625C236.031 5.90625 236.309 5.96484 236.566 6.08203C236.832 6.19141 237.062 6.34375 237.258 6.53906C237.453 6.72656 237.605 6.95312 237.715 7.21875C237.832 7.47656 237.891 7.75 237.891 8.03906ZM237.34 24H234.117V11.4492H237.34V24ZM251.918 24H251.145L249.902 22.2773C249.598 22.5508 249.273 22.8086 248.93 23.0508C248.594 23.2852 248.238 23.4922 247.863 23.6719C247.488 23.8438 247.102 23.9805 246.703 24.082C246.312 24.1836 245.914 24.2344 245.508 24.2344C244.625 24.2344 243.793 24.0703 243.012 23.7422C242.238 23.4062 241.559 22.9453 240.973 22.3594C240.395 21.7656 239.938 21.0664 239.602 20.2617C239.266 19.4492 239.098 18.5664 239.098 17.6133C239.098 16.668 239.266 15.7891 239.602 14.9766C239.938 14.1641 240.395 13.4609 240.973 12.8672C241.559 12.2734 242.238 11.8086 243.012 11.4727C243.793 11.1367 244.625 10.9688 245.508 10.9688C245.789 10.9688 246.078 10.9922 246.375 11.0391C246.68 11.0859 246.973 11.1641 247.254 11.2734C247.543 11.375 247.812 11.5117 248.062 11.6836C248.312 11.8555 248.523 12.0664 248.695 12.3164V6.45703H251.918V24ZM248.695 17.6133C248.695 17.1758 248.609 16.7539 248.438 16.3477C248.273 15.9336 248.047 15.5703 247.758 15.2578C247.469 14.9375 247.129 14.6836 246.738 14.4961C246.355 14.3008 245.945 14.2031 245.508 14.2031C245.07 14.2031 244.656 14.2812 244.266 14.4375C243.883 14.5938 243.547 14.8203 243.258 15.1172C242.977 15.4062 242.754 15.7617 242.59 16.1836C242.426 16.6055 242.344 17.082 242.344 17.6133C242.344 18.0742 242.426 18.5117 242.59 18.9258C242.754 19.3398 242.977 19.7031 243.258 20.0156C243.547 20.3281 243.883 20.5742 244.266 20.7539C244.656 20.9336 245.07 21.0234 245.508 21.0234C245.945 21.0234 246.355 20.9297 246.738 20.7422C247.129 20.5469 247.469 20.293 247.758 19.9805C248.047 19.6602 248.273 19.2969 248.438 18.8906C248.609 18.4766 248.695 18.0508 248.695 17.6133ZM266.52 24H265.746L264.504 22.2773C264.199 22.5508 263.875 22.8086 263.531 23.0508C263.195 23.2852 262.84 23.4922 262.465 23.6719C262.09 23.8438 261.703 23.9805 261.305 24.082C260.914 24.1836 260.516 24.2344 260.109 24.2344C259.227 24.2344 258.395 24.0859 257.613 23.7891C256.84 23.4922 256.16 23.0625 255.574 22.5C254.996 21.9297 254.539 21.2344 254.203 20.4141C253.867 19.5938 253.699 18.6602 253.699 17.6133C253.699 16.6367 253.867 15.7422 254.203 14.9297C254.539 14.1094 254.996 13.4062 255.574 12.8203C256.16 12.2344 256.84 11.7812 257.613 11.4609C258.395 11.1328 259.227 10.9688 260.109 10.9688C260.516 10.9688 260.918 11.0195 261.316 11.1211C261.715 11.2227 262.102 11.3633 262.477 11.543C262.852 11.7227 263.207 11.9336 263.543 12.1758C263.887 12.418 264.207 12.6797 264.504 12.9609L265.746 11.4727H266.52V24ZM263.297 17.6133C263.297 17.1758 263.211 16.7539 263.039 16.3477C262.875 15.9336 262.648 15.5703 262.359 15.2578C262.07 14.9375 261.73 14.6836 261.34 14.4961C260.957 14.3008 260.547 14.2031 260.109 14.2031C259.672 14.2031 259.258 14.2773 258.867 14.4258C258.484 14.5742 258.148 14.793 257.859 15.082C257.578 15.3711 257.355 15.7305 257.191 16.1602C257.027 16.582 256.945 17.0664 256.945 17.6133C256.945 18.1602 257.027 18.6484 257.191 19.0781C257.355 19.5 257.578 19.8555 257.859 20.1445C258.148 20.4336 258.484 20.6523 258.867 20.8008C259.258 20.9492 259.672 21.0234 260.109 21.0234C260.547 21.0234 260.957 20.9297 261.34 20.7422C261.73 20.5469 262.07 20.293 262.359 19.9805C262.648 19.6602 262.875 19.2969 263.039 18.8906C263.211 18.4766 263.297 18.0508 263.297 17.6133ZM272.168 24H268.969V11.4492H269.742L270.797 12.668C271.312 12.1992 271.895 11.8398 272.543 11.5898C273.199 11.332 273.883 11.2031 274.594 11.2031C275.359 11.2031 276.082 11.3516 276.762 11.6484C277.441 11.9375 278.035 12.3398 278.543 12.8555C279.051 13.3633 279.449 13.9609 279.738 14.6484C280.035 15.3281 280.184 16.0547 280.184 16.8281V24H276.984V16.8281C276.984 16.5 276.922 16.1914 276.797 15.9023C276.672 15.6055 276.5 15.3477 276.281 15.1289C276.062 14.9102 275.809 14.7383 275.52 14.6133C275.23 14.4883 274.922 14.4258 274.594 14.4258C274.258 14.4258 273.941 14.4883 273.645 14.6133C273.348 14.7383 273.09 14.9102 272.871 15.1289C272.652 15.3477 272.48 15.6055 272.355 15.9023C272.23 16.1914 272.168 16.5 272.168 16.8281V24ZM291.398 17.6133C291.398 17.1758 291.312 16.7539 291.141 16.3477C290.977 15.9336 290.75 15.5703 290.461 15.2578C290.172 14.9375 289.832 14.6836 289.441 14.4961C289.059 14.3008 288.648 14.2031 288.211 14.2031C287.773 14.2031 287.359 14.2773 286.969 14.4258C286.586 14.5742 286.25 14.793 285.961 15.082C285.68 15.3711 285.457 15.7305 285.293 16.1602C285.129 16.582 285.047 17.0664 285.047 17.6133C285.047 18.1367 285.129 18.6094 285.293 19.0312C285.457 19.4453 285.68 19.8008 285.961 20.0977C286.25 20.3945 286.586 20.625 286.969 20.7891C287.359 20.9453 287.773 21.0234 288.211 21.0234C288.648 21.0234 289.059 20.9297 289.441 20.7422C289.832 20.5469 290.172 20.293 290.461 19.9805C290.75 19.6602 290.977 19.2969 291.141 18.8906C291.312 18.4766 291.398 18.0508 291.398 17.6133ZM294.621 22.418C294.621 23.3008 294.453 24.1289 294.117 24.9023C293.781 25.6758 293.32 26.3516 292.734 26.9297C292.156 27.5078 291.477 27.9648 290.695 28.3008C289.922 28.6367 289.094 28.8047 288.211 28.8047L286.605 28.7812V25.582L288.188 25.6055C288.688 25.6055 289.113 25.5391 289.465 25.4062C289.816 25.2812 290.113 25.1055 290.355 24.8789C290.598 24.6602 290.789 24.4062 290.93 24.1172C291.078 23.8281 291.195 23.5234 291.281 23.2031C291.156 23.4062 290.977 23.5742 290.742 23.707C290.508 23.832 290.246 23.9336 289.957 24.0117C289.676 24.0977 289.379 24.1562 289.066 24.1875C288.762 24.2188 288.477 24.2344 288.211 24.2344C287.328 24.2344 286.496 24.082 285.715 23.7773C284.941 23.4727 284.262 23.0391 283.676 22.4766C283.098 21.9062 282.641 21.2109 282.305 20.3906C281.969 19.5703 281.801 18.6445 281.801 17.6133C281.801 16.668 281.969 15.7891 282.305 14.9766C282.641 14.1641 283.098 13.4609 283.676 12.8672C284.262 12.2734 284.941 11.8086 285.715 11.4727C286.496 11.1367 287.328 10.9688 288.211 10.9688C288.617 10.9688 289.02 11.0195 289.418 11.1211C289.816 11.2227 290.203 11.3633 290.578 11.543C290.953 11.7227 291.309 11.9336 291.645 12.1758C291.988 12.418 292.309 12.6797 292.605 12.9609L293.848 11.4727H294.621V22.418ZM320.812 24H317.461V12C317.461 11.7656 317.414 11.5469 317.32 11.3438C317.234 11.1406 317.113 10.9648 316.957 10.8164C316.809 10.6602 316.633 10.5391 316.43 10.4531C316.227 10.3672 316.008 10.3242 315.773 10.3242C315.539 10.3242 315.32 10.3672 315.117 10.4531C314.914 10.5391 314.734 10.6602 314.578 10.8164C314.43 10.9648 314.312 11.1406 314.227 11.3438C314.141 11.5469 314.098 11.7656 314.098 12V24H310.734V12C310.734 11.7656 310.691 11.5469 310.605 11.3438C310.52 11.1406 310.398 10.9648 310.242 10.8164C310.094 10.6602 309.918 10.5391 309.715 10.4531C309.512 10.3672 309.293 10.3242 309.059 10.3242C308.824 10.3242 308.605 10.3672 308.402 10.4531C308.199 10.5391 308.02 10.6602 307.863 10.8164C307.715 10.9648 307.598 11.1406 307.512 11.3438C307.426 11.5469 307.383 11.7656 307.383 12V24H304.02V12C304.02 11.3047 304.148 10.6523 304.406 10.043C304.672 9.42578 305.031 8.89062 305.484 8.4375C305.945 7.97656 306.48 7.61719 307.09 7.35938C307.707 7.09375 308.363 6.96094 309.059 6.96094C309.684 6.96094 310.285 7.07422 310.863 7.30078C311.441 7.51953 311.961 7.83984 312.422 8.26172C312.883 7.83984 313.398 7.51953 313.969 7.30078C314.547 7.07422 315.148 6.96094 315.773 6.96094C316.469 6.96094 317.121 7.09375 317.73 7.35938C318.348 7.61719 318.883 7.97656 319.336 8.4375C319.797 8.89062 320.156 9.42578 320.414 10.043C320.68 10.6523 320.812 11.3047 320.812 12V24ZM327.258 8.03906C327.258 8.33594 327.199 8.61328 327.082 8.87109C326.973 9.12891 326.82 9.35547 326.625 9.55078C326.43 9.73828 326.199 9.89062 325.934 10.0078C325.676 10.1172 325.398 10.1719 325.102 10.1719C324.805 10.1719 324.523 10.1172 324.258 10.0078C324 9.89062 323.773 9.73828 323.578 9.55078C323.391 9.35547 323.238 9.12891 323.121 8.87109C323.012 8.61328 322.957 8.33594 322.957 8.03906C322.957 7.75 323.012 7.47656 323.121 7.21875C323.238 6.95312 323.391 6.72656 323.578 6.53906C323.773 6.34375 324 6.19141 324.258 6.08203C324.523 5.96484 324.805 5.90625 325.102 5.90625C325.398 5.90625 325.676 5.96484 325.934 6.08203C326.199 6.19141 326.43 6.34375 326.625 6.53906C326.82 6.72656 326.973 6.95312 327.082 7.21875C327.199 7.47656 327.258 7.75 327.258 8.03906ZM326.707 24H323.484V11.4492H326.707V24ZM332.355 24H329.156V11.4492H329.93L330.984 12.668C331.5 12.1992 332.082 11.8398 332.73 11.5898C333.387 11.332 334.07 11.2031 334.781 11.2031C335.547 11.2031 336.27 11.3516 336.949 11.6484C337.629 11.9375 338.223 12.3398 338.73 12.8555C339.238 13.3633 339.637 13.9609 339.926 14.6484C340.223 15.3281 340.371 16.0547 340.371 16.8281V24H337.172V16.8281C337.172 16.5 337.109 16.1914 336.984 15.9023C336.859 15.6055 336.688 15.3477 336.469 15.1289C336.25 14.9102 335.996 14.7383 335.707 14.6133C335.418 14.4883 335.109 14.4258 334.781 14.4258C334.445 14.4258 334.129 14.4883 333.832 14.6133C333.535 14.7383 333.277 14.9102 333.059 15.1289C332.84 15.3477 332.668 15.6055 332.543 15.9023C332.418 16.1914 332.355 16.5 332.355 16.8281V24ZM354.809 24H354.035L352.793 22.2773C352.488 22.5508 352.164 22.8086 351.82 23.0508C351.484 23.2852 351.129 23.4922 350.754 23.6719C350.379 23.8438 349.992 23.9805 349.594 24.082C349.203 24.1836 348.805 24.2344 348.398 24.2344C347.516 24.2344 346.684 24.0859 345.902 23.7891C345.129 23.4922 344.449 23.0625 343.863 22.5C343.285 21.9297 342.828 21.2344 342.492 20.4141C342.156 19.5938 341.988 18.6602 341.988 17.6133C341.988 16.6367 342.156 15.7422 342.492 14.9297C342.828 14.1094 343.285 13.4062 343.863 12.8203C344.449 12.2344 345.129 11.7812 345.902 11.4609C346.684 11.1328 347.516 10.9688 348.398 10.9688C348.805 10.9688 349.207 11.0195 349.605 11.1211C350.004 11.2227 350.391 11.3633 350.766 11.543C351.141 11.7227 351.496 11.9336 351.832 12.1758C352.176 12.418 352.496 12.6797 352.793 12.9609L354.035 11.4727H354.809V24ZM351.586 17.6133C351.586 17.1758 351.5 16.7539 351.328 16.3477C351.164 15.9336 350.938 15.5703 350.648 15.2578C350.359 14.9375 350.02 14.6836 349.629 14.4961C349.246 14.3008 348.836 14.2031 348.398 14.2031C347.961 14.2031 347.547 14.2773 347.156 14.4258C346.773 14.5742 346.438 14.793 346.148 15.082C345.867 15.3711 345.645 15.7305 345.48 16.1602C345.316 16.582 345.234 17.0664 345.234 17.6133C345.234 18.1602 345.316 18.6484 345.48 19.0781C345.645 19.5 345.867 19.8555 346.148 20.1445C346.438 20.4336 346.773 20.6523 347.156 20.8008C347.547 20.9492 347.961 21.0234 348.398 21.0234C348.836 21.0234 349.246 20.9297 349.629 20.7422C350.02 20.5469 350.359 20.293 350.648 19.9805C350.938 19.6602 351.164 19.2969 351.328 18.8906C351.5 18.4766 351.586 18.0508 351.586 17.6133ZM363.551 24C362.777 24 362.051 23.8555 361.371 23.5664C360.691 23.2695 360.094 22.8672 359.578 22.3594C359.07 21.8438 358.668 21.2461 358.371 20.5664C358.082 19.8867 357.938 19.1602 357.938 18.3867V14.6602H356.379V11.4727H357.938V6.45703H361.125V11.4727H365.977V14.6602H361.125V18.3867C361.125 18.7227 361.188 19.0391 361.312 19.3359C361.438 19.625 361.609 19.8789 361.828 20.0977C362.047 20.3164 362.305 20.4922 362.602 20.625C362.898 20.75 363.215 20.8125 363.551 20.8125H365.977V24H363.551ZM374.121 15.2695C374.121 16.082 374.07 16.8633 373.969 17.6133C373.867 18.3555 373.73 19.0664 373.559 19.7461C373.387 20.418 373.191 21.0508 372.973 21.6445C372.762 22.2305 372.543 22.7695 372.316 23.2617C371.785 24.4258 371.188 25.4727 370.523 26.4023H366.902C367.613 25.332 368.25 24.1875 368.812 22.9688C369.055 22.4531 369.289 21.8945 369.516 21.293C369.75 20.6914 369.957 20.0625 370.137 19.4062C370.316 18.75 370.461 18.0742 370.57 17.3789C370.68 16.6836 370.734 15.9805 370.734 15.2695C370.734 14.5117 370.68 13.7812 370.57 13.0781C370.461 12.3672 370.316 11.6953 370.137 11.0625C369.957 10.4297 369.75 9.83594 369.516 9.28125C369.289 8.71875 369.055 8.20703 368.812 7.74609C368.25 6.66016 367.613 5.67969 366.902 4.80469H370.523C371.188 5.53906 371.785 6.41797 372.316 7.44141C372.543 7.87891 372.762 8.37109 372.973 8.91797C373.191 9.46484 373.387 10.0664 373.559 10.7227C373.73 11.3711 373.867 12.0742 373.969 12.832C374.07 13.5898 374.121 14.4023 374.121 15.2695Z" fill="white"/>
<rect x="0.324957" y="89.325" width="374.35" height="62.3917" rx="31.1958" stroke="white" stroke-width="0.649913"/>
<g clip-path="url(#clip0_5264_4235)">
<g filter="url(#filter0_d_5264_4235)">
<path d="M32.5 112L34.7958 118.204L41 120.5L34.7958 122.796L32.5 129L30.2042 122.796L24 120.5L30.2042 118.204L32.5 112Z" fill="#D9D9D9"/>
</g>
</g>
<rect x="13.3711" y="100.422" width="39.5484" height="39.5484" rx="19.7742" stroke="white" stroke-width="0.746197"/>
<path d="M80.0676 113.608V127.648H76.6476V113.608H80.0676ZM89.346 116.368C90.6527 116.368 91.6927 116.795 92.466 117.648C93.2527 118.488 93.646 119.648 93.646 121.128V127.648H90.246V121.588C90.246 120.842 90.0527 120.262 89.666 119.848C89.2794 119.435 88.7594 119.228 88.106 119.228C87.4527 119.228 86.9327 119.435 86.546 119.848C86.1594 120.262 85.966 120.842 85.966 121.588V127.648H82.546V116.488H85.966V117.968C86.3127 117.475 86.7794 117.088 87.366 116.808C87.9527 116.515 88.6127 116.368 89.346 116.368ZM100.563 127.808C99.5893 127.808 98.7226 127.642 97.9626 127.308C97.2026 126.975 96.6026 126.522 96.1626 125.948C95.7226 125.362 95.4759 124.708 95.4226 123.988H98.8026C98.8426 124.375 99.0226 124.688 99.3426 124.928C99.6626 125.168 100.056 125.288 100.523 125.288C100.949 125.288 101.276 125.208 101.503 125.048C101.743 124.875 101.863 124.655 101.863 124.388C101.863 124.068 101.696 123.835 101.363 123.688C101.029 123.528 100.489 123.355 99.7426 123.168C98.9426 122.982 98.2759 122.788 97.7426 122.588C97.2093 122.375 96.7493 122.048 96.3626 121.608C95.9759 121.155 95.7826 120.548 95.7826 119.788C95.7826 119.148 95.9559 118.568 96.3026 118.048C96.6626 117.515 97.1826 117.095 97.8626 116.788C98.5559 116.482 99.3759 116.328 100.323 116.328C101.723 116.328 102.823 116.675 103.623 117.368C104.436 118.062 104.903 118.982 105.023 120.128H101.863C101.809 119.742 101.636 119.435 101.343 119.208C101.063 118.982 100.689 118.868 100.223 118.868C99.8226 118.868 99.5159 118.948 99.3026 119.108C99.0893 119.255 98.9826 119.462 98.9826 119.728C98.9826 120.048 99.1493 120.288 99.4826 120.448C99.8293 120.608 100.363 120.768 101.083 120.928C101.909 121.142 102.583 121.355 103.103 121.568C103.623 121.768 104.076 122.102 104.463 122.568C104.863 123.022 105.069 123.635 105.083 124.408C105.083 125.062 104.896 125.648 104.523 126.168C104.163 126.675 103.636 127.075 102.943 127.368C102.263 127.662 101.469 127.808 100.563 127.808ZM113.395 124.748V127.648H111.655C110.415 127.648 109.448 127.348 108.755 126.748C108.062 126.135 107.715 125.142 107.715 123.768V119.328H106.355V116.488H107.715V113.768H111.135V116.488H113.375V119.328H111.135V123.808C111.135 124.142 111.215 124.382 111.375 124.528C111.535 124.675 111.802 124.748 112.175 124.748H113.395ZM118.72 118.348C119.12 117.735 119.62 117.255 120.22 116.908C120.82 116.548 121.487 116.368 122.22 116.368V119.988H121.28C120.427 119.988 119.787 120.175 119.36 120.548C118.933 120.908 118.72 121.548 118.72 122.468V127.648H115.3V116.488H118.72V118.348ZM134.875 116.488V127.648H131.455V126.128C131.108 126.622 130.635 127.022 130.035 127.328C129.448 127.622 128.795 127.768 128.075 127.768C127.221 127.768 126.468 127.582 125.815 127.208C125.161 126.822 124.655 126.268 124.295 125.548C123.935 124.828 123.755 123.982 123.755 123.008V116.488H127.155V122.548C127.155 123.295 127.348 123.875 127.735 124.288C128.121 124.702 128.641 124.908 129.295 124.908C129.961 124.908 130.488 124.702 130.875 124.288C131.261 123.875 131.455 123.295 131.455 122.548V116.488H134.875ZM151.571 116.368C152.958 116.368 154.058 116.788 154.871 117.628C155.698 118.468 156.111 119.635 156.111 121.128V127.648H152.711V121.588C152.711 120.868 152.518 120.315 152.131 119.928C151.758 119.528 151.238 119.328 150.571 119.328C149.905 119.328 149.378 119.528 148.991 119.928C148.618 120.315 148.431 120.868 148.431 121.588V127.648H145.031V121.588C145.031 120.868 144.838 120.315 144.451 119.928C144.078 119.528 143.558 119.328 142.891 119.328C142.225 119.328 141.698 119.528 141.311 119.928C140.938 120.315 140.751 120.868 140.751 121.588V127.648H137.331V116.488H140.751V117.888C141.098 117.422 141.551 117.055 142.111 116.788C142.671 116.508 143.305 116.368 144.011 116.368C144.851 116.368 145.598 116.548 146.251 116.908C146.918 117.268 147.438 117.782 147.811 118.448C148.198 117.835 148.725 117.335 149.391 116.948C150.058 116.562 150.785 116.368 151.571 116.368ZM169.023 121.888C169.023 122.208 169.003 122.542 168.963 122.888H161.223C161.276 123.582 161.496 124.115 161.883 124.488C162.283 124.848 162.77 125.028 163.343 125.028C164.196 125.028 164.79 124.668 165.123 123.948H168.763C168.576 124.682 168.236 125.342 167.743 125.928C167.263 126.515 166.656 126.975 165.923 127.308C165.19 127.642 164.37 127.808 163.463 127.808C162.37 127.808 161.396 127.575 160.543 127.108C159.69 126.642 159.023 125.975 158.543 125.108C158.063 124.242 157.823 123.228 157.823 122.068C157.823 120.908 158.056 119.895 158.523 119.028C159.003 118.162 159.67 117.495 160.523 117.028C161.376 116.562 162.356 116.328 163.463 116.328C164.543 116.328 165.503 116.555 166.343 117.008C167.183 117.462 167.836 118.108 168.303 118.948C168.783 119.788 169.023 120.768 169.023 121.888ZM165.523 120.988C165.523 120.402 165.323 119.935 164.923 119.588C164.523 119.242 164.023 119.068 163.423 119.068C162.85 119.068 162.363 119.235 161.963 119.568C161.576 119.902 161.336 120.375 161.243 120.988H165.523ZM177.627 116.368C178.934 116.368 179.974 116.795 180.747 117.648C181.534 118.488 181.927 119.648 181.927 121.128V127.648H178.527V121.588C178.527 120.842 178.334 120.262 177.947 119.848C177.561 119.435 177.041 119.228 176.387 119.228C175.734 119.228 175.214 119.435 174.827 119.848C174.441 120.262 174.247 120.842 174.247 121.588V127.648H170.827V116.488H174.247V117.968C174.594 117.475 175.061 117.088 175.647 116.808C176.234 116.515 176.894 116.368 177.627 116.368ZM190.524 124.748V127.648H188.784C187.544 127.648 186.577 127.348 185.884 126.748C185.191 126.135 184.844 125.142 184.844 123.768V119.328H183.484V116.488H184.844V113.768H188.264V116.488H190.504V119.328H188.264V123.808C188.264 124.142 188.344 124.382 188.504 124.528C188.664 124.675 188.931 124.748 189.304 124.748H190.524ZM191.749 122.048C191.749 120.902 191.962 119.895 192.389 119.028C192.829 118.162 193.422 117.495 194.169 117.028C194.916 116.562 195.749 116.328 196.669 116.328C197.456 116.328 198.142 116.488 198.729 116.808C199.329 117.128 199.789 117.548 200.109 118.068V116.488H203.529V127.648H200.109V126.068C199.776 126.588 199.309 127.008 198.709 127.328C198.122 127.648 197.436 127.808 196.649 127.808C195.742 127.808 194.916 127.575 194.169 127.108C193.422 126.628 192.829 125.955 192.389 125.088C191.962 124.208 191.749 123.195 191.749 122.048ZM200.109 122.068C200.109 121.215 199.869 120.542 199.389 120.048C198.922 119.555 198.349 119.308 197.669 119.308C196.989 119.308 196.409 119.555 195.929 120.048C195.462 120.528 195.229 121.195 195.229 122.048C195.229 122.902 195.462 123.582 195.929 124.088C196.409 124.582 196.989 124.828 197.669 124.828C198.349 124.828 198.922 124.582 199.389 124.088C199.869 123.595 200.109 122.922 200.109 122.068ZM210.543 127.808C209.57 127.808 208.703 127.642 207.943 127.308C207.183 126.975 206.583 126.522 206.143 125.948C205.703 125.362 205.456 124.708 205.403 123.988H208.783C208.823 124.375 209.003 124.688 209.323 124.928C209.643 125.168 210.036 125.288 210.503 125.288C210.93 125.288 211.256 125.208 211.483 125.048C211.723 124.875 211.843 124.655 211.843 124.388C211.843 124.068 211.676 123.835 211.343 123.688C211.01 123.528 210.47 123.355 209.723 123.168C208.923 122.982 208.256 122.788 207.723 122.588C207.19 122.375 206.73 122.048 206.343 121.608C205.956 121.155 205.763 120.548 205.763 119.788C205.763 119.148 205.936 118.568 206.283 118.048C206.643 117.515 207.163 117.095 207.843 116.788C208.536 116.482 209.356 116.328 210.303 116.328C211.703 116.328 212.803 116.675 213.603 117.368C214.416 118.062 214.883 118.982 215.003 120.128H211.843C211.79 119.742 211.616 119.435 211.323 119.208C211.043 118.982 210.67 118.868 210.203 118.868C209.803 118.868 209.496 118.948 209.283 119.108C209.07 119.255 208.963 119.462 208.963 119.728C208.963 120.048 209.13 120.288 209.463 120.448C209.81 120.608 210.343 120.768 211.063 120.928C211.89 121.142 212.563 121.355 213.083 121.568C213.603 121.768 214.056 122.102 214.443 122.568C214.843 123.022 215.05 123.635 215.063 124.408C215.063 125.062 214.876 125.648 214.503 126.168C214.143 126.675 213.616 127.075 212.923 127.368C212.243 127.662 211.45 127.808 210.543 127.808ZM218.875 115.328C218.275 115.328 217.782 115.155 217.395 114.808C217.022 114.448 216.835 114.008 216.835 113.488C216.835 112.955 217.022 112.515 217.395 112.168C217.782 111.808 218.275 111.628 218.875 111.628C219.462 111.628 219.942 111.808 220.315 112.168C220.702 112.515 220.895 112.955 220.895 113.488C220.895 114.008 220.702 114.448 220.315 114.808C219.942 115.155 219.462 115.328 218.875 115.328ZM220.575 116.488V127.648H217.155V116.488H220.575ZM226.612 122.048C226.612 120.902 226.825 119.895 227.252 119.028C227.692 118.162 228.285 117.495 229.032 117.028C229.779 116.562 230.612 116.328 231.532 116.328C232.265 116.328 232.932 116.482 233.532 116.788C234.145 117.095 234.625 117.508 234.972 118.028V112.848H238.392V127.648H234.972V126.048C234.652 126.582 234.192 127.008 233.592 127.328C233.005 127.648 232.319 127.808 231.532 127.808C230.612 127.808 229.779 127.575 229.032 127.108C228.285 126.628 227.692 125.955 227.252 125.088C226.825 124.208 226.612 123.195 226.612 122.048ZM234.972 122.068C234.972 121.215 234.732 120.542 234.252 120.048C233.785 119.555 233.212 119.308 232.532 119.308C231.852 119.308 231.272 119.555 230.792 120.048C230.325 120.528 230.092 121.195 230.092 122.048C230.092 122.902 230.325 123.582 230.792 124.088C231.272 124.582 231.852 124.828 232.532 124.828C233.212 124.828 233.785 124.582 234.252 124.088C234.732 123.595 234.972 122.922 234.972 122.068ZM240.186 122.048C240.186 120.902 240.4 119.895 240.826 119.028C241.266 118.162 241.86 117.495 242.606 117.028C243.353 116.562 244.186 116.328 245.106 116.328C245.893 116.328 246.58 116.488 247.166 116.808C247.766 117.128 248.226 117.548 248.546 118.068V116.488H251.966V127.648H248.546V126.068C248.213 126.588 247.746 127.008 247.146 127.328C246.56 127.648 245.873 127.808 245.086 127.808C244.18 127.808 243.353 127.575 242.606 127.108C241.86 126.628 241.266 125.955 240.826 125.088C240.4 124.208 240.186 123.195 240.186 122.048ZM248.546 122.068C248.546 121.215 248.306 120.542 247.826 120.048C247.36 119.555 246.786 119.308 246.106 119.308C245.426 119.308 244.846 119.555 244.366 120.048C243.9 120.528 243.666 121.195 243.666 122.048C243.666 122.902 243.9 123.582 244.366 124.088C244.846 124.582 245.426 124.828 246.106 124.828C246.786 124.828 247.36 124.582 247.826 124.088C248.306 123.595 248.546 122.922 248.546 122.068ZM261.241 116.368C262.547 116.368 263.587 116.795 264.361 117.648C265.147 118.488 265.541 119.648 265.541 121.128V127.648H262.141V121.588C262.141 120.842 261.947 120.262 261.561 119.848C261.174 119.435 260.654 119.228 260.001 119.228C259.347 119.228 258.827 119.435 258.441 119.848C258.054 120.262 257.861 120.842 257.861 121.588V127.648H254.441V116.488H257.861V117.968C258.207 117.475 258.674 117.088 259.261 116.808C259.847 116.515 260.507 116.368 261.241 116.368ZM280.295 127.648L275.575 121.448V127.648H272.155V113.608H275.575V119.768L280.255 113.608H284.275L278.835 120.488L284.475 127.648H280.295ZM291.181 127.808C290.087 127.808 289.101 127.575 288.221 127.108C287.354 126.642 286.667 125.975 286.161 125.108C285.667 124.242 285.421 123.228 285.421 122.068C285.421 120.922 285.674 119.915 286.181 119.048C286.687 118.168 287.381 117.495 288.261 117.028C289.141 116.562 290.127 116.328 291.221 116.328C292.314 116.328 293.301 116.562 294.181 117.028C295.061 117.495 295.754 118.168 296.261 119.048C296.767 119.915 297.021 120.922 297.021 122.068C297.021 123.215 296.761 124.228 296.241 125.108C295.734 125.975 295.034 126.642 294.141 127.108C293.261 127.575 292.274 127.808 291.181 127.808ZM291.181 124.848C291.834 124.848 292.387 124.608 292.841 124.128C293.307 123.648 293.541 122.962 293.541 122.068C293.541 121.175 293.314 120.488 292.861 120.008C292.421 119.528 291.874 119.288 291.221 119.288C290.554 119.288 290.001 119.528 289.561 120.008C289.121 120.475 288.901 121.162 288.901 122.068C288.901 122.962 289.114 123.648 289.541 124.128C289.981 124.608 290.527 124.848 291.181 124.848ZM305.635 116.368C306.942 116.368 307.982 116.795 308.755 117.648C309.542 118.488 309.935 119.648 309.935 121.128V127.648H306.535V121.588C306.535 120.842 306.342 120.262 305.955 119.848C305.568 119.435 305.048 119.228 304.395 119.228C303.742 119.228 303.222 119.435 302.835 119.848C302.448 120.262 302.255 120.842 302.255 121.588V127.648H298.835V116.488H302.255V117.968C302.602 117.475 303.068 117.088 303.655 116.808C304.242 116.515 304.902 116.368 305.635 116.368ZM318.532 124.748V127.648H316.792C315.552 127.648 314.585 127.348 313.892 126.748C313.198 126.135 312.852 125.142 312.852 123.768V119.328H311.492V116.488H312.852V113.768H316.272V116.488H318.512V119.328H316.272V123.808C316.272 124.142 316.352 124.382 316.512 124.528C316.672 124.675 316.938 124.748 317.312 124.748H318.532ZM323.857 118.348C324.257 117.735 324.757 117.255 325.357 116.908C325.957 116.548 326.623 116.368 327.357 116.368V119.988H326.417C325.563 119.988 324.923 120.175 324.497 120.548C324.07 120.908 323.857 121.548 323.857 122.468V127.648H320.437V116.488H323.857V118.348ZM334.071 127.808C332.978 127.808 331.991 127.575 331.111 127.108C330.245 126.642 329.558 125.975 329.051 125.108C328.558 124.242 328.311 123.228 328.311 122.068C328.311 120.922 328.565 119.915 329.071 119.048C329.578 118.168 330.271 117.495 331.151 117.028C332.031 116.562 333.018 116.328 334.111 116.328C335.205 116.328 336.191 116.562 337.071 117.028C337.951 117.495 338.645 118.168 339.151 119.048C339.658 119.915 339.911 120.922 339.911 122.068C339.911 123.215 339.651 124.228 339.131 125.108C338.625 125.975 337.925 126.642 337.031 127.108C336.151 127.575 335.165 127.808 334.071 127.808ZM334.071 124.848C334.725 124.848 335.278 124.608 335.731 124.128C336.198 123.648 336.431 122.962 336.431 122.068C336.431 121.175 336.205 120.488 335.751 120.008C335.311 119.528 334.765 119.288 334.111 119.288C333.445 119.288 332.891 119.528 332.451 120.008C332.011 120.475 331.791 121.162 331.791 122.068C331.791 122.962 332.005 123.648 332.431 124.128C332.871 124.608 333.418 124.848 334.071 124.848ZM345.146 112.848V127.648H341.726V112.848H345.146Z" fill="white"/>
<rect x="0.324957" y="181.366" width="374.35" height="62.3917" rx="31.1958" stroke="white" stroke-width="0.649913"/>
<g clip-path="url(#clip1_5264_4235)">
<g filter="url(#filter1_d_5264_4235)">
<path d="M32.5 204L34.7958 210.204L41 212.5L34.7958 214.796L32.5 221L30.2042 214.796L24 212.5L30.2042 210.204L32.5 204Z" fill="#D9D9D9"/>
</g>
</g>
<rect x="13.3711" y="192.463" width="39.5484" height="39.5484" rx="19.7742" stroke="white" stroke-width="0.746197"/>
<path d="M110.819 204.69L107.899 199.39H107.079V204.69H103.659V190.65H109.399C110.506 190.65 111.446 190.843 112.219 191.23C113.006 191.617 113.593 192.15 113.979 192.83C114.366 193.497 114.559 194.243 114.559 195.07C114.559 196.003 114.293 196.837 113.759 197.57C113.239 198.303 112.466 198.823 111.439 199.13L114.679 204.69H110.819ZM107.079 196.97H109.199C109.826 196.97 110.293 196.817 110.599 196.51C110.919 196.203 111.079 195.77 111.079 195.21C111.079 194.677 110.919 194.257 110.599 193.95C110.293 193.643 109.826 193.49 109.199 193.49H107.079V196.97ZM127.226 198.93C127.226 199.25 127.206 199.583 127.166 199.93H119.426C119.48 200.623 119.7 201.157 120.086 201.53C120.486 201.89 120.973 202.07 121.546 202.07C122.4 202.07 122.993 201.71 123.326 200.99H126.966C126.78 201.723 126.44 202.383 125.946 202.97C125.466 203.557 124.86 204.017 124.126 204.35C123.393 204.683 122.573 204.85 121.666 204.85C120.573 204.85 119.6 204.617 118.746 204.15C117.893 203.683 117.226 203.017 116.746 202.15C116.266 201.283 116.026 200.27 116.026 199.11C116.026 197.95 116.26 196.937 116.726 196.07C117.206 195.203 117.873 194.537 118.726 194.07C119.58 193.603 120.56 193.37 121.666 193.37C122.746 193.37 123.706 193.597 124.546 194.05C125.386 194.503 126.04 195.15 126.506 195.99C126.986 196.83 127.226 197.81 127.226 198.93ZM123.726 198.03C123.726 197.443 123.526 196.977 123.126 196.63C122.726 196.283 122.226 196.11 121.626 196.11C121.053 196.11 120.566 196.277 120.166 196.61C119.78 196.943 119.54 197.417 119.446 198.03H123.726ZM135.85 204.69L132.45 200.01V204.69H129.03V189.89H132.45V198.07L135.83 193.53H140.05L135.41 199.13L140.09 204.69H135.85ZM140.714 199.09C140.714 197.943 140.927 196.937 141.354 196.07C141.794 195.203 142.387 194.537 143.134 194.07C143.88 193.603 144.714 193.37 145.634 193.37C146.42 193.37 147.107 193.53 147.694 193.85C148.294 194.17 148.754 194.59 149.074 195.11V193.53H152.494V204.69H149.074V203.11C148.74 203.63 148.274 204.05 147.674 204.37C147.087 204.69 146.4 204.85 145.614 204.85C144.707 204.85 143.88 204.617 143.134 204.15C142.387 203.67 141.794 202.997 141.354 202.13C140.927 201.25 140.714 200.237 140.714 199.09ZM149.074 199.11C149.074 198.257 148.834 197.583 148.354 197.09C147.887 196.597 147.314 196.35 146.634 196.35C145.954 196.35 145.374 196.597 144.894 197.09C144.427 197.57 144.194 198.237 144.194 199.09C144.194 199.943 144.427 200.623 144.894 201.13C145.374 201.623 145.954 201.87 146.634 201.87C147.314 201.87 147.887 201.623 148.354 201.13C148.834 200.637 149.074 199.963 149.074 199.11ZM166.368 193.53L159.368 209.99H155.688L158.248 204.31L153.708 193.53H157.528L160.108 200.51L162.668 193.53H166.368ZM166.925 199.09C166.925 197.943 167.138 196.937 167.565 196.07C168.005 195.203 168.598 194.537 169.345 194.07C170.091 193.603 170.925 193.37 171.845 193.37C172.631 193.37 173.318 193.53 173.905 193.85C174.505 194.17 174.965 194.59 175.285 195.11V193.53H178.705V204.69H175.285V203.11C174.951 203.63 174.485 204.05 173.885 204.37C173.298 204.69 172.611 204.85 171.825 204.85C170.918 204.85 170.091 204.617 169.345 204.15C168.598 203.67 168.005 202.997 167.565 202.13C167.138 201.25 166.925 200.237 166.925 199.09ZM175.285 199.11C175.285 198.257 175.045 197.583 174.565 197.09C174.098 196.597 173.525 196.35 172.845 196.35C172.165 196.35 171.585 196.597 171.105 197.09C170.638 197.57 170.405 198.237 170.405 199.09C170.405 199.943 170.638 200.623 171.105 201.13C171.585 201.623 172.165 201.87 172.845 201.87C173.525 201.87 174.098 201.623 174.565 201.13C175.045 200.637 175.285 199.963 175.285 199.11ZM185.719 204.85C184.746 204.85 183.879 204.683 183.119 204.35C182.359 204.017 181.759 203.563 181.319 202.99C180.879 202.403 180.632 201.75 180.579 201.03H183.959C183.999 201.417 184.179 201.73 184.499 201.97C184.819 202.21 185.212 202.33 185.679 202.33C186.106 202.33 186.432 202.25 186.659 202.09C186.899 201.917 187.019 201.697 187.019 201.43C187.019 201.11 186.852 200.877 186.519 200.73C186.186 200.57 185.646 200.397 184.899 200.21C184.099 200.023 183.432 199.83 182.899 199.63C182.366 199.417 181.906 199.09 181.519 198.65C181.132 198.197 180.939 197.59 180.939 196.83C180.939 196.19 181.112 195.61 181.459 195.09C181.819 194.557 182.339 194.137 183.019 193.83C183.712 193.523 184.532 193.37 185.479 193.37C186.879 193.37 187.979 193.717 188.779 194.41C189.592 195.103 190.059 196.023 190.179 197.17H187.019C186.966 196.783 186.792 196.477 186.499 196.25C186.219 196.023 185.846 195.91 185.379 195.91C184.979 195.91 184.672 195.99 184.459 196.15C184.246 196.297 184.139 196.503 184.139 196.77C184.139 197.09 184.306 197.33 184.639 197.49C184.986 197.65 185.519 197.81 186.239 197.97C187.066 198.183 187.739 198.397 188.259 198.61C188.779 198.81 189.232 199.143 189.619 199.61C190.019 200.063 190.226 200.677 190.239 201.45C190.239 202.103 190.052 202.69 189.679 203.21C189.319 203.717 188.792 204.117 188.099 204.41C187.419 204.703 186.626 204.85 185.719 204.85ZM191.651 199.09C191.651 197.943 191.865 196.937 192.291 196.07C192.731 195.203 193.325 194.537 194.071 194.07C194.818 193.603 195.651 193.37 196.571 193.37C197.358 193.37 198.045 193.53 198.631 193.85C199.231 194.17 199.691 194.59 200.011 195.11V193.53H203.431V204.69H200.011V203.11C199.678 203.63 199.211 204.05 198.611 204.37C198.025 204.69 197.338 204.85 196.551 204.85C195.645 204.85 194.818 204.617 194.071 204.15C193.325 203.67 192.731 202.997 192.291 202.13C191.865 201.25 191.651 200.237 191.651 199.09ZM200.011 199.11C200.011 198.257 199.771 197.583 199.291 197.09C198.825 196.597 198.251 196.35 197.571 196.35C196.891 196.35 196.311 196.597 195.831 197.09C195.365 197.57 195.131 198.237 195.131 199.09C195.131 199.943 195.365 200.623 195.831 201.13C196.311 201.623 196.891 201.87 197.571 201.87C198.251 201.87 198.825 201.623 199.291 201.13C199.771 200.637 200.011 199.963 200.011 199.11ZM213.564 193.39V196.23H218.144V198.87H213.564V201.95H218.744V204.69H210.144V190.65H218.744V193.39H213.564ZM227.764 193.41C229.071 193.41 230.111 193.837 230.884 194.69C231.671 195.53 232.064 196.69 232.064 198.17V204.69H228.664V198.63C228.664 197.883 228.471 197.303 228.084 196.89C227.697 196.477 227.177 196.27 226.524 196.27C225.871 196.27 225.351 196.477 224.964 196.89C224.577 197.303 224.384 197.883 224.384 198.63V204.69H220.964V193.53H224.384V195.01C224.731 194.517 225.197 194.13 225.784 193.85C226.371 193.557 227.031 193.41 227.764 193.41ZM244.961 198.93C244.961 199.25 244.941 199.583 244.901 199.93H237.161C237.214 200.623 237.434 201.157 237.821 201.53C238.221 201.89 238.707 202.07 239.281 202.07C240.134 202.07 240.727 201.71 241.061 200.99H244.701C244.514 201.723 244.174 202.383 243.681 202.97C243.201 203.557 242.594 204.017 241.861 204.35C241.127 204.683 240.307 204.85 239.401 204.85C238.307 204.85 237.334 204.617 236.481 204.15C235.627 203.683 234.961 203.017 234.481 202.15C234.001 201.283 233.761 200.27 233.761 199.11C233.761 197.95 233.994 196.937 234.461 196.07C234.941 195.203 235.607 194.537 236.461 194.07C237.314 193.603 238.294 193.37 239.401 193.37C240.481 193.37 241.441 193.597 242.281 194.05C243.121 194.503 243.774 195.15 244.241 195.99C244.721 196.83 244.961 197.81 244.961 198.93ZM241.461 198.03C241.461 197.443 241.261 196.977 240.861 196.63C240.461 196.283 239.961 196.11 239.361 196.11C238.787 196.11 238.301 196.277 237.901 196.61C237.514 196.943 237.274 197.417 237.181 198.03H241.461ZM250.185 195.39C250.585 194.777 251.085 194.297 251.685 193.95C252.285 193.59 252.951 193.41 253.685 193.41V197.03H252.745C251.891 197.03 251.251 197.217 250.825 197.59C250.398 197.95 250.185 198.59 250.185 199.51V204.69H246.765V193.53H250.185V195.39ZM259.559 193.37C260.346 193.37 261.033 193.53 261.619 193.85C262.219 194.17 262.679 194.59 262.999 195.11V193.53H266.419V204.67C266.419 205.697 266.213 206.623 265.799 207.45C265.399 208.29 264.779 208.957 263.939 209.45C263.113 209.943 262.079 210.19 260.839 210.19C259.186 210.19 257.846 209.797 256.819 209.01C255.793 208.237 255.206 207.183 255.059 205.85H258.439C258.546 206.277 258.799 206.61 259.199 206.85C259.599 207.103 260.093 207.23 260.679 207.23C261.386 207.23 261.946 207.023 262.359 206.61C262.786 206.21 262.999 205.563 262.999 204.67V203.09C262.666 203.61 262.206 204.037 261.619 204.37C261.033 204.69 260.346 204.85 259.559 204.85C258.639 204.85 257.806 204.617 257.059 204.15C256.313 203.67 255.719 202.997 255.279 202.13C254.853 201.25 254.639 200.237 254.639 199.09C254.639 197.943 254.853 196.937 255.279 196.07C255.719 195.203 256.313 194.537 257.059 194.07C257.806 193.603 258.639 193.37 259.559 193.37ZM262.999 199.11C262.999 198.257 262.759 197.583 262.279 197.09C261.813 196.597 261.239 196.35 260.559 196.35C259.879 196.35 259.299 196.597 258.819 197.09C258.353 197.57 258.119 198.237 258.119 199.09C258.119 199.943 258.353 200.623 258.819 201.13C259.299 201.623 259.879 201.87 260.559 201.87C261.239 201.87 261.813 201.623 262.279 201.13C262.759 200.637 262.999 199.963 262.999 199.11ZM270.614 192.37C270.014 192.37 269.52 192.197 269.134 191.85C268.76 191.49 268.574 191.05 268.574 190.53C268.574 189.997 268.76 189.557 269.134 189.21C269.52 188.85 270.014 188.67 270.614 188.67C271.2 188.67 271.68 188.85 272.054 189.21C272.44 189.557 272.634 189.997 272.634 190.53C272.634 191.05 272.44 191.49 272.054 191.85C271.68 192.197 271.2 192.37 270.614 192.37ZM272.314 193.53V204.69H268.894V193.53H272.314ZM284.29 190.65C285.77 190.65 287.064 190.943 288.17 191.53C289.277 192.117 290.13 192.943 290.73 194.01C291.344 195.063 291.65 196.283 291.65 197.67C291.65 199.043 291.344 200.263 290.73 201.33C290.13 202.397 289.27 203.223 288.15 203.81C287.044 204.397 285.757 204.69 284.29 204.69H279.03V190.65H284.29ZM284.07 201.73C285.364 201.73 286.37 201.377 287.09 200.67C287.81 199.963 288.17 198.963 288.17 197.67C288.17 196.377 287.81 195.37 287.09 194.65C286.37 193.93 285.364 193.57 284.07 193.57H282.45V201.73H284.07ZM292.882 199.09C292.882 197.943 293.095 196.937 293.522 196.07C293.962 195.203 294.555 194.537 295.302 194.07C296.048 193.603 296.882 193.37 297.802 193.37C298.588 193.37 299.275 193.53 299.862 193.85C300.462 194.17 300.922 194.59 301.242 195.11V193.53H304.662V204.69H301.242V203.11C300.908 203.63 300.442 204.05 299.842 204.37C299.255 204.69 298.568 204.85 297.782 204.85C296.875 204.85 296.048 204.617 295.302 204.15C294.555 203.67 293.962 202.997 293.522 202.13C293.095 201.25 292.882 200.237 292.882 199.09ZM301.242 199.11C301.242 198.257 301.002 197.583 300.522 197.09C300.055 196.597 299.482 196.35 298.802 196.35C298.122 196.35 297.542 196.597 297.062 197.09C296.595 197.57 296.362 198.237 296.362 199.09C296.362 199.943 296.595 200.623 297.062 201.13C297.542 201.623 298.122 201.87 298.802 201.87C299.482 201.87 300.055 201.623 300.522 201.13C301.002 200.637 301.242 199.963 301.242 199.11ZM313.936 193.41C315.243 193.41 316.283 193.837 317.056 194.69C317.843 195.53 318.236 196.69 318.236 198.17V204.69H314.836V198.63C314.836 197.883 314.643 197.303 314.256 196.89C313.869 196.477 313.349 196.27 312.696 196.27C312.043 196.27 311.523 196.477 311.136 196.89C310.749 197.303 310.556 197.883 310.556 198.63V204.69H307.136V193.53H310.556V195.01C310.903 194.517 311.369 194.13 311.956 193.85C312.543 193.557 313.203 193.41 313.936 193.41ZM80.8586 225.11C81.1919 224.59 81.6519 224.17 82.2386 223.85C82.8253 223.53 83.5119 223.37 84.2986 223.37C85.2186 223.37 86.0519 223.603 86.7986 224.07C87.5453 224.537 88.1319 225.203 88.5586 226.07C88.9986 226.937 89.2186 227.943 89.2186 229.09C89.2186 230.237 88.9986 231.25 88.5586 232.13C88.1319 232.997 87.5453 233.67 86.7986 234.15C86.0519 234.617 85.2186 234.85 84.2986 234.85C83.5253 234.85 82.8386 234.69 82.2386 234.37C81.6519 234.05 81.1919 233.637 80.8586 233.13V240.01H77.4386V223.53H80.8586V225.11ZM85.7386 229.09C85.7386 228.237 85.4986 227.57 85.0186 227.09C84.5519 226.597 83.9719 226.35 83.2786 226.35C82.5986 226.35 82.0186 226.597 81.5386 227.09C81.0719 227.583 80.8386 228.257 80.8386 229.11C80.8386 229.963 81.0719 230.637 81.5386 231.13C82.0186 231.623 82.5986 231.87 83.2786 231.87C83.9586 231.87 84.5386 231.623 85.0186 231.13C85.4986 230.623 85.7386 229.943 85.7386 229.09ZM101.533 228.93C101.533 229.25 101.513 229.583 101.473 229.93H93.7328C93.7862 230.623 94.0062 231.157 94.3928 231.53C94.7928 231.89 95.2795 232.07 95.8528 232.07C96.7062 232.07 97.2995 231.71 97.6328 230.99H101.273C101.086 231.723 100.746 232.383 100.253 232.97C99.7728 233.557 99.1662 234.017 98.4328 234.35C97.6995 234.683 96.8795 234.85 95.9728 234.85C94.8795 234.85 93.9062 234.617 93.0528 234.15C92.1995 233.683 91.5328 233.017 91.0528 232.15C90.5728 231.283 90.3328 230.27 90.3328 229.11C90.3328 227.95 90.5662 226.937 91.0328 226.07C91.5128 225.203 92.1795 224.537 93.0328 224.07C93.8862 223.603 94.8662 223.37 95.9728 223.37C97.0528 223.37 98.0128 223.597 98.8528 224.05C99.6928 224.503 100.346 225.15 100.813 225.99C101.293 226.83 101.533 227.81 101.533 228.93ZM98.0328 228.03C98.0328 227.443 97.8328 226.977 97.4328 226.63C97.0328 226.283 96.5328 226.11 95.9328 226.11C95.3595 226.11 94.8728 226.277 94.4728 226.61C94.0862 226.943 93.8462 227.417 93.7528 228.03H98.0328ZM110.137 223.41C111.444 223.41 112.484 223.837 113.257 224.69C114.044 225.53 114.437 226.69 114.437 228.17V234.69H111.037V228.63C111.037 227.883 110.844 227.303 110.457 226.89C110.07 226.477 109.55 226.27 108.897 226.27C108.244 226.27 107.724 226.477 107.337 226.89C106.95 227.303 106.757 227.883 106.757 228.63V234.69H103.337V223.53H106.757V225.01C107.104 224.517 107.57 224.13 108.157 223.85C108.744 223.557 109.404 223.41 110.137 223.41ZM121.054 223.37C121.84 223.37 122.527 223.53 123.114 223.85C123.714 224.17 124.174 224.59 124.494 225.11V223.53H127.914V234.67C127.914 235.697 127.707 236.623 127.294 237.45C126.894 238.29 126.274 238.957 125.434 239.45C124.607 239.943 123.574 240.19 122.334 240.19C120.68 240.19 119.34 239.797 118.314 239.01C117.287 238.237 116.7 237.183 116.554 235.85H119.934C120.04 236.277 120.294 236.61 120.694 236.85C121.094 237.103 121.587 237.23 122.174 237.23C122.88 237.23 123.44 237.023 123.854 236.61C124.28 236.21 124.494 235.563 124.494 234.67V233.09C124.16 233.61 123.7 234.037 123.114 234.37C122.527 234.69 121.84 234.85 121.054 234.85C120.134 234.85 119.3 234.617 118.554 234.15C117.807 233.67 117.214 232.997 116.774 232.13C116.347 231.25 116.134 230.237 116.134 229.09C116.134 227.943 116.347 226.937 116.774 226.07C117.214 225.203 117.807 224.537 118.554 224.07C119.3 223.603 120.134 223.37 121.054 223.37ZM124.494 229.11C124.494 228.257 124.254 227.583 123.774 227.09C123.307 226.597 122.734 226.35 122.054 226.35C121.374 226.35 120.794 226.597 120.314 227.09C119.847 227.57 119.614 228.237 119.614 229.09C119.614 229.943 119.847 230.623 120.314 231.13C120.794 231.623 121.374 231.87 122.054 231.87C122.734 231.87 123.307 231.623 123.774 231.13C124.254 230.637 124.494 229.963 124.494 229.11ZM135.468 234.85C134.374 234.85 133.388 234.617 132.508 234.15C131.641 233.683 130.954 233.017 130.448 232.15C129.954 231.283 129.708 230.27 129.708 229.11C129.708 227.963 129.961 226.957 130.468 226.09C130.974 225.21 131.668 224.537 132.548 224.07C133.428 223.603 134.414 223.37 135.508 223.37C136.601 223.37 137.588 223.603 138.468 224.07C139.348 224.537 140.041 225.21 140.548 226.09C141.054 226.957 141.308 227.963 141.308 229.11C141.308 230.257 141.048 231.27 140.528 232.15C140.021 233.017 139.321 233.683 138.428 234.15C137.548 234.617 136.561 234.85 135.468 234.85ZM135.468 231.89C136.121 231.89 136.674 231.65 137.128 231.17C137.594 230.69 137.828 230.003 137.828 229.11C137.828 228.217 137.601 227.53 137.148 227.05C136.708 226.57 136.161 226.33 135.508 226.33C134.841 226.33 134.288 226.57 133.848 227.05C133.408 227.517 133.188 228.203 133.188 229.11C133.188 230.003 133.401 230.69 133.828 231.17C134.268 231.65 134.814 231.89 135.468 231.89ZM149.922 223.41C151.229 223.41 152.269 223.837 153.042 224.69C153.829 225.53 154.222 226.69 154.222 228.17V234.69H150.822V228.63C150.822 227.883 150.629 227.303 150.242 226.89C149.856 226.477 149.336 226.27 148.682 226.27C148.029 226.27 147.509 226.477 147.122 226.89C146.736 227.303 146.542 227.883 146.542 228.63V234.69H143.122V223.53H146.542V225.01C146.889 224.517 147.356 224.13 147.942 223.85C148.529 223.557 149.189 223.41 149.922 223.41ZM155.919 229.09C155.919 227.943 156.132 226.937 156.559 226.07C156.999 225.203 157.592 224.537 158.339 224.07C159.085 223.603 159.919 223.37 160.839 223.37C161.572 223.37 162.239 223.523 162.839 223.83C163.452 224.137 163.932 224.55 164.279 225.07V219.89H167.699V234.69H164.279V233.09C163.959 233.623 163.499 234.05 162.899 234.37C162.312 234.69 161.625 234.85 160.839 234.85C159.919 234.85 159.085 234.617 158.339 234.15C157.592 233.67 156.999 232.997 156.559 232.13C156.132 231.25 155.919 230.237 155.919 229.09ZM164.279 229.11C164.279 228.257 164.039 227.583 163.559 227.09C163.092 226.597 162.519 226.35 161.839 226.35C161.159 226.35 160.579 226.597 160.099 227.09C159.632 227.57 159.399 228.237 159.399 229.09C159.399 229.943 159.632 230.623 160.099 231.13C160.579 231.623 161.159 231.87 161.839 231.87C162.519 231.87 163.092 231.623 163.559 231.13C164.039 230.637 164.279 229.963 164.279 229.11ZM171.893 222.37C171.293 222.37 170.8 222.197 170.413 221.85C170.04 221.49 169.853 221.05 169.853 220.53C169.853 219.997 170.04 219.557 170.413 219.21C170.8 218.85 171.293 218.67 171.893 218.67C172.48 218.67 172.96 218.85 173.333 219.21C173.72 219.557 173.913 219.997 173.913 220.53C173.913 221.05 173.72 221.49 173.333 221.85C172.96 222.197 172.48 222.37 171.893 222.37ZM173.593 223.53V234.69H170.173V223.53H173.593ZM180.611 234.85C179.638 234.85 178.771 234.683 178.011 234.35C177.251 234.017 176.651 233.563 176.211 232.99C175.771 232.403 175.525 231.75 175.471 231.03H178.851C178.891 231.417 179.071 231.73 179.391 231.97C179.711 232.21 180.105 232.33 180.571 232.33C180.998 232.33 181.325 232.25 181.551 232.09C181.791 231.917 181.911 231.697 181.911 231.43C181.911 231.11 181.745 230.877 181.411 230.73C181.078 230.57 180.538 230.397 179.791 230.21C178.991 230.023 178.325 229.83 177.791 229.63C177.258 229.417 176.798 229.09 176.411 228.65C176.025 228.197 175.831 227.59 175.831 226.83C175.831 226.19 176.005 225.61 176.351 225.09C176.711 224.557 177.231 224.137 177.911 223.83C178.605 223.523 179.425 223.37 180.371 223.37C181.771 223.37 182.871 223.717 183.671 224.41C184.485 225.103 184.951 226.023 185.071 227.17H181.911C181.858 226.783 181.685 226.477 181.391 226.25C181.111 226.023 180.738 225.91 180.271 225.91C179.871 225.91 179.565 225.99 179.351 226.15C179.138 226.297 179.031 226.503 179.031 226.77C179.031 227.09 179.198 227.33 179.531 227.49C179.878 227.65 180.411 227.81 181.131 227.97C181.958 228.183 182.631 228.397 183.151 228.61C183.671 228.81 184.125 229.143 184.511 229.61C184.911 230.063 185.118 230.677 185.131 231.45C185.131 232.103 184.945 232.69 184.571 233.21C184.211 233.717 183.685 234.117 182.991 234.41C182.311 234.703 181.518 234.85 180.611 234.85ZM188.944 222.37C188.344 222.37 187.85 222.197 187.464 221.85C187.09 221.49 186.904 221.05 186.904 220.53C186.904 219.997 187.09 219.557 187.464 219.21C187.85 218.85 188.344 218.67 188.944 218.67C189.53 218.67 190.01 218.85 190.384 219.21C190.77 219.557 190.964 219.997 190.964 220.53C190.964 221.05 190.77 221.49 190.384 221.85C190.01 222.197 189.53 222.37 188.944 222.37ZM190.644 223.53V234.69H187.224V223.53H190.644ZM192.442 229.09C192.442 227.943 192.656 226.937 193.082 226.07C193.522 225.203 194.116 224.537 194.862 224.07C195.609 223.603 196.442 223.37 197.362 223.37C198.149 223.37 198.836 223.53 199.422 223.85C200.022 224.17 200.482 224.59 200.802 225.11V223.53H204.222V234.69H200.802V233.11C200.469 233.63 200.002 234.05 199.402 234.37C198.816 234.69 198.129 234.85 197.342 234.85C196.436 234.85 195.609 234.617 194.862 234.15C194.116 233.67 193.522 232.997 193.082 232.13C192.656 231.25 192.442 230.237 192.442 229.09ZM200.802 229.11C200.802 228.257 200.562 227.583 200.082 227.09C199.616 226.597 199.042 226.35 198.362 226.35C197.682 226.35 197.102 226.597 196.622 227.09C196.156 227.57 195.922 228.237 195.922 229.09C195.922 229.943 196.156 230.623 196.622 231.13C197.102 231.623 197.682 231.87 198.362 231.87C199.042 231.87 199.616 231.623 200.082 231.13C200.562 230.637 200.802 229.963 200.802 229.11ZM213.496 223.41C214.803 223.41 215.843 223.837 216.616 224.69C217.403 225.53 217.796 226.69 217.796 228.17V234.69H214.396V228.63C214.396 227.883 214.203 227.303 213.816 226.89C213.43 226.477 212.91 226.27 212.256 226.27C211.603 226.27 211.083 226.477 210.696 226.89C210.31 227.303 210.116 227.883 210.116 228.63V234.69H206.696V223.53H210.116V225.01C210.463 224.517 210.93 224.13 211.516 223.85C212.103 223.557 212.763 223.41 213.496 223.41ZM227.831 232.05H232.311V234.69H224.411V220.65H227.831V232.05ZM235.663 222.37C235.063 222.37 234.569 222.197 234.183 221.85C233.809 221.49 233.623 221.05 233.623 220.53C233.623 219.997 233.809 219.557 234.183 219.21C234.569 218.85 235.063 218.67 235.663 218.67C236.249 218.67 236.729 218.85 237.103 219.21C237.489 219.557 237.683 219.997 237.683 220.53C237.683 221.05 237.489 221.49 237.103 221.85C236.729 222.197 236.249 222.37 235.663 222.37ZM237.363 223.53V234.69H233.943V223.53H237.363ZM246.641 223.41C247.948 223.41 248.988 223.837 249.761 224.69C250.548 225.53 250.941 226.69 250.941 228.17V234.69H247.541V228.63C247.541 227.883 247.348 227.303 246.961 226.89C246.574 226.477 246.054 226.27 245.401 226.27C244.748 226.27 244.228 226.477 243.841 226.89C243.454 227.303 243.261 227.883 243.261 228.63V234.69H239.841V223.53H243.261V225.01C243.608 224.517 244.074 224.13 244.661 223.85C245.248 223.557 245.908 223.41 246.641 223.41ZM257.558 223.37C258.344 223.37 259.031 223.53 259.618 223.85C260.218 224.17 260.678 224.59 260.998 225.11V223.53H264.418V234.67C264.418 235.697 264.211 236.623 263.798 237.45C263.398 238.29 262.778 238.957 261.938 239.45C261.111 239.943 260.078 240.19 258.838 240.19C257.184 240.19 255.844 239.797 254.818 239.01C253.791 238.237 253.204 237.183 253.058 235.85H256.438C256.544 236.277 256.798 236.61 257.198 236.85C257.598 237.103 258.091 237.23 258.678 237.23C259.384 237.23 259.944 237.023 260.358 236.61C260.784 236.21 260.998 235.563 260.998 234.67V233.09C260.664 233.61 260.204 234.037 259.618 234.37C259.031 234.69 258.344 234.85 257.558 234.85C256.638 234.85 255.804 234.617 255.058 234.15C254.311 233.67 253.718 232.997 253.278 232.13C252.851 231.25 252.638 230.237 252.638 229.09C252.638 227.943 252.851 226.937 253.278 226.07C253.718 225.203 254.311 224.537 255.058 224.07C255.804 223.603 256.638 223.37 257.558 223.37ZM260.998 229.11C260.998 228.257 260.758 227.583 260.278 227.09C259.811 226.597 259.238 226.35 258.558 226.35C257.878 226.35 257.298 226.597 256.818 227.09C256.351 227.57 256.118 228.237 256.118 229.09C256.118 229.943 256.351 230.623 256.818 231.13C257.298 231.623 257.878 231.87 258.558 231.87C259.238 231.87 259.811 231.623 260.278 231.13C260.758 230.637 260.998 229.963 260.998 229.11ZM273.712 234.69L270.312 230.01V234.69H266.892V219.89H270.312V228.07L273.692 223.53H277.912L273.272 229.13L277.952 234.69H273.712ZM290.275 223.53V234.69H286.855V233.17C286.508 233.663 286.035 234.063 285.435 234.37C284.848 234.663 284.195 234.81 283.475 234.81C282.622 234.81 281.868 234.623 281.215 234.25C280.562 233.863 280.055 233.31 279.695 232.59C279.335 231.87 279.155 231.023 279.155 230.05V223.53H282.555V229.59C282.555 230.337 282.748 230.917 283.135 231.33C283.522 231.743 284.042 231.95 284.695 231.95C285.362 231.95 285.888 231.743 286.275 231.33C286.662 230.917 286.855 230.337 286.855 229.59V223.53H290.275ZM299.532 223.41C300.838 223.41 301.878 223.837 302.652 224.69C303.438 225.53 303.832 226.69 303.832 228.17V234.69H300.432V228.63C300.432 227.883 300.238 227.303 299.852 226.89C299.465 226.477 298.945 226.27 298.292 226.27C297.638 226.27 297.118 226.477 296.732 226.89C296.345 227.303 296.152 227.883 296.152 228.63V234.69H292.732V223.53H296.152V225.01C296.498 224.517 296.965 224.13 297.552 223.85C298.138 223.557 298.798 223.41 299.532 223.41ZM310.448 223.37C311.235 223.37 311.921 223.53 312.508 223.85C313.108 224.17 313.568 224.59 313.888 225.11V223.53H317.308V234.67C317.308 235.697 317.101 236.623 316.688 237.45C316.288 238.29 315.668 238.957 314.828 239.45C314.001 239.943 312.968 240.19 311.728 240.19C310.075 240.19 308.735 239.797 307.708 239.01C306.681 238.237 306.095 237.183 305.948 235.85H309.328C309.435 236.277 309.688 236.61 310.088 236.85C310.488 237.103 310.981 237.23 311.568 237.23C312.275 237.23 312.835 237.023 313.248 236.61C313.675 236.21 313.888 235.563 313.888 234.67V233.09C313.555 233.61 313.095 234.037 312.508 234.37C311.921 234.69 311.235 234.85 310.448 234.85C309.528 234.85 308.695 234.617 307.948 234.15C307.201 233.67 306.608 232.997 306.168 232.13C305.741 231.25 305.528 230.237 305.528 229.09C305.528 227.943 305.741 226.937 306.168 226.07C306.608 225.203 307.201 224.537 307.948 224.07C308.695 223.603 309.528 223.37 310.448 223.37ZM313.888 229.11C313.888 228.257 313.648 227.583 313.168 227.09C312.701 226.597 312.128 226.35 311.448 226.35C310.768 226.35 310.188 226.597 309.708 227.09C309.241 227.57 309.008 228.237 309.008 229.09C309.008 229.943 309.241 230.623 309.708 231.13C310.188 231.623 310.768 231.87 311.448 231.87C312.128 231.87 312.701 231.623 313.168 231.13C313.648 230.637 313.888 229.963 313.888 229.11ZM319.102 229.09C319.102 227.943 319.316 226.937 319.742 226.07C320.182 225.203 320.776 224.537 321.522 224.07C322.269 223.603 323.102 223.37 324.022 223.37C324.809 223.37 325.496 223.53 326.082 223.85C326.682 224.17 327.142 224.59 327.462 225.11V223.53H330.882V234.69H327.462V233.11C327.129 233.63 326.662 234.05 326.062 234.37C325.476 234.69 324.789 234.85 324.002 234.85C323.096 234.85 322.269 234.617 321.522 234.15C320.776 233.67 320.182 232.997 319.742 232.13C319.316 231.25 319.102 230.237 319.102 229.09ZM327.462 229.11C327.462 228.257 327.222 227.583 326.742 227.09C326.276 226.597 325.702 226.35 325.022 226.35C324.342 226.35 323.762 226.597 323.282 227.09C322.816 227.57 322.582 228.237 322.582 229.09C322.582 229.943 322.816 230.623 323.282 231.13C323.762 231.623 324.342 231.87 325.022 231.87C325.702 231.87 326.276 231.623 326.742 231.13C327.222 230.637 327.462 229.963 327.462 229.11ZM340.157 223.41C341.463 223.41 342.503 223.837 343.277 224.69C344.063 225.53 344.457 226.69 344.457 228.17V234.69H341.057V228.63C341.057 227.883 340.863 227.303 340.477 226.89C340.09 226.477 339.57 226.27 338.917 226.27C338.263 226.27 337.743 226.477 337.357 226.89C336.97 227.303 336.777 227.883 336.777 228.63V234.69H333.357V223.53H336.777V225.01C337.123 224.517 337.59 224.13 338.177 223.85C338.763 223.557 339.423 223.41 340.157 223.41Z" fill="white"/>
<rect x="0.324957" y="273.408" width="374.35" height="62.3917" rx="31.1958" stroke="white" stroke-width="0.649913"/>
<g clip-path="url(#clip2_5264_4235)">
<g filter="url(#filter2_d_5264_4235)">
<path d="M32.5 296L34.7958 302.204L41 304.5L34.7958 306.796L32.5 313L30.2042 306.796L24 304.5L30.2042 302.204L32.5 296Z" fill="#D9D9D9"/>
</g>
</g>
<rect x="13.3711" y="284.505" width="39.5484" height="39.5484" rx="19.7742" stroke="white" stroke-width="0.746197"/>
<path d="M132.411 311.731L129.491 306.431H128.671V311.731H125.251V297.691H130.991C132.098 297.691 133.038 297.885 133.811 298.271C134.598 298.658 135.184 299.191 135.571 299.871C135.958 300.538 136.151 301.285 136.151 302.111C136.151 303.045 135.884 303.878 135.351 304.611C134.831 305.345 134.058 305.865 133.031 306.171L136.271 311.731H132.411ZM128.671 304.011H130.791C131.418 304.011 131.884 303.858 132.191 303.551C132.511 303.245 132.671 302.811 132.671 302.251C132.671 301.718 132.511 301.298 132.191 300.991C131.884 300.685 131.418 300.531 130.791 300.531H128.671V304.011ZM148.818 305.971C148.818 306.291 148.798 306.625 148.758 306.971H141.018C141.071 307.665 141.291 308.198 141.678 308.571C142.078 308.931 142.565 309.111 143.138 309.111C143.991 309.111 144.585 308.751 144.918 308.031H148.558C148.371 308.765 148.031 309.425 147.538 310.011C147.058 310.598 146.451 311.058 145.718 311.391C144.985 311.725 144.165 311.891 143.258 311.891C142.165 311.891 141.191 311.658 140.338 311.191C139.485 310.725 138.818 310.058 138.338 309.191C137.858 308.325 137.618 307.311 137.618 306.151C137.618 304.991 137.851 303.978 138.318 303.111C138.798 302.245 139.465 301.578 140.318 301.111C141.171 300.645 142.151 300.411 143.258 300.411C144.338 300.411 145.298 300.638 146.138 301.091C146.978 301.545 147.631 302.191 148.098 303.031C148.578 303.871 148.818 304.851 148.818 305.971ZM145.318 305.071C145.318 304.485 145.118 304.018 144.718 303.671C144.318 303.325 143.818 303.151 143.218 303.151C142.645 303.151 142.158 303.318 141.758 303.651C141.371 303.985 141.131 304.458 141.038 305.071H145.318ZM157.442 311.731L154.042 307.051V311.731H150.622V296.931H154.042V305.111L157.422 300.571H161.642L157.002 306.171L161.682 311.731H157.442ZM162.305 306.131C162.305 304.985 162.519 303.978 162.945 303.111C163.385 302.245 163.979 301.578 164.725 301.111C165.472 300.645 166.305 300.411 167.225 300.411C168.012 300.411 168.699 300.571 169.285 300.891C169.885 301.211 170.345 301.631 170.665 302.151V300.571H174.085V311.731H170.665V310.151C170.332 310.671 169.865 311.091 169.265 311.411C168.679 311.731 167.992 311.891 167.205 311.891C166.299 311.891 165.472 311.658 164.725 311.191C163.979 310.711 163.385 310.038 162.945 309.171C162.519 308.291 162.305 307.278 162.305 306.131ZM170.665 306.151C170.665 305.298 170.425 304.625 169.945 304.131C169.479 303.638 168.905 303.391 168.225 303.391C167.545 303.391 166.965 303.638 166.485 304.131C166.019 304.611 165.785 305.278 165.785 306.131C165.785 306.985 166.019 307.665 166.485 308.171C166.965 308.665 167.545 308.911 168.225 308.911C168.905 308.911 169.479 308.665 169.945 308.171C170.425 307.678 170.665 307.005 170.665 306.151ZM187.96 300.571L180.96 317.031H177.28L179.84 311.351L175.3 300.571H179.12L181.7 307.551L184.26 300.571H187.96ZM188.516 306.131C188.516 304.985 188.73 303.978 189.156 303.111C189.596 302.245 190.19 301.578 190.936 301.111C191.683 300.645 192.516 300.411 193.436 300.411C194.223 300.411 194.91 300.571 195.496 300.891C196.096 301.211 196.556 301.631 196.876 302.151V300.571H200.296V311.731H196.876V310.151C196.543 310.671 196.076 311.091 195.476 311.411C194.89 311.731 194.203 311.891 193.416 311.891C192.51 311.891 191.683 311.658 190.936 311.191C190.19 310.711 189.596 310.038 189.156 309.171C188.73 308.291 188.516 307.278 188.516 306.131ZM196.876 306.151C196.876 305.298 196.636 304.625 196.156 304.131C195.69 303.638 195.116 303.391 194.436 303.391C193.756 303.391 193.176 303.638 192.696 304.131C192.23 304.611 191.996 305.278 191.996 306.131C191.996 306.985 192.23 307.665 192.696 308.171C193.176 308.665 193.756 308.911 194.436 308.911C195.116 308.911 195.69 308.665 196.156 308.171C196.636 307.678 196.876 307.005 196.876 306.151ZM207.311 311.891C206.337 311.891 205.471 311.725 204.711 311.391C203.951 311.058 203.351 310.605 202.911 310.031C202.471 309.445 202.224 308.791 202.171 308.071H205.551C205.591 308.458 205.771 308.771 206.091 309.011C206.411 309.251 206.804 309.371 207.271 309.371C207.697 309.371 208.024 309.291 208.251 309.131C208.491 308.958 208.611 308.738 208.611 308.471C208.611 308.151 208.444 307.918 208.111 307.771C207.777 307.611 207.237 307.438 206.491 307.251C205.691 307.065 205.024 306.871 204.491 306.671C203.957 306.458 203.497 306.131 203.111 305.691C202.724 305.238 202.531 304.631 202.531 303.871C202.531 303.231 202.704 302.651 203.051 302.131C203.411 301.598 203.931 301.178 204.611 300.871C205.304 300.565 206.124 300.411 207.071 300.411C208.471 300.411 209.571 300.758 210.371 301.451C211.184 302.145 211.651 303.065 211.771 304.211H208.611C208.557 303.825 208.384 303.518 208.091 303.291C207.811 303.065 207.437 302.951 206.971 302.951C206.571 302.951 206.264 303.031 206.051 303.191C205.837 303.338 205.731 303.545 205.731 303.811C205.731 304.131 205.897 304.371 206.231 304.531C206.577 304.691 207.111 304.851 207.831 305.011C208.657 305.225 209.331 305.438 209.851 305.651C210.371 305.851 210.824 306.185 211.211 306.651C211.611 307.105 211.817 307.718 211.831 308.491C211.831 309.145 211.644 309.731 211.271 310.251C210.911 310.758 210.384 311.158 209.691 311.451C209.011 311.745 208.217 311.891 207.311 311.891ZM213.243 306.131C213.243 304.985 213.456 303.978 213.883 303.111C214.323 302.245 214.916 301.578 215.663 301.111C216.41 300.645 217.243 300.411 218.163 300.411C218.95 300.411 219.636 300.571 220.223 300.891C220.823 301.211 221.283 301.631 221.603 302.151V300.571H225.023V311.731H221.603V310.151C221.27 310.671 220.803 311.091 220.203 311.411C219.616 311.731 218.93 311.891 218.143 311.891C217.236 311.891 216.41 311.658 215.663 311.191C214.916 310.711 214.323 310.038 213.883 309.171C213.456 308.291 213.243 307.278 213.243 306.131ZM221.603 306.151C221.603 305.298 221.363 304.625 220.883 304.131C220.416 303.638 219.843 303.391 219.163 303.391C218.483 303.391 217.903 303.638 217.423 304.131C216.956 304.611 216.723 305.278 216.723 306.131C216.723 306.985 216.956 307.665 217.423 308.171C217.903 308.665 218.483 308.911 219.163 308.911C219.843 308.911 220.416 308.665 220.883 308.171C221.363 307.678 221.603 307.005 221.603 306.151ZM240.235 304.531C241.049 304.705 241.702 305.111 242.195 305.751C242.689 306.378 242.935 307.098 242.935 307.911C242.935 309.085 242.522 310.018 241.695 310.711C240.882 311.391 239.742 311.731 238.275 311.731H231.735V297.691H238.055C239.482 297.691 240.595 298.018 241.395 298.671C242.209 299.325 242.615 300.211 242.615 301.331C242.615 302.158 242.395 302.845 241.955 303.391C241.529 303.938 240.955 304.318 240.235 304.531ZM235.155 303.371H237.395C237.955 303.371 238.382 303.251 238.675 303.011C238.982 302.758 239.135 302.391 239.135 301.911C239.135 301.431 238.982 301.065 238.675 300.811C238.382 300.558 237.955 300.431 237.395 300.431H235.155V303.371ZM237.675 308.971C238.249 308.971 238.689 308.845 238.995 308.591C239.315 308.325 239.475 307.945 239.475 307.451C239.475 306.958 239.309 306.571 238.975 306.291C238.655 306.011 238.209 305.871 237.635 305.871H235.155V308.971H237.675ZM244.239 306.131C244.239 304.985 244.452 303.978 244.879 303.111C245.319 302.245 245.912 301.578 246.659 301.111C247.406 300.645 248.239 300.411 249.159 300.411C249.946 300.411 250.632 300.571 251.219 300.891C251.819 301.211 252.279 301.631 252.599 302.151V300.571H256.019V311.731H252.599V310.151C252.266 310.671 251.799 311.091 251.199 311.411C250.612 311.731 249.926 311.891 249.139 311.891C248.232 311.891 247.406 311.658 246.659 311.191C245.912 310.711 245.319 310.038 244.879 309.171C244.452 308.291 244.239 307.278 244.239 306.131ZM252.599 306.151C252.599 305.298 252.359 304.625 251.879 304.131C251.412 303.638 250.839 303.391 250.159 303.391C249.479 303.391 248.899 303.638 248.419 304.131C247.952 304.611 247.719 305.278 247.719 306.131C247.719 306.985 247.952 307.665 248.419 308.171C248.899 308.665 249.479 308.911 250.159 308.911C250.839 308.911 251.412 308.665 251.879 308.171C252.359 307.678 252.599 307.005 252.599 306.151ZM265.353 300.451C266.633 300.451 267.66 300.878 268.433 301.731C269.207 302.571 269.593 303.731 269.593 305.211V311.731H266.193V305.671C266.193 304.925 266 304.345 265.613 303.931C265.227 303.518 264.707 303.311 264.053 303.311C263.4 303.311 262.88 303.518 262.493 303.931C262.107 304.345 261.913 304.925 261.913 305.671V311.731H258.493V296.931H261.913V302.071C262.26 301.578 262.733 301.185 263.333 300.891C263.933 300.598 264.607 300.451 265.353 300.451ZM271.29 306.131C271.29 304.985 271.503 303.978 271.93 303.111C272.37 302.245 272.963 301.578 273.71 301.111C274.457 300.645 275.29 300.411 276.21 300.411C276.997 300.411 277.683 300.571 278.27 300.891C278.87 301.211 279.33 301.631 279.65 302.151V300.571H283.07V311.731H279.65V310.151C279.317 310.671 278.85 311.091 278.25 311.411C277.663 311.731 276.977 311.891 276.19 311.891C275.283 311.891 274.457 311.658 273.71 311.191C272.963 310.711 272.37 310.038 271.93 309.171C271.503 308.291 271.29 307.278 271.29 306.131ZM279.65 306.151C279.65 305.298 279.41 304.625 278.93 304.131C278.463 303.638 277.89 303.391 277.21 303.391C276.53 303.391 275.95 303.638 275.47 304.131C275.003 304.611 274.77 305.278 274.77 306.131C274.77 306.985 275.003 307.665 275.47 308.171C275.95 308.665 276.53 308.911 277.21 308.911C277.89 308.911 278.463 308.665 278.93 308.171C279.41 307.678 279.65 307.005 279.65 306.151ZM292.344 300.451C293.651 300.451 294.691 300.878 295.464 301.731C296.251 302.571 296.644 303.731 296.644 305.211V311.731H293.244V305.671C293.244 304.925 293.051 304.345 292.664 303.931C292.277 303.518 291.757 303.311 291.104 303.311C290.451 303.311 289.931 303.518 289.544 303.931C289.157 304.345 288.964 304.925 288.964 305.671V311.731H285.544V300.571H288.964V302.051C289.311 301.558 289.777 301.171 290.364 300.891C290.951 300.598 291.611 300.451 292.344 300.451Z" fill="white"/>
<rect x="0.324957" y="365.45" width="374.35" height="62.3917" rx="31.1958" stroke="white" stroke-width="0.649913"/>
<g clip-path="url(#clip3_5264_4235)">
<g filter="url(#filter3_d_5264_4235)">
<path d="M32.5 388L34.7958 394.204L41 396.5L34.7958 398.796L32.5 405L30.2042 398.796L24 396.5L30.2042 394.204L32.5 388Z" fill="#D9D9D9"/>
</g>
</g>
<rect x="13.3711" y="376.547" width="39.5484" height="39.5484" rx="19.7742" stroke="white" stroke-width="0.746197"/>
<path d="M125.072 389.733L120.092 403.773H115.812L110.832 389.733H114.472L117.952 400.333L121.452 389.733H125.072ZM128.221 391.453C127.621 391.453 127.128 391.28 126.741 390.933C126.368 390.573 126.181 390.133 126.181 389.613C126.181 389.08 126.368 388.64 126.741 388.293C127.128 387.933 127.621 387.753 128.221 387.753C128.808 387.753 129.288 387.933 129.661 388.293C130.048 388.64 130.241 389.08 130.241 389.613C130.241 390.133 130.048 390.573 129.661 390.933C129.288 391.28 128.808 391.453 128.221 391.453ZM129.921 392.613V403.773H126.501V392.613H129.921ZM135.82 394.193C136.14 393.673 136.6 393.253 137.2 392.933C137.8 392.613 138.486 392.453 139.26 392.453C140.18 392.453 141.013 392.687 141.76 393.153C142.506 393.62 143.093 394.287 143.52 395.153C143.96 396.02 144.18 397.027 144.18 398.173C144.18 399.32 143.96 400.333 143.52 401.213C143.093 402.08 142.506 402.753 141.76 403.233C141.013 403.7 140.18 403.933 139.26 403.933C138.473 403.933 137.786 403.78 137.2 403.473C136.613 403.153 136.153 402.733 135.82 402.213V403.773H132.4V388.973H135.82V394.193ZM140.7 398.173C140.7 397.32 140.46 396.653 139.98 396.173C139.513 395.68 138.933 395.433 138.24 395.433C137.56 395.433 136.98 395.68 136.5 396.173C136.033 396.667 135.8 397.34 135.8 398.193C135.8 399.047 136.033 399.72 136.5 400.213C136.98 400.707 137.56 400.953 138.24 400.953C138.92 400.953 139.5 400.707 139.98 400.213C140.46 399.707 140.7 399.027 140.7 398.173ZM149.394 394.473C149.794 393.86 150.294 393.38 150.894 393.033C151.494 392.673 152.16 392.493 152.894 392.493V396.113H151.954C151.1 396.113 150.46 396.3 150.034 396.673C149.607 397.033 149.394 397.673 149.394 398.593V403.773H145.974V392.613H149.394V394.473ZM153.848 398.173C153.848 397.027 154.062 396.02 154.488 395.153C154.928 394.287 155.522 393.62 156.268 393.153C157.015 392.687 157.848 392.453 158.768 392.453C159.555 392.453 160.242 392.613 160.828 392.933C161.428 393.253 161.888 393.673 162.208 394.193V392.613H165.628V403.773H162.208V402.193C161.875 402.713 161.408 403.133 160.808 403.453C160.222 403.773 159.535 403.933 158.748 403.933C157.842 403.933 157.015 403.7 156.268 403.233C155.522 402.753 154.928 402.08 154.488 401.213C154.062 400.333 153.848 399.32 153.848 398.173ZM162.208 398.193C162.208 397.34 161.968 396.667 161.488 396.173C161.022 395.68 160.448 395.433 159.768 395.433C159.088 395.433 158.508 395.68 158.028 396.173C157.562 396.653 157.328 397.32 157.328 398.173C157.328 399.027 157.562 399.707 158.028 400.213C158.508 400.707 159.088 400.953 159.768 400.953C160.448 400.953 161.022 400.707 161.488 400.213C161.968 399.72 162.208 399.047 162.208 398.193ZM172.643 403.933C171.669 403.933 170.803 403.767 170.043 403.433C169.283 403.1 168.683 402.647 168.243 402.073C167.803 401.487 167.556 400.833 167.503 400.113H170.883C170.923 400.5 171.103 400.813 171.423 401.053C171.743 401.293 172.136 401.413 172.603 401.413C173.029 401.413 173.356 401.333 173.583 401.173C173.823 401 173.943 400.78 173.943 400.513C173.943 400.193 173.776 399.96 173.443 399.813C173.109 399.653 172.569 399.48 171.823 399.293C171.023 399.107 170.356 398.913 169.823 398.713C169.289 398.5 168.829 398.173 168.443 397.733C168.056 397.28 167.863 396.673 167.863 395.913C167.863 395.273 168.036 394.693 168.383 394.173C168.743 393.64 169.263 393.22 169.943 392.913C170.636 392.607 171.456 392.453 172.403 392.453C173.803 392.453 174.903 392.8 175.703 393.493C176.516 394.187 176.983 395.107 177.103 396.253H173.943C173.889 395.867 173.716 395.56 173.423 395.333C173.143 395.107 172.769 394.993 172.303 394.993C171.903 394.993 171.596 395.073 171.383 395.233C171.169 395.38 171.063 395.587 171.063 395.853C171.063 396.173 171.229 396.413 171.563 396.573C171.909 396.733 172.443 396.893 173.163 397.053C173.989 397.267 174.663 397.48 175.183 397.693C175.703 397.893 176.156 398.227 176.543 398.693C176.943 399.147 177.149 399.76 177.163 400.533C177.163 401.187 176.976 401.773 176.603 402.293C176.243 402.8 175.716 403.2 175.023 403.493C174.343 403.787 173.549 403.933 172.643 403.933ZM180.975 391.453C180.375 391.453 179.882 391.28 179.495 390.933C179.122 390.573 178.935 390.133 178.935 389.613C178.935 389.08 179.122 388.64 179.495 388.293C179.882 387.933 180.375 387.753 180.975 387.753C181.562 387.753 182.042 387.933 182.415 388.293C182.802 388.64 182.995 389.08 182.995 389.613C182.995 390.133 182.802 390.573 182.415 390.933C182.042 391.28 181.562 391.453 180.975 391.453ZM182.675 392.613V403.773H179.255V392.613H182.675ZM188.712 398.173C188.712 397.027 188.925 396.02 189.352 395.153C189.792 394.287 190.385 393.62 191.132 393.153C191.878 392.687 192.712 392.453 193.632 392.453C194.365 392.453 195.032 392.607 195.632 392.913C196.245 393.22 196.725 393.633 197.072 394.153V388.973H200.492V403.773H197.072V402.173C196.752 402.707 196.292 403.133 195.692 403.453C195.105 403.773 194.418 403.933 193.632 403.933C192.712 403.933 191.878 403.7 191.132 403.233C190.385 402.753 189.792 402.08 189.352 401.213C188.925 400.333 188.712 399.32 188.712 398.173ZM197.072 398.193C197.072 397.34 196.832 396.667 196.352 396.173C195.885 395.68 195.312 395.433 194.632 395.433C193.952 395.433 193.372 395.68 192.892 396.173C192.425 396.653 192.192 397.32 192.192 398.173C192.192 399.027 192.425 399.707 192.892 400.213C193.372 400.707 193.952 400.953 194.632 400.953C195.312 400.953 195.885 400.707 196.352 400.213C196.832 399.72 197.072 399.047 197.072 398.193ZM202.286 398.173C202.286 397.027 202.499 396.02 202.926 395.153C203.366 394.287 203.959 393.62 204.706 393.153C205.453 392.687 206.286 392.453 207.206 392.453C207.993 392.453 208.679 392.613 209.266 392.933C209.866 393.253 210.326 393.673 210.646 394.193V392.613H214.066V403.773H210.646V402.193C210.313 402.713 209.846 403.133 209.246 403.453C208.659 403.773 207.973 403.933 207.186 403.933C206.279 403.933 205.453 403.7 204.706 403.233C203.959 402.753 203.366 402.08 202.926 401.213C202.499 400.333 202.286 399.32 202.286 398.173ZM210.646 398.193C210.646 397.34 210.406 396.667 209.926 396.173C209.459 395.68 208.886 395.433 208.206 395.433C207.526 395.433 206.946 395.68 206.466 396.173C205.999 396.653 205.766 397.32 205.766 398.173C205.766 399.027 205.999 399.707 206.466 400.213C206.946 400.707 207.526 400.953 208.206 400.953C208.886 400.953 209.459 400.707 209.926 400.213C210.406 399.72 210.646 399.047 210.646 398.193ZM223.34 392.493C224.647 392.493 225.687 392.92 226.46 393.773C227.247 394.613 227.64 395.773 227.64 397.253V403.773H224.24V397.713C224.24 396.967 224.047 396.387 223.66 395.973C223.274 395.56 222.754 395.353 222.1 395.353C221.447 395.353 220.927 395.56 220.54 395.973C220.154 396.387 219.96 396.967 219.96 397.713V403.773H216.54V392.613H219.96V394.093C220.307 393.6 220.774 393.213 221.36 392.933C221.947 392.64 222.607 392.493 223.34 392.493ZM242.995 401.293H237.755L236.915 403.773H233.335L238.415 389.733H242.375L247.455 403.773H243.835L242.995 401.293ZM242.115 398.653L240.375 393.513L238.655 398.653H242.115ZM255.821 403.773L252.421 399.093V403.773H249.001V388.973H252.421V397.153L255.801 392.613H260.021L255.381 398.213L260.061 403.773H255.821ZM272.384 392.613V403.773H268.964V402.253C268.618 402.747 268.144 403.147 267.544 403.453C266.958 403.747 266.304 403.893 265.584 403.893C264.731 403.893 263.978 403.707 263.324 403.333C262.671 402.947 262.164 402.393 261.804 401.673C261.444 400.953 261.264 400.107 261.264 399.133V392.613H264.664V398.673C264.664 399.42 264.858 400 265.244 400.413C265.631 400.827 266.151 401.033 266.804 401.033C267.471 401.033 267.998 400.827 268.384 400.413C268.771 400 268.964 399.42 268.964 398.673V392.613H272.384ZM279.381 403.933C278.408 403.933 277.541 403.767 276.781 403.433C276.021 403.1 275.421 402.647 274.981 402.073C274.541 401.487 274.294 400.833 274.241 400.113H277.621C277.661 400.5 277.841 400.813 278.161 401.053C278.481 401.293 278.874 401.413 279.341 401.413C279.768 401.413 280.094 401.333 280.321 401.173C280.561 401 280.681 400.78 280.681 400.513C280.681 400.193 280.514 399.96 280.181 399.813C279.848 399.653 279.308 399.48 278.561 399.293C277.761 399.107 277.094 398.913 276.561 398.713C276.028 398.5 275.568 398.173 275.181 397.733C274.794 397.28 274.601 396.673 274.601 395.913C274.601 395.273 274.774 394.693 275.121 394.173C275.481 393.64 276.001 393.22 276.681 392.913C277.374 392.607 278.194 392.453 279.141 392.453C280.541 392.453 281.641 392.8 282.441 393.493C283.254 394.187 283.721 395.107 283.841 396.253H280.681C280.628 395.867 280.454 395.56 280.161 395.333C279.881 395.107 279.508 394.993 279.041 394.993C278.641 394.993 278.334 395.073 278.121 395.233C277.908 395.38 277.801 395.587 277.801 395.853C277.801 396.173 277.968 396.413 278.301 396.573C278.648 396.733 279.181 396.893 279.901 397.053C280.728 397.267 281.401 397.48 281.921 397.693C282.441 397.893 282.894 398.227 283.281 398.693C283.681 399.147 283.888 399.76 283.901 400.533C283.901 401.187 283.714 401.773 283.341 402.293C282.981 402.8 282.454 403.2 281.761 403.493C281.081 403.787 280.288 403.933 279.381 403.933ZM292.213 400.873V403.773H290.473C289.233 403.773 288.267 403.473 287.573 402.873C286.88 402.26 286.533 401.267 286.533 399.893V395.453H285.173V392.613H286.533V389.893H289.953V392.613H292.193V395.453H289.953V399.933C289.953 400.267 290.033 400.507 290.193 400.653C290.353 400.8 290.62 400.873 290.993 400.873H292.213ZM295.838 391.453C295.238 391.453 294.745 391.28 294.358 390.933C293.985 390.573 293.798 390.133 293.798 389.613C293.798 389.08 293.985 388.64 294.358 388.293C294.745 387.933 295.238 387.753 295.838 387.753C296.425 387.753 296.905 387.933 297.278 388.293C297.665 388.64 297.858 389.08 297.858 389.613C297.858 390.133 297.665 390.573 297.278 390.933C296.905 391.28 296.425 391.453 295.838 391.453ZM297.538 392.613V403.773H294.118V392.613H297.538ZM306.837 403.773L303.437 399.093V403.773H300.017V388.973H303.437V397.153L306.817 392.613H311.037L306.397 398.213L311.077 403.773H306.837Z" fill="white"/>
<rect x="0.324957" y="457.491" width="374.35" height="62.3917" rx="31.1958" stroke="white" stroke-width="0.649913"/>
<g clip-path="url(#clip4_5264_4235)">
<g filter="url(#filter4_d_5264_4235)">
<path d="M32.5 480L34.7958 486.204L41 488.5L34.7958 490.796L32.5 497L30.2042 490.796L24 488.5L30.2042 486.204L32.5 480Z" fill="#D9D9D9"/>
</g>
</g>
<rect x="13.3711" y="468.588" width="39.5484" height="39.5484" rx="19.7742" stroke="white" stroke-width="0.746197"/>
<path d="M121.132 495.815L118.212 490.515H117.392V495.815H113.972V481.775H119.712C120.818 481.775 121.758 481.968 122.532 482.355C123.318 482.742 123.905 483.275 124.292 483.955C124.678 484.622 124.872 485.368 124.872 486.195C124.872 487.128 124.605 487.962 124.072 488.695C123.552 489.428 122.778 489.948 121.752 490.255L124.992 495.815H121.132ZM117.392 488.095H119.512C120.138 488.095 120.605 487.942 120.912 487.635C121.232 487.328 121.392 486.895 121.392 486.335C121.392 485.802 121.232 485.382 120.912 485.075C120.605 484.768 120.138 484.615 119.512 484.615H117.392V488.095ZM137.539 490.055C137.539 490.375 137.519 490.708 137.479 491.055H129.739C129.792 491.748 130.012 492.282 130.399 492.655C130.799 493.015 131.285 493.195 131.859 493.195C132.712 493.195 133.305 492.835 133.639 492.115H137.279C137.092 492.848 136.752 493.508 136.259 494.095C135.779 494.682 135.172 495.142 134.439 495.475C133.705 495.808 132.885 495.975 131.979 495.975C130.885 495.975 129.912 495.742 129.059 495.275C128.205 494.808 127.539 494.142 127.059 493.275C126.579 492.408 126.339 491.395 126.339 490.235C126.339 489.075 126.572 488.062 127.039 487.195C127.519 486.328 128.185 485.662 129.039 485.195C129.892 484.728 130.872 484.495 131.979 484.495C133.059 484.495 134.019 484.722 134.859 485.175C135.699 485.628 136.352 486.275 136.819 487.115C137.299 487.955 137.539 488.935 137.539 490.055ZM134.039 489.155C134.039 488.568 133.839 488.102 133.439 487.755C133.039 487.408 132.539 487.235 131.939 487.235C131.365 487.235 130.879 487.402 130.479 487.735C130.092 488.068 129.852 488.542 129.759 489.155H134.039ZM146.163 495.815L142.763 491.135V495.815H139.343V481.015H142.763V489.195L146.143 484.655H150.363L145.723 490.255L150.403 495.815H146.163ZM151.026 490.215C151.026 489.068 151.24 488.062 151.666 487.195C152.106 486.328 152.7 485.662 153.446 485.195C154.193 484.728 155.026 484.495 155.946 484.495C156.733 484.495 157.42 484.655 158.006 484.975C158.606 485.295 159.066 485.715 159.386 486.235V484.655H162.806V495.815H159.386V494.235C159.053 494.755 158.586 495.175 157.986 495.495C157.4 495.815 156.713 495.975 155.926 495.975C155.02 495.975 154.193 495.742 153.446 495.275C152.7 494.795 152.106 494.122 151.666 493.255C151.24 492.375 151.026 491.362 151.026 490.215ZM159.386 490.235C159.386 489.382 159.146 488.708 158.666 488.215C158.2 487.722 157.626 487.475 156.946 487.475C156.266 487.475 155.686 487.722 155.206 488.215C154.74 488.695 154.506 489.362 154.506 490.215C154.506 491.068 154.74 491.748 155.206 492.255C155.686 492.748 156.266 492.995 156.946 492.995C157.626 492.995 158.2 492.748 158.666 492.255C159.146 491.762 159.386 491.088 159.386 490.235ZM176.68 484.655L169.68 501.115H166L168.56 495.435L164.02 484.655H167.84L170.42 491.635L172.98 484.655H176.68ZM177.237 490.215C177.237 489.068 177.45 488.062 177.877 487.195C178.317 486.328 178.91 485.662 179.657 485.195C180.404 484.728 181.237 484.495 182.157 484.495C182.944 484.495 183.63 484.655 184.217 484.975C184.817 485.295 185.277 485.715 185.597 486.235V484.655H189.017V495.815H185.597V494.235C185.264 494.755 184.797 495.175 184.197 495.495C183.61 495.815 182.924 495.975 182.137 495.975C181.23 495.975 180.404 495.742 179.657 495.275C178.91 494.795 178.317 494.122 177.877 493.255C177.45 492.375 177.237 491.362 177.237 490.215ZM185.597 490.235C185.597 489.382 185.357 488.708 184.877 488.215C184.41 487.722 183.837 487.475 183.157 487.475C182.477 487.475 181.897 487.722 181.417 488.215C180.95 488.695 180.717 489.362 180.717 490.215C180.717 491.068 180.95 491.748 181.417 492.255C181.897 492.748 182.477 492.995 183.157 492.995C183.837 492.995 184.41 492.748 184.877 492.255C185.357 491.762 185.597 491.088 185.597 490.235ZM196.031 495.975C195.058 495.975 194.191 495.808 193.431 495.475C192.671 495.142 192.071 494.688 191.631 494.115C191.191 493.528 190.945 492.875 190.891 492.155H194.271C194.311 492.542 194.491 492.855 194.811 493.095C195.131 493.335 195.525 493.455 195.991 493.455C196.418 493.455 196.745 493.375 196.971 493.215C197.211 493.042 197.331 492.822 197.331 492.555C197.331 492.235 197.165 492.002 196.831 491.855C196.498 491.695 195.958 491.522 195.211 491.335C194.411 491.148 193.745 490.955 193.211 490.755C192.678 490.542 192.218 490.215 191.831 489.775C191.445 489.322 191.251 488.715 191.251 487.955C191.251 487.315 191.425 486.735 191.771 486.215C192.131 485.682 192.651 485.262 193.331 484.955C194.025 484.648 194.845 484.495 195.791 484.495C197.191 484.495 198.291 484.842 199.091 485.535C199.905 486.228 200.371 487.148 200.491 488.295H197.331C197.278 487.908 197.105 487.602 196.811 487.375C196.531 487.148 196.158 487.035 195.691 487.035C195.291 487.035 194.985 487.115 194.771 487.275C194.558 487.422 194.451 487.628 194.451 487.895C194.451 488.215 194.618 488.455 194.951 488.615C195.298 488.775 195.831 488.935 196.551 489.095C197.378 489.308 198.051 489.522 198.571 489.735C199.091 489.935 199.545 490.268 199.931 490.735C200.331 491.188 200.538 491.802 200.551 492.575C200.551 493.228 200.365 493.815 199.991 494.335C199.631 494.842 199.105 495.242 198.411 495.535C197.731 495.828 196.938 495.975 196.031 495.975ZM201.964 490.215C201.964 489.068 202.177 488.062 202.604 487.195C203.044 486.328 203.637 485.662 204.384 485.195C205.13 484.728 205.964 484.495 206.884 484.495C207.67 484.495 208.357 484.655 208.944 484.975C209.544 485.295 210.004 485.715 210.324 486.235V484.655H213.744V495.815H210.324V494.235C209.99 494.755 209.524 495.175 208.924 495.495C208.337 495.815 207.65 495.975 206.864 495.975C205.957 495.975 205.13 495.742 204.384 495.275C203.637 494.795 203.044 494.122 202.604 493.255C202.177 492.375 201.964 491.362 201.964 490.215ZM210.324 490.235C210.324 489.382 210.084 488.708 209.604 488.215C209.137 487.722 208.564 487.475 207.884 487.475C207.204 487.475 206.624 487.722 206.144 488.215C205.677 488.695 205.444 489.362 205.444 490.215C205.444 491.068 205.677 491.748 206.144 492.255C206.624 492.748 207.204 492.995 207.884 492.995C208.564 492.995 209.137 492.748 209.604 492.255C210.084 491.762 210.324 491.088 210.324 490.235ZM229.596 481.775V484.515H223.876V487.475H228.156V490.135H223.876V495.815H220.456V481.775H229.596ZM236.474 495.975C235.38 495.975 234.394 495.742 233.514 495.275C232.647 494.808 231.96 494.142 231.454 493.275C230.96 492.408 230.714 491.395 230.714 490.235C230.714 489.088 230.967 488.082 231.474 487.215C231.98 486.335 232.674 485.662 233.554 485.195C234.434 484.728 235.42 484.495 236.514 484.495C237.607 484.495 238.594 484.728 239.474 485.195C240.354 485.662 241.047 486.335 241.554 487.215C242.06 488.082 242.314 489.088 242.314 490.235C242.314 491.382 242.054 492.395 241.534 493.275C241.027 494.142 240.327 494.808 239.434 495.275C238.554 495.742 237.567 495.975 236.474 495.975ZM236.474 493.015C237.127 493.015 237.68 492.775 238.134 492.295C238.6 491.815 238.834 491.128 238.834 490.235C238.834 489.342 238.607 488.655 238.154 488.175C237.714 487.695 237.167 487.455 236.514 487.455C235.847 487.455 235.294 487.695 234.854 488.175C234.414 488.642 234.194 489.328 234.194 490.235C234.194 491.128 234.407 491.815 234.834 492.295C235.274 492.775 235.82 493.015 236.474 493.015ZM250.348 492.915V495.815H248.608C247.368 495.815 246.401 495.515 245.708 494.915C245.015 494.302 244.668 493.308 244.668 491.935V487.495H243.308V484.655H244.668V481.935H248.088V484.655H250.328V487.495H248.088V491.975C248.088 492.308 248.168 492.548 248.328 492.695C248.488 492.842 248.755 492.915 249.128 492.915H250.348ZM257.333 495.975C256.24 495.975 255.253 495.742 254.373 495.275C253.506 494.808 252.82 494.142 252.313 493.275C251.82 492.408 251.573 491.395 251.573 490.235C251.573 489.088 251.826 488.082 252.333 487.215C252.84 486.335 253.533 485.662 254.413 485.195C255.293 484.728 256.28 484.495 257.373 484.495C258.466 484.495 259.453 484.728 260.333 485.195C261.213 485.662 261.906 486.335 262.413 487.215C262.92 488.082 263.173 489.088 263.173 490.235C263.173 491.382 262.913 492.395 262.393 493.275C261.886 494.142 261.186 494.808 260.293 495.275C259.413 495.742 258.426 495.975 257.333 495.975ZM257.333 493.015C257.986 493.015 258.54 492.775 258.993 492.295C259.46 491.815 259.693 491.128 259.693 490.235C259.693 489.342 259.466 488.655 259.013 488.175C258.573 487.695 258.026 487.455 257.373 487.455C256.706 487.455 256.153 487.695 255.713 488.175C255.273 488.642 255.053 489.328 255.053 490.235C255.053 491.128 255.266 491.815 255.693 492.295C256.133 492.775 256.68 493.015 257.333 493.015ZM271.787 484.535C273.094 484.535 274.134 484.962 274.907 485.815C275.694 486.655 276.087 487.815 276.087 489.295V495.815H272.687V489.755C272.687 489.008 272.494 488.428 272.107 488.015C271.721 487.602 271.201 487.395 270.547 487.395C269.894 487.395 269.374 487.602 268.987 488.015C268.601 488.428 268.407 489.008 268.407 489.755V495.815H264.987V484.655H268.407V486.135C268.754 485.642 269.221 485.255 269.807 484.975C270.394 484.682 271.054 484.535 271.787 484.535ZM280.184 483.495C279.584 483.495 279.091 483.322 278.704 482.975C278.331 482.615 278.144 482.175 278.144 481.655C278.144 481.122 278.331 480.682 278.704 480.335C279.091 479.975 279.584 479.795 280.184 479.795C280.771 479.795 281.251 479.975 281.624 480.335C282.011 480.682 282.204 481.122 282.204 481.655C282.204 482.175 282.011 482.615 281.624 482.975C281.251 483.322 280.771 483.495 280.184 483.495ZM281.884 484.655V495.815H278.464V484.655H281.884ZM291.182 495.815L287.782 491.135V495.815H284.362V481.015H287.782V489.195L291.162 484.655H295.382L290.742 490.255L295.422 495.815H291.182ZM296.046 490.215C296.046 489.068 296.259 488.062 296.686 487.195C297.126 486.328 297.719 485.662 298.466 485.195C299.212 484.728 300.046 484.495 300.966 484.495C301.752 484.495 302.439 484.655 303.026 484.975C303.626 485.295 304.086 485.715 304.406 486.235V484.655H307.826V495.815H304.406V494.235C304.072 494.755 303.606 495.175 303.006 495.495C302.419 495.815 301.732 495.975 300.946 495.975C300.039 495.975 299.212 495.742 298.466 495.275C297.719 494.795 297.126 494.122 296.686 493.255C296.259 492.375 296.046 491.362 296.046 490.215ZM304.406 490.235C304.406 489.382 304.166 488.708 303.686 488.215C303.219 487.722 302.646 487.475 301.966 487.475C301.286 487.475 300.706 487.722 300.226 488.215C299.759 488.695 299.526 489.362 299.526 490.215C299.526 491.068 299.759 491.748 300.226 492.255C300.706 492.748 301.286 492.995 301.966 492.995C302.646 492.995 303.219 492.748 303.686 492.255C304.166 491.762 304.406 491.088 304.406 490.235Z" fill="white"/>
<defs>
<filter id="filter0_d_5264_4235" x="11.8571" y="99.8571" width="41.2857" height="41.2857" filterUnits="userSpaceOnUse" color-interpolation-filters="sRGB">
<feFlood flood-opacity="0" result="BackgroundImageFix"/>
<feColorMatrix in="SourceAlpha" type="matrix" values="0 0 0 0 0 0 0 0 0 0 0 0 0 0 0 0 0 0 127 0" result="hardAlpha"/>
<feOffset/>
<feGaussianBlur stdDeviation="6.07143"/>
<feComposite in2="hardAlpha" operator="out"/>
<feColorMatrix type="matrix" values="0 0 0 0 1 0 0 0 0 1 0 0 0 0 1 0 0 0 1 0"/>
<feBlend mode="normal" in2="BackgroundImageFix" result="effect1_dropShadow_5264_4235"/>
<feBlend mode="normal" in="SourceGraphic" in2="effect1_dropShadow_5264_4235" result="shape"/>
</filter>
<filter id="filter1_d_5264_4235" x="11.8571" y="191.857" width="41.2857" height="41.2857" filterUnits="userSpaceOnUse" color-interpolation-filters="sRGB">
<feFlood flood-opacity="0" result="BackgroundImageFix"/>
<feColorMatrix in="SourceAlpha" type="matrix" values="0 0 0 0 0 0 0 0 0 0 0 0 0 0 0 0 0 0 127 0" result="hardAlpha"/>
<feOffset/>
<feGaussianBlur stdDeviation="6.07143"/>
<feComposite in2="hardAlpha" operator="out"/>
<feColorMatrix type="matrix" values="0 0 0 0 1 0 0 0 0 1 0 0 0 0 1 0 0 0 1 0"/>
<feBlend mode="normal" in2="BackgroundImageFix" result="effect1_dropShadow_5264_4235"/>
<feBlend mode="normal" in="SourceGraphic" in2="effect1_dropShadow_5264_4235" result="shape"/>
</filter>
<filter id="filter2_d_5264_4235" x="11.8571" y="283.857" width="41.2857" height="41.2857" filterUnits="userSpaceOnUse" color-interpolation-filters="sRGB">
<feFlood flood-opacity="0" result="BackgroundImageFix"/>
<feColorMatrix in="SourceAlpha" type="matrix" values="0 0 0 0 0 0 0 0 0 0 0 0 0 0 0 0 0 0 127 0" result="hardAlpha"/>
<feOffset/>
<feGaussianBlur stdDeviation="6.07143"/>
<feComposite in2="hardAlpha" operator="out"/>
<feColorMatrix type="matrix" values="0 0 0 0 1 0 0 0 0 1 0 0 0 0 1 0 0 0 1 0"/>
<feBlend mode="normal" in2="BackgroundImageFix" result="effect1_dropShadow_5264_4235"/>
<feBlend mode="normal" in="SourceGraphic" in2="effect1_dropShadow_5264_4235" result="shape"/>
</filter>
<filter id="filter3_d_5264_4235" x="11.8571" y="375.857" width="41.2857" height="41.2857" filterUnits="userSpaceOnUse" color-interpolation-filters="sRGB">
<feFlood flood-opacity="0" result="BackgroundImageFix"/>
<feColorMatrix in="SourceAlpha" type="matrix" values="0 0 0 0 0 0 0 0 0 0 0 0 0 0 0 0 0 0 127 0" result="hardAlpha"/>
<feOffset/>
<feGaussianBlur stdDeviation="6.07143"/>
<feComposite in2="hardAlpha" operator="out"/>
<feColorMatrix type="matrix" values="0 0 0 0 1 0 0 0 0 1 0 0 0 0 1 0 0 0 1 0"/>
<feBlend mode="normal" in2="BackgroundImageFix" result="effect1_dropShadow_5264_4235"/>
<feBlend mode="normal" in="SourceGraphic" in2="effect1_dropShadow_5264_4235" result="shape"/>
</filter>
<filter id="filter4_d_5264_4235" x="11.8571" y="467.857" width="41.2857" height="41.2857" filterUnits="userSpaceOnUse" color-interpolation-filters="sRGB">
<feFlood flood-opacity="0" result="BackgroundImageFix"/>
<feColorMatrix in="SourceAlpha" type="matrix" values="0 0 0 0 0 0 0 0 0 0 0 0 0 0 0 0 0 0 127 0" result="hardAlpha"/>
<feOffset/>
<feGaussianBlur stdDeviation="6.07143"/>
<feComposite in2="hardAlpha" operator="out"/>
<feColorMatrix type="matrix" values="0 0 0 0 1 0 0 0 0 1 0 0 0 0 1 0 0 0 1 0"/>
<feBlend mode="normal" in2="BackgroundImageFix" result="effect1_dropShadow_5264_4235"/>
<feBlend mode="normal" in="SourceGraphic" in2="effect1_dropShadow_5264_4235" result="shape"/>
</filter>
<clipPath id="clip0_5264_4235">
<rect x="12.998" y="100.049" width="40.2946" height="40.2946" rx="20.1473" fill="white"/>
</clipPath>
<clipPath id="clip1_5264_4235">
<rect x="12.998" y="192.09" width="40.2946" height="40.2946" rx="20.1473" fill="white"/>
</clipPath>
<clipPath id="clip2_5264_4235">
<rect x="12.998" y="284.132" width="40.2946" height="40.2946" rx="20.1473" fill="white"/>
</clipPath>
<clipPath id="clip3_5264_4235">
<rect x="12.998" y="376.174" width="40.2946" height="40.2946" rx="20.1473" fill="white"/>
</clipPath>
<clipPath id="clip4_5264_4235">
<rect x="12.998" y="468.215" width="40.2946" height="40.2946" rx="20.1473" fill="white"/>
</clipPath>
</defs>
</svg>
