<svg width="474" height="261" viewBox="0 0 474 261" fill="none" xmlns="http://www.w3.org/2000/svg">
<path d="M19.9655 31.1598C19.1123 31.3771 18.4604 31.522 17.8286 31.7152C15.7038 32.3591 13.6232 33.1237 11.7922 34.4074C10.3877 35.3893 9.35345 36.6409 9.10394 38.4317C8.9847 39.5278 9.186 40.635 9.68344 41.6189C10.3833 43.208 11.4675 44.5979 12.8385 45.6633C14.6293 47.0437 14.9915 48.9592 15.1323 51.0076C15.1645 51.4824 14.8868 51.6595 14.4603 51.6072C14.2395 51.5712 14.027 51.4962 13.8325 51.3859C10.5567 49.587 7.26886 47.7962 4.41565 45.3494C2.88624 44.123 1.61784 42.6028 0.685157 40.8785C-0.634807 38.2466 -0.0392094 35.9367 2.3995 34.2666C4.31909 32.9547 6.50829 32.3068 8.73774 31.7997C12.327 31.036 15.9762 30.5876 19.6435 30.4596C19.8817 30.4677 20.1169 30.4051 20.3196 30.2798C20.5222 30.1545 20.6833 29.972 20.7824 29.7554C23.9627 24.3474 28.8868 20.181 34.7467 17.9401C42.598 14.9058 50.3045 15.5698 57.7977 19.2761C57.9346 19.3405 58.0754 19.3969 58.3168 19.5015C58.2605 19.1594 58.2364 18.9019 58.172 18.6524C57.644 16.3406 56.8146 14.1081 55.7051 12.0123C55.3077 11.3108 54.8384 10.6527 54.3047 10.0485C52.6949 8.23754 50.6828 7.89546 48.554 9.03031C46.9968 9.80276 45.668 10.9679 44.6987 12.4107C43.584 14.1693 42.0427 14.6402 40.1593 14.62C39.8253 14.62 39.4872 14.6643 39.1532 14.6402C38.5375 14.5959 38.3122 14.3182 38.4047 13.7146C38.4447 13.5013 38.5223 13.2969 38.6341 13.1109C40.6141 9.59371 42.6584 6.10868 45.5116 3.2112C46.454 2.25623 47.5126 1.42339 48.6626 0.732245C50.9001 -0.603815 53.206 -0.0726053 54.7755 2.00795C56.2806 4.02009 57.0854 6.33807 57.7092 8.72849C58.5849 12.2007 59.0828 15.7573 59.1942 19.3365C59.183 19.5789 59.2386 19.8197 59.355 20.0326C59.4714 20.2455 59.6441 20.4223 59.8541 20.5438C66.635 25.1113 70.9008 31.361 72.1966 39.4861C73.1965 45.315 72.2505 51.3111 69.5044 56.549C69.3273 56.887 69.1744 57.2331 69.0174 57.5752C69.0174 57.6074 69.0174 57.6597 69.0576 57.8247C69.6814 57.712 70.3132 57.6315 70.9289 57.4826C73.1148 56.9918 75.2184 56.1881 77.1746 55.0962C78.6958 54.2109 79.9594 53.0358 80.1284 51.1806C80.1835 50.2505 80.0465 49.319 79.726 48.4441C79.1048 46.7995 78.0793 45.338 76.744 44.1945C76.1176 43.6321 75.6291 42.933 75.3164 42.1514C75.0038 41.3697 74.8753 40.5265 74.9411 39.6873C74.9411 39.2365 74.9412 38.7818 75.4402 38.5323C75.6611 38.4171 75.9108 38.3688 76.1587 38.3931C76.4067 38.4174 76.6422 38.5133 76.8366 38.6691C77.7863 39.3372 78.7401 40.0092 79.6536 40.7135C82.1567 42.6129 84.5793 44.6049 86.515 47.108C87.4929 48.3757 88.3621 49.6997 88.5271 51.3617C88.6069 52.0109 88.5055 52.6696 88.2342 53.2647C87.9629 53.8599 87.5322 54.3685 86.9898 54.7341C85.3529 55.8916 83.4723 56.6584 81.4927 56.9756C78.5791 57.5269 75.6374 57.9414 72.6996 58.3479C71.4103 58.4954 70.114 58.5747 68.8162 58.5853C68.2407 58.5853 68.0597 58.9877 67.8222 59.362C65.4872 62.8889 62.355 65.817 58.679 67.9095C53.873 70.7208 48.3286 72.0115 42.7751 71.6119C37.3745 71.2376 32.5212 69.2899 28.1026 66.1992L27.7001 65.9296C27.7001 65.9296 27.6599 65.9296 27.5754 65.9296C27.5512 66.1139 27.5512 66.3006 27.5754 66.485C28.2354 68.8351 28.9396 71.1692 30.2757 73.2457C30.4963 73.5828 30.7382 73.9054 31.0001 74.2116C32.6862 76.2237 34.7789 76.6583 37.129 75.4873C37.6482 75.2297 38.0948 74.8233 38.622 74.5939C39.1396 74.355 39.6985 74.2184 40.268 74.1915C41.1178 74.2102 41.9651 74.2909 42.8033 74.4329C44.0105 74.5939 44.3124 75.1734 43.6765 76.2277C41.934 79.1252 39.9541 81.8617 37.1129 83.7652C36.2605 84.3353 35.3027 84.7294 34.2959 84.9242C32.5454 85.2703 31.2254 84.397 30.2354 83.0006C28.9718 81.2098 28.3601 79.1494 27.9094 77.0447C27.1563 73.6357 26.7425 70.1606 26.674 66.6701C26.6876 66.1413 26.5868 65.6157 26.3784 65.1295C26.17 64.6433 25.859 64.2079 25.4667 63.8531C21.3305 59.8697 18.5326 54.7008 17.4593 49.0595C16.386 43.4183 17.0901 37.583 19.4745 32.3591C19.6315 32.0251 19.7482 31.695 19.9655 31.1598ZM18.8427 43.8283C18.7989 50.7017 21.4874 57.311 26.3168 62.2022C31.1461 67.0934 37.7206 69.8659 44.5941 69.9096C51.4675 69.9534 58.0768 67.2649 62.968 62.4356C67.8592 57.6062 70.6317 51.0317 70.6754 44.1583C70.7962 29.7835 59.2746 18.1936 45.2661 18.0004C30.8109 17.7872 18.8427 29.2805 18.8427 43.8283Z" fill="white"/>
<path d="M45.9453 81.0652C45.6757 81.0652 45.4061 81.0652 45.1405 81.0652C44.2028 81.0652 43.7521 80.6628 43.7481 79.8217C43.7441 78.9807 44.1827 78.6748 45.1646 78.5742C47.3619 78.3448 49.5913 78.2563 51.7403 77.7694C61.2416 75.6848 68.6986 70.59 73.9221 62.3242C74.2586 61.796 74.624 61.2868 75.0167 60.799C75.0921 60.6793 75.1904 60.5757 75.306 60.4942C75.4217 60.4128 75.5523 60.355 75.6904 60.3243C75.8285 60.2936 75.9713 60.2906 76.1105 60.3154C76.2498 60.3403 76.3827 60.3925 76.5017 60.469C76.7573 60.6118 76.954 60.8404 77.0572 61.1145C77.1603 61.3885 77.1631 61.6901 77.0651 61.966C76.8826 62.4216 76.6562 62.8583 76.389 63.2699C70.928 71.8537 63.3181 77.5279 53.4506 80.0068C51.036 80.6185 48.4846 80.8439 45.9976 81.2463L45.9453 81.0652Z" fill="white"/>
<path d="M37.1739 7.4209C37.9788 7.4209 38.3812 7.72271 38.5019 8.34648C38.6428 9.08292 38.4013 9.57391 37.6608 9.80329C36.2564 10.2379 34.8036 10.5438 33.4192 11.0307C25.1976 13.8088 18.3231 19.58 14.1631 27.1962C13.9458 27.5986 13.7606 28.0011 13.5393 28.3834C13.3776 28.6828 13.1061 28.9078 12.782 29.0114C12.4578 29.1149 12.1062 29.0889 11.8008 28.9387C11.6515 28.872 11.5178 28.7748 11.4084 28.6533C11.2989 28.5318 11.2162 28.3887 11.1654 28.2333C11.1146 28.0779 11.0969 27.9135 11.1134 27.7509C11.13 27.5882 11.1805 27.4308 11.2616 27.2888C11.9156 25.9668 12.6452 24.6836 13.4467 23.4456C19.0405 15.0804 26.7456 9.76706 36.5622 7.50542C36.6707 7.47884 36.781 7.46001 36.8922 7.44907C37.025 7.42493 37.1176 7.4209 37.1739 7.4209Z" fill="white"/>
<path d="M81.0788 36.2756C81.0788 37.3501 80.7005 37.8853 79.9842 38.0021C79.4047 38.1067 78.8856 37.7888 78.6522 37.0282C78.2498 35.7082 77.96 34.344 77.5334 33.0321C75.7489 27.5285 72.5976 22.5675 68.3742 18.6131C66.4828 16.7957 64.3694 15.2246 62.0842 13.9369C61.9474 13.8604 61.8106 13.7799 61.6818 13.6914C60.9937 13.2407 60.7562 12.5123 61.0983 11.9127C61.2809 11.6119 61.5755 11.3958 61.9173 11.3121C62.2591 11.2283 62.6202 11.2837 62.9213 11.4659C63.574 11.8111 64.2068 12.1927 64.8167 12.6089C72.7445 17.8404 77.964 25.0077 80.5436 34.1307C80.7649 34.9235 80.942 35.7283 81.0788 36.2756Z" fill="white"/>
<path d="M8.35938 52.5494C8.35938 51.5796 8.64107 51.157 9.28495 51.0121C9.43533 50.9581 9.59558 50.9372 9.75478 50.9508C9.91398 50.9644 10.0684 51.0121 10.2074 51.0908C10.3465 51.1695 10.4669 51.2773 10.5605 51.4068C10.6541 51.5363 10.7187 51.6844 10.7498 51.8411C11.2408 53.2537 11.611 54.7064 12.11 56.1149C13.555 60.057 15.7406 63.6863 18.5489 66.8074C20.2344 68.759 22.1536 70.4958 24.2633 71.9786C24.7382 72.3127 25.1285 72.6748 25.0682 73.3388C24.9998 74.2242 24.4082 74.695 23.5551 74.4254C23.1778 74.2886 22.8226 74.0975 22.5007 73.858C20.2431 72.3207 18.3476 70.3931 16.5206 68.3809C12.5889 64.0387 10.1542 58.9078 8.50021 53.3583C8.43646 53.0919 8.38943 52.8217 8.35938 52.5494Z" fill="white"/>
<path d="M46.3197 34.8422C46.3132 32.8869 45.8003 30.9666 44.8307 29.2686C44.3639 28.4034 43.7925 27.5945 43.2975 26.7454C43.0279 26.2826 42.7421 26.2222 42.2673 26.4717C39.9212 27.7388 37.7249 29.2656 35.7198 31.0232C35.3938 31.3009 35.092 31.6027 34.7821 31.8924C33.2489 33.317 32.5889 35.0273 33.1442 37.0998C33.5466 38.5606 33.9491 40.0134 34.3837 41.4702C34.5192 41.8472 34.6229 42.2349 34.6936 42.6292C34.7861 43.599 33.9531 44.2751 33.0839 43.8365C30.4761 42.4481 28.6853 44.2027 26.7416 45.3899C26.6771 45.4708 26.6326 45.5659 26.6116 45.6672C26.5906 45.7686 26.5938 45.8734 26.6209 45.9734C27.1566 47.7434 28.2332 49.3013 29.6994 50.4282C30.1904 50.7864 30.947 50.8025 31.5949 50.9192C31.8853 50.9365 32.1766 50.9121 32.4601 50.8468C32.6998 50.7795 32.9554 50.7973 33.1836 50.897C33.4117 50.9968 33.5983 51.1724 33.7117 51.3941C33.8547 51.6268 33.9128 51.9018 33.8761 52.1725C33.8394 52.4432 33.7102 52.6928 33.5104 52.879C33.1482 53.2154 32.8683 53.6307 32.6924 54.0927C32.5166 54.5547 32.4495 55.051 32.4963 55.5431C32.5399 56.2112 32.6964 56.867 32.9591 57.4828C33.4581 58.5251 34.102 59.4949 34.6896 60.497C34.7161 60.5649 34.7579 60.6258 34.8117 60.6749C34.8656 60.7241 34.93 60.7602 35.0001 60.7804C35.0701 60.8007 35.1439 60.8045 35.2157 60.7916C35.2874 60.7788 35.3553 60.7496 35.4139 60.7063C36.9029 59.9014 38.3838 59.0966 39.4784 57.7927C39.8203 57.36 40.0621 56.857 40.1867 56.3198C40.3718 55.5874 40.726 55.1809 41.394 55.193C41.7113 55.2021 42.0131 55.3322 42.2376 55.5567C42.462 55.7812 42.5922 56.083 42.6013 56.4003C42.6133 57.0408 42.487 57.6763 42.231 58.2635C41.8545 58.9745 41.3622 59.6178 40.7743 60.167C39.1967 61.664 37.2892 62.6621 35.3254 63.5514C35.0636 63.7114 34.7533 63.7728 34.4503 63.7249C34.1472 63.677 33.8711 63.5228 33.6714 63.2898C32.1207 61.6341 30.9408 59.6668 30.2105 57.519C29.8943 56.3493 29.8502 55.1228 30.0817 53.9334C30.1059 53.7563 29.9852 53.4183 29.8604 53.378C27.796 52.7261 26.476 51.2291 25.478 49.4343C24.8633 48.2694 24.3178 47.0695 23.8441 45.8406C23.486 44.9593 23.659 44.5045 24.3914 43.9049C26.2909 42.3556 28.3714 41.1724 30.8303 40.774C31.2327 40.7096 31.2729 40.5245 31.1884 40.1663C30.9228 39.0355 30.6572 37.9047 30.4641 36.7618C29.949 33.6993 31.4379 31.4578 33.5265 29.4859C35.9089 27.2404 38.6776 25.5502 41.5429 24.0089C43.5027 22.9545 43.7361 23.0068 45.0521 24.8137C46.871 27.2967 48.2715 29.9728 48.7343 33.0595C48.8483 33.9199 48.8699 34.7901 48.7987 35.6551C48.7956 35.8299 48.7576 36.0022 48.687 36.1621C48.6164 36.3219 48.5146 36.4661 48.3875 36.586C48.2604 36.706 48.1106 36.7994 47.947 36.8606C47.7833 36.9219 47.6091 36.9499 47.4344 36.9429C46.7423 36.8986 46.3117 36.3392 46.3036 35.4619L46.3197 34.8422Z" fill="white"/>
<path d="M44.1504 42.7862C44.1941 41.5756 44.6346 40.4128 45.4039 39.477C46.1732 38.5412 47.2287 37.8841 48.4081 37.607C49.556 37.3598 50.7538 37.506 51.8086 38.0221C52.8633 38.5382 53.7138 39.3941 54.2232 40.4521C54.7274 41.5097 54.8671 42.7045 54.6202 43.8498C54.3734 44.9951 53.754 46.0264 52.8589 46.7823C52.5632 47.0215 52.2354 47.2179 51.885 47.3659C51.5914 47.5046 51.2553 47.5239 50.9477 47.4194C50.6402 47.3149 50.3853 47.095 50.2369 46.8061C50.0885 46.5172 50.0583 46.1819 50.1526 45.871C50.2468 45.5602 50.4583 45.2982 50.7422 45.1404C51.1151 44.9341 51.4364 44.6458 51.6817 44.2972C51.9271 43.9487 52.0902 43.549 52.1587 43.1283C52.2686 42.4377 52.1059 41.7315 51.7049 41.1586C51.304 40.5857 50.6962 40.191 50.0097 40.0578C48.5127 39.8244 46.9392 40.9391 46.8547 42.3717C46.857 42.8617 46.9785 43.3437 47.2088 43.7762C48.2632 45.897 49.3618 47.9977 50.4283 50.1064C50.5769 50.3823 50.7113 50.6657 50.8307 50.9555C50.9509 51.2221 50.9702 51.5233 50.8851 51.803C50.7999 52.0828 50.6162 52.3222 50.3679 52.4767C50.1127 52.6453 49.8044 52.7142 49.5017 52.6704C49.199 52.6267 48.923 52.4732 48.726 52.2393C48.5807 52.0697 48.4564 51.8832 48.3557 51.6839C47.1847 49.4987 45.9895 47.3256 44.8748 45.1123C44.5705 44.3579 44.3282 43.58 44.1504 42.7862Z" fill="white"/>
<path d="M39.5028 53.5113C36.6214 53.5113 34.6978 52.0867 33.9976 49.9176C33.2531 47.6197 33.909 45.35 35.885 44.0502C37.2712 43.1933 38.7049 42.4153 40.1789 41.7201C40.3215 41.6404 40.4788 41.5903 40.6413 41.5731C40.8038 41.5559 40.9681 41.5719 41.1242 41.6201C41.2804 41.6682 41.4251 41.7475 41.5497 41.8533C41.6743 41.959 41.7761 42.089 41.849 42.2352C41.9265 42.3789 41.9749 42.5365 41.9914 42.6989C42.0078 42.8613 41.9921 43.0254 41.9449 43.1817C41.8978 43.338 41.8203 43.4834 41.7168 43.6097C41.6133 43.7359 41.4859 43.8405 41.3419 43.9174C40.7141 44.3198 40.0421 44.6136 39.3901 44.9597C38.7382 45.3058 38.1024 45.5915 37.5027 45.9778C36.9416 46.3396 36.5353 46.8972 36.3627 47.5422C36.1901 48.1871 36.2637 48.8732 36.5691 49.4669C36.8523 50.0718 37.3552 50.5462 37.9757 50.7937C38.5961 51.0411 39.2875 51.043 39.9092 50.7989C40.6336 50.5212 41.3057 50.0987 42.0059 49.7566C42.7061 49.4146 43.3661 49.0805 44.0704 48.8029C44.1993 48.7434 44.3389 48.7103 44.4808 48.7055C44.6228 48.7007 44.7642 48.7243 44.8969 48.7749C45.0296 48.8255 45.1509 48.9021 45.2536 49.0002C45.3563 49.0983 45.4383 49.2159 45.495 49.3461C45.7847 49.8854 45.7686 50.5534 45.2495 50.8673C43.2977 52.147 41.3057 53.3302 39.5028 53.5113Z" fill="white"/>
<path d="M65.5318 37.0876C65.5456 38.2468 65.1786 39.3783 64.4873 40.3088C63.796 41.2393 62.8185 41.9173 61.7047 42.2387C60.6277 42.5715 59.4709 42.5397 58.4137 42.1482C57.3566 41.7568 56.4581 41.0276 55.8574 40.0736C55.1129 38.8664 54.4449 37.5866 53.8171 36.2989C53.2537 35.1399 53.8171 34.0735 54.9238 34.2425C55.3824 34.3705 55.7761 34.6664 56.0264 35.0715C56.5617 35.9166 56.948 36.8582 57.4511 37.7275C57.7588 38.2955 58.1419 38.8194 58.5899 39.2849C58.9705 39.6735 59.474 39.9183 60.0146 39.9777C60.5553 40.0372 61.0999 39.9075 61.5558 39.6108C62.5941 39.0032 63.2018 37.7999 62.8919 36.7174C62.6445 36.0027 62.3418 35.3085 61.9864 34.6409C61.6444 33.9125 61.2339 33.2123 60.9482 32.4637C60.5457 31.4174 60.8435 30.8098 61.7248 30.5482C61.9598 30.4593 62.2194 30.4613 62.4531 30.5535C62.6867 30.6458 62.8776 30.8218 62.9885 31.0472C63.8456 32.7374 64.6505 34.4517 65.4352 36.1741C65.5205 36.4706 65.5533 36.7798 65.5318 37.0876Z" fill="white"/>
<path d="M39.1811 49.4633C38.3763 49.5076 37.9739 49.1897 37.7968 48.6303C37.6911 48.3762 37.6827 48.0921 37.7733 47.8323C37.8638 47.5725 38.047 47.3551 38.2878 47.2218C39.5272 46.5176 40.7949 45.8536 42.0947 45.262C42.2379 45.1937 42.3932 45.1544 42.5516 45.1462C42.71 45.1379 42.8685 45.161 43.018 45.2141C43.1675 45.2672 43.3051 45.3492 43.4228 45.4555C43.5406 45.5617 43.6363 45.6902 43.7044 45.8334C43.7822 45.9592 43.8336 46.0996 43.8554 46.2459C43.8772 46.3922 43.8691 46.5414 43.8315 46.6844C43.7938 46.8275 43.7275 46.9613 43.6365 47.0779C43.5454 47.1945 43.4316 47.2914 43.302 47.3626C42.0142 48.1152 40.6661 48.7591 39.3381 49.4392C39.2576 49.4875 39.1288 49.4674 39.1811 49.4633Z" fill="white"/>
<path d="M61.6492 37.3172C61.3839 37.6876 61.0714 38.0217 60.7196 38.3112C60.5064 38.4444 60.2508 38.4923 60.0039 38.4453C59.7569 38.3983 59.5368 38.2599 59.3875 38.0576C59.1418 37.7682 58.9311 37.4507 58.7598 37.1119C58.2607 36.1662 57.7577 35.2165 57.303 34.2466C57.2125 34.0873 57.1575 33.9103 57.1415 33.7278C57.1256 33.5453 57.1492 33.3615 57.2107 33.1889C57.2722 33.0163 57.3701 32.859 57.4978 32.7276C57.6255 32.5963 57.7801 32.4939 57.9509 32.4277C58.4901 32.2144 59.0334 32.2707 59.3191 32.7778C60.0677 34.0937 60.7477 35.4539 61.4439 36.802C61.4855 36.9321 61.5059 37.068 61.5043 37.2045L61.6492 37.3172Z" fill="white"/>
<path d="M231.268 5.5H281.718V44.5H223.76C228.718 32.3807 231.268 19.4119 231.268 6.31777V5.5Z" fill="#504EBA"/>
<path d="M234.019 32.9663C234.019 34.5578 233.715 36.0598 233.105 37.4725C232.514 38.8673 231.689 40.0922 230.632 41.1472C229.592 42.1843 228.365 43.0069 226.949 43.6149C225.551 44.205 224.054 44.5 222.459 44.5C221.025 44.5 219.645 44.2497 218.319 43.749C217.01 43.2483 215.828 42.5151 214.77 41.5495C213.713 42.5151 212.521 43.2483 211.195 43.749C209.868 44.2497 208.488 44.5 207.054 44.5C205.459 44.5 203.954 44.205 202.538 43.6149C201.14 43.0069 199.912 42.1843 198.855 41.1472C197.815 40.0922 196.991 38.8673 196.381 37.4725C195.79 36.0598 195.494 34.5578 195.494 32.9663V5.5H203.21V32.9663C203.21 33.5028 203.308 34.0124 203.506 34.4952C203.703 34.9601 203.972 35.3714 204.312 35.729C204.671 36.0688 205.083 36.337 205.549 36.5337C206.015 36.7304 206.517 36.8287 207.054 36.8287C207.592 36.8287 208.094 36.7304 208.56 36.5337C209.026 36.337 209.429 36.0688 209.77 35.729C210.128 35.3714 210.406 34.9601 210.603 34.4952C210.8 34.0124 210.899 33.5028 210.899 32.9663V5.5H218.615V32.9663C218.615 33.5028 218.713 34.0124 218.91 34.4952C219.107 34.9601 219.376 35.3714 219.717 35.729C220.075 36.0688 220.487 36.337 220.953 36.5337C221.419 36.7304 221.921 36.8287 222.459 36.8287C222.997 36.8287 223.499 36.7304 223.965 36.5337C224.43 36.337 224.834 36.0688 225.174 35.729C225.533 35.3714 225.811 34.9601 226.008 34.4952C226.223 34.0124 226.33 33.5028 226.33 32.9663V5.5H234.019V32.9663Z" fill="white"/>
<path d="M168.099 13.1981V28.5942H175.814C176.872 28.5942 177.866 28.3975 178.798 28.0041C179.73 27.5928 180.546 27.0385 181.245 26.3411C181.944 25.6437 182.491 24.8301 182.885 23.9003C183.297 22.9525 183.503 21.9512 183.503 20.8961C183.503 19.8411 183.297 18.8487 182.885 17.9188C182.491 16.9711 181.944 16.1486 181.245 15.4512C180.546 14.7538 179.73 14.2084 178.798 13.815C177.866 13.4037 176.872 13.1981 175.814 13.1981H168.099ZM168.099 43.9635H160.383V5.5H175.814C177.23 5.5 178.592 5.68776 179.901 6.06327C181.209 6.42091 182.428 6.93948 183.557 7.61898C184.704 8.2806 185.744 9.08528 186.676 10.033C187.625 10.9629 188.432 12 189.095 13.1444C189.776 14.2889 190.296 15.5138 190.654 16.8191C191.031 18.1245 191.219 19.4835 191.219 20.8961C191.219 23.0062 190.816 25 190.009 26.8776C189.203 28.7373 188.1 30.3645 186.702 31.7593C185.304 33.1541 183.665 34.2538 181.783 35.0585C179.919 35.8631 177.929 36.2655 175.814 36.2655H168.099V43.9635Z" fill="white"/>
<path d="M154.98 43.9635H128.553V5.5H154.98V13.1981H136.268V20.8961H148.931V28.5942H136.268V36.2655H154.98V43.9635Z" fill="white"/>
<path d="M247.862 22.6391V19.721H252.946V33.1187H249.679V22.6391H247.862ZM264.526 22.4556H258.8V24.9883C259.044 24.7191 259.387 24.4989 259.827 24.3276C260.268 24.1563 260.745 24.0707 261.259 24.0707C262.177 24.0707 262.935 24.2787 263.535 24.6947C264.147 25.1107 264.593 25.649 264.875 26.3097C265.156 26.9704 265.297 27.6862 265.297 28.457C265.297 29.8885 264.893 31.0264 264.085 31.8707C263.278 32.7027 262.14 33.1187 260.672 33.1187C259.693 33.1187 258.843 32.9535 258.121 32.6231C257.399 32.2805 256.842 31.8095 256.451 31.2099C256.059 30.6104 255.845 29.9191 255.808 29.1361H258.873C258.947 29.5154 259.124 29.8335 259.405 30.0904C259.687 30.3351 260.072 30.4575 260.562 30.4575C261.137 30.4575 261.565 30.2739 261.846 29.9069C262.128 29.5398 262.268 29.0504 262.268 28.4387C262.268 27.8391 262.122 27.3803 261.828 27.0622C261.534 26.7441 261.106 26.585 260.543 26.585C260.127 26.585 259.785 26.689 259.515 26.897C259.246 27.0928 259.069 27.3558 258.983 27.6862H255.955V19.7027H264.526V22.4556Z" fill="white"/>
<path d="M133.275 66.4196V68.7018H136.955V70.8232H133.275V73.2982H137.437V75.5H130.527V64.2179H137.437V66.4196H133.275ZM144.686 66.4357C145.736 66.4357 146.572 66.7786 147.193 67.4643C147.825 68.1393 148.141 69.0714 148.141 70.2607V75.5H145.409V70.6304C145.409 70.0304 145.254 69.5643 144.943 69.2321C144.632 68.9 144.214 68.7339 143.689 68.7339C143.164 68.7339 142.747 68.9 142.436 69.2321C142.125 69.5643 141.97 70.0304 141.97 70.6304V75.5H139.222V66.5321H141.97V67.7214C142.248 67.325 142.623 67.0143 143.095 66.7893C143.566 66.5536 144.097 66.4357 144.686 66.4357ZM153.458 66.4036C154.09 66.4036 154.642 66.5321 155.113 66.7893C155.596 67.0464 155.965 67.3839 156.222 67.8018V66.5321H158.971V75.4839C158.971 76.3089 158.804 77.0536 158.472 77.7179C158.151 78.3929 157.653 78.9286 156.978 79.325C156.313 79.7214 155.483 79.9196 154.487 79.9196C153.158 79.9196 152.081 79.6036 151.256 78.9714C150.431 78.35 149.96 77.5036 149.842 76.4321H152.558C152.644 76.775 152.847 77.0429 153.169 77.2357C153.49 77.4393 153.887 77.5411 154.358 77.5411C154.926 77.5411 155.376 77.375 155.708 77.0429C156.051 76.7214 156.222 76.2018 156.222 75.4839V74.2143C155.954 74.6321 155.585 74.975 155.113 75.2429C154.642 75.5 154.09 75.6286 153.458 75.6286C152.719 75.6286 152.049 75.4411 151.449 75.0661C150.849 74.6804 150.372 74.1393 150.019 73.4429C149.676 72.7357 149.504 71.9214 149.504 71C149.504 70.0786 149.676 69.2696 150.019 68.5732C150.372 67.8768 150.849 67.3411 151.449 66.9661C152.049 66.5911 152.719 66.4036 153.458 66.4036ZM156.222 71.0161C156.222 70.3304 156.029 69.7893 155.644 69.3929C155.269 68.9964 154.808 68.7982 154.262 68.7982C153.715 68.7982 153.249 68.9964 152.863 69.3929C152.488 69.7786 152.301 70.3143 152.301 71C152.301 71.6857 152.488 72.2321 152.863 72.6393C153.249 73.0357 153.715 73.2339 154.262 73.2339C154.808 73.2339 155.269 73.0357 155.644 72.6393C156.029 72.2429 156.222 71.7018 156.222 71.0161ZM162.341 65.6C161.859 65.6 161.462 65.4607 161.152 65.1821C160.852 64.8929 160.702 64.5393 160.702 64.1214C160.702 63.6929 160.852 63.3393 161.152 63.0607C161.462 62.7714 161.859 62.6268 162.341 62.6268C162.812 62.6268 163.198 62.7714 163.498 63.0607C163.809 63.3393 163.964 63.6929 163.964 64.1214C163.964 64.5393 163.809 64.8929 163.498 65.1821C163.198 65.4607 162.812 65.6 162.341 65.6ZM163.707 66.5321V75.5H160.959V66.5321H163.707ZM171.163 66.4357C172.213 66.4357 173.049 66.7786 173.67 67.4643C174.302 68.1393 174.618 69.0714 174.618 70.2607V75.5H171.886V70.6304C171.886 70.0304 171.731 69.5643 171.42 69.2321C171.109 68.9 170.691 68.7339 170.166 68.7339C169.641 68.7339 169.224 68.9 168.913 69.2321C168.602 69.5643 168.447 70.0304 168.447 70.6304V75.5H165.699V66.5321H168.447V67.7214C168.725 67.325 169.1 67.0143 169.572 66.7893C170.043 66.5536 170.574 66.4357 171.163 66.4357ZM184.982 70.8714C184.982 71.1286 184.965 71.3964 184.933 71.675H178.714C178.757 72.2321 178.933 72.6607 179.244 72.9607C179.565 73.25 179.957 73.3946 180.417 73.3946C181.103 73.3946 181.58 73.1054 181.848 72.5268H184.773C184.623 73.1161 184.349 73.6464 183.953 74.1179C183.567 74.5893 183.08 74.9589 182.49 75.2268C181.901 75.4946 181.242 75.6286 180.514 75.6286C179.635 75.6286 178.853 75.4411 178.167 75.0661C177.482 74.6911 176.946 74.1554 176.56 73.4589C176.174 72.7625 175.982 71.9482 175.982 71.0161C175.982 70.0839 176.169 69.2696 176.544 68.5732C176.93 67.8768 177.465 67.3411 178.151 66.9661C178.837 66.5911 179.624 66.4036 180.514 66.4036C181.382 66.4036 182.153 66.5857 182.828 66.95C183.503 67.3143 184.028 67.8339 184.403 68.5089C184.789 69.1839 184.982 69.9714 184.982 70.8714ZM182.169 70.1482C182.169 69.6768 182.008 69.3018 181.687 69.0232C181.365 68.7446 180.964 68.6054 180.482 68.6054C180.021 68.6054 179.63 68.7393 179.308 69.0071C178.998 69.275 178.805 69.6554 178.73 70.1482H182.169ZM194.885 70.8714C194.885 71.1286 194.869 71.3964 194.837 71.675H188.617C188.66 72.2321 188.837 72.6607 189.147 72.9607C189.469 73.25 189.86 73.3946 190.321 73.3946C191.006 73.3946 191.483 73.1054 191.751 72.5268H194.676C194.526 73.1161 194.253 73.6464 193.856 74.1179C193.471 74.5893 192.983 74.9589 192.394 75.2268C191.805 75.4946 191.146 75.6286 190.417 75.6286C189.538 75.6286 188.756 75.4411 188.071 75.0661C187.385 74.6911 186.849 74.1554 186.463 73.4589C186.078 72.7625 185.885 71.9482 185.885 71.0161C185.885 70.0839 186.072 69.2696 186.447 68.5732C186.833 67.8768 187.369 67.3411 188.055 66.9661C188.74 66.5911 189.528 66.4036 190.417 66.4036C191.285 66.4036 192.056 66.5857 192.731 66.95C193.406 67.3143 193.931 67.8339 194.306 68.5089C194.692 69.1839 194.885 69.9714 194.885 70.8714ZM192.072 70.1482C192.072 69.6768 191.912 69.3018 191.59 69.0232C191.269 68.7446 190.867 68.6054 190.385 68.6054C189.924 68.6054 189.533 68.7393 189.212 69.0071C188.901 69.275 188.708 69.6554 188.633 70.1482H192.072ZM199.083 68.0268C199.404 67.5339 199.806 67.1482 200.288 66.8696C200.77 66.5804 201.306 66.4357 201.895 66.4357V69.3446H201.14C200.454 69.3446 199.94 69.4946 199.597 69.7946C199.254 70.0839 199.083 70.5982 199.083 71.3375V75.5H196.335V66.5321H199.083V68.0268ZM204.591 65.6C204.109 65.6 203.713 65.4607 203.402 65.1821C203.102 64.8929 202.952 64.5393 202.952 64.1214C202.952 63.6929 203.102 63.3393 203.402 63.0607C203.713 62.7714 204.109 62.6268 204.591 62.6268C205.063 62.6268 205.448 62.7714 205.748 63.0607C206.059 63.3393 206.214 63.6929 206.214 64.1214C206.214 64.5393 206.059 64.8929 205.748 65.1821C205.448 65.4607 205.063 65.6 204.591 65.6ZM205.957 66.5321V75.5H203.209V66.5321H205.957ZM213.413 66.4357C214.463 66.4357 215.299 66.7786 215.92 67.4643C216.552 68.1393 216.868 69.0714 216.868 70.2607V75.5H214.136V70.6304C214.136 70.0304 213.981 69.5643 213.67 69.2321C213.36 68.9 212.942 68.7339 212.417 68.7339C211.892 68.7339 211.474 68.9 211.163 69.2321C210.852 69.5643 210.697 70.0304 210.697 70.6304V75.5H207.949V66.5321H210.697V67.7214C210.976 67.325 211.351 67.0143 211.822 66.7893C212.293 66.5536 212.824 66.4357 213.413 66.4357ZM222.185 66.4036C222.817 66.4036 223.369 66.5321 223.841 66.7893C224.323 67.0464 224.692 67.3839 224.95 67.8018V66.5321H227.698V75.4839C227.698 76.3089 227.532 77.0536 227.2 77.7179C226.878 78.3929 226.38 78.9286 225.705 79.325C225.041 79.7214 224.21 79.9196 223.214 79.9196C221.885 79.9196 220.809 79.6036 219.984 78.9714C219.159 78.35 218.687 77.5036 218.569 76.4321H221.285C221.371 76.775 221.575 77.0429 221.896 77.2357C222.217 77.4393 222.614 77.5411 223.085 77.5411C223.653 77.5411 224.103 77.375 224.435 77.0429C224.778 76.7214 224.95 76.2018 224.95 75.4839V74.2143C224.682 74.6321 224.312 74.975 223.841 75.2429C223.369 75.5 222.817 75.6286 222.185 75.6286C221.446 75.6286 220.776 75.4411 220.176 75.0661C219.576 74.6804 219.1 74.1393 218.746 73.4429C218.403 72.7357 218.232 71.9214 218.232 71C218.232 70.0786 218.403 69.2696 218.746 68.5732C219.1 67.8768 219.576 67.3411 220.176 66.9661C220.776 66.5911 221.446 66.4036 222.185 66.4036ZM224.95 71.0161C224.95 70.3304 224.757 69.7893 224.371 69.3929C223.996 68.9964 223.535 68.7982 222.989 68.7982C222.442 68.7982 221.976 68.9964 221.591 69.3929C221.216 69.7786 221.028 70.3143 221.028 71C221.028 71.6857 221.216 72.2321 221.591 72.6393C221.976 73.0357 222.442 73.2339 222.989 73.2339C223.535 73.2339 223.996 73.0357 224.371 72.6393C224.757 72.2429 224.95 71.7018 224.95 71.0161ZM241.69 67.85C241.69 68.5036 241.54 69.1036 241.24 69.65C240.94 70.1857 240.479 70.6196 239.858 70.9518C239.236 71.2839 238.465 71.45 237.544 71.45H235.84V75.5H233.092V64.2179H237.544C238.444 64.2179 239.204 64.3732 239.826 64.6839C240.447 64.9946 240.913 65.4232 241.224 65.9696C241.535 66.5161 241.69 67.1429 241.69 67.85ZM237.335 69.2643C237.86 69.2643 238.251 69.1411 238.508 68.8946C238.765 68.6482 238.894 68.3 238.894 67.85C238.894 67.4 238.765 67.0518 238.508 66.8054C238.251 66.5589 237.86 66.4357 237.335 66.4357H235.84V69.2643H237.335ZM248.633 66.4357C249.662 66.4357 250.487 66.7786 251.108 67.4643C251.73 68.1393 252.04 69.0714 252.04 70.2607V75.5H249.308V70.6304C249.308 70.0304 249.153 69.5643 248.842 69.2321C248.531 68.9 248.114 68.7339 247.589 68.7339C247.064 68.7339 246.646 68.9 246.335 69.2321C246.024 69.5643 245.869 70.0304 245.869 70.6304V75.5H243.121V63.6071H245.869V67.7375C246.148 67.3411 246.528 67.025 247.01 66.7893C247.492 66.5536 248.033 66.4357 248.633 66.4357ZM263.111 66.5321L257.486 79.7589H254.529L256.586 75.1946L252.938 66.5321H256.007L258.08 72.1411L260.138 66.5321H263.111ZM267.753 75.6286C266.971 75.6286 266.274 75.4946 265.664 75.2268C265.053 74.9589 264.571 74.5946 264.217 74.1339C263.864 73.6625 263.665 73.1375 263.623 72.5589H266.339C266.371 72.8696 266.515 73.1214 266.772 73.3143C267.03 73.5071 267.346 73.6036 267.721 73.6036C268.064 73.6036 268.326 73.5393 268.508 73.4107C268.701 73.2714 268.797 73.0946 268.797 72.8804C268.797 72.6232 268.664 72.4357 268.396 72.3179C268.128 72.1893 267.694 72.05 267.094 71.9C266.451 71.75 265.915 71.5946 265.487 71.4339C265.058 71.2625 264.689 71 264.378 70.6464C264.067 70.2821 263.912 69.7946 263.912 69.1839C263.912 68.6696 264.051 68.2036 264.33 67.7857C264.619 67.3571 265.037 67.0196 265.583 66.7732C266.14 66.5268 266.799 66.4036 267.56 66.4036C268.685 66.4036 269.569 66.6821 270.212 67.2393C270.865 67.7964 271.24 68.5357 271.337 69.4571H268.797C268.755 69.1464 268.615 68.9 268.38 68.7179C268.155 68.5357 267.855 68.4446 267.48 68.4446C267.158 68.4446 266.912 68.5089 266.74 68.6375C266.569 68.7554 266.483 68.9214 266.483 69.1357C266.483 69.3929 266.617 69.5857 266.885 69.7143C267.164 69.8429 267.592 69.9714 268.171 70.1C268.835 70.2714 269.376 70.4429 269.794 70.6143C270.212 70.775 270.576 71.0429 270.887 71.4179C271.208 71.7821 271.374 72.275 271.385 72.8964C271.385 73.4214 271.235 73.8929 270.935 74.3107C270.646 74.7179 270.222 75.0393 269.665 75.275C269.119 75.5107 268.481 75.6286 267.753 75.6286ZM274.448 65.6C273.966 65.6 273.57 65.4607 273.259 65.1821C272.959 64.8929 272.809 64.5393 272.809 64.1214C272.809 63.6929 272.959 63.3393 273.259 63.0607C273.57 62.7714 273.966 62.6268 274.448 62.6268C274.92 62.6268 275.306 62.7714 275.606 63.0607C275.916 63.3393 276.072 63.6929 276.072 64.1214C276.072 64.5393 275.916 64.8929 275.606 65.1821C275.306 65.4607 274.92 65.6 274.448 65.6ZM275.815 66.5321V75.5H273.066V66.5321H275.815ZM277.26 71.0161C277.26 70.0839 277.447 69.2696 277.822 68.5732C278.208 67.8768 278.738 67.3411 279.413 66.9661C280.099 66.5911 280.881 66.4036 281.76 66.4036C282.885 66.4036 283.822 66.6982 284.572 67.2875C285.333 67.8768 285.831 68.7071 286.067 69.7786H283.142C282.895 69.0929 282.419 68.75 281.712 68.75C281.208 68.75 280.806 68.9482 280.506 69.3446C280.206 69.7304 280.056 70.2875 280.056 71.0161C280.056 71.7446 280.206 72.3071 280.506 72.7036C280.806 73.0893 281.208 73.2821 281.712 73.2821C282.419 73.2821 282.895 72.9393 283.142 72.2536H286.067C285.831 73.3036 285.333 74.1286 284.572 74.7286C283.812 75.3286 282.874 75.6286 281.76 75.6286C280.881 75.6286 280.099 75.4411 279.413 75.0661C278.738 74.6911 278.208 74.1554 277.822 73.4589C277.447 72.7625 277.26 71.9482 277.26 71.0161ZM291.185 75.6286C290.403 75.6286 289.707 75.4946 289.096 75.2268C288.485 74.9589 288.003 74.5946 287.649 74.1339C287.296 73.6625 287.098 73.1375 287.055 72.5589H289.771C289.803 72.8696 289.948 73.1214 290.205 73.3143C290.462 73.5071 290.778 73.6036 291.153 73.6036C291.496 73.6036 291.758 73.5393 291.94 73.4107C292.133 73.2714 292.23 73.0946 292.23 72.8804C292.23 72.6232 292.096 72.4357 291.828 72.3179C291.56 72.1893 291.126 72.05 290.526 71.9C289.883 71.75 289.348 71.5946 288.919 71.4339C288.49 71.2625 288.121 71 287.81 70.6464C287.499 70.2821 287.344 69.7946 287.344 69.1839C287.344 68.6696 287.483 68.2036 287.762 67.7857C288.051 67.3571 288.469 67.0196 289.015 66.7732C289.573 66.5268 290.232 66.4036 290.992 66.4036C292.117 66.4036 293.001 66.6821 293.644 67.2393C294.298 67.7964 294.673 68.5357 294.769 69.4571H292.23C292.187 69.1464 292.048 68.9 291.812 68.7179C291.587 68.5357 291.287 68.4446 290.912 68.4446C290.59 68.4446 290.344 68.5089 290.173 68.6375C290.001 68.7554 289.915 68.9214 289.915 69.1357C289.915 69.3929 290.049 69.5857 290.317 69.7143C290.596 69.8429 291.024 69.9714 291.603 70.1C292.267 70.2714 292.808 70.4429 293.226 70.6143C293.644 70.775 294.008 71.0429 294.319 71.4179C294.64 71.7821 294.807 72.275 294.817 72.8964C294.817 73.4214 294.667 73.8929 294.367 74.3107C294.078 74.7179 293.655 75.0393 293.098 75.275C292.551 75.5107 291.914 75.6286 291.185 75.6286ZM315.429 64.2179L312.488 75.5H309.162L307.362 68.075L305.497 75.5H302.17L299.31 64.2179H302.251L303.874 72.4304L305.883 64.2179H308.904L310.833 72.4304L312.472 64.2179H315.429ZM325.261 70.8714C325.261 71.1286 325.245 71.3964 325.213 71.675H318.993C319.036 72.2321 319.213 72.6607 319.524 72.9607C319.845 73.25 320.236 73.3946 320.697 73.3946C321.383 73.3946 321.859 73.1054 322.127 72.5268H325.052C324.902 73.1161 324.629 73.6464 324.233 74.1179C323.847 74.5893 323.359 74.9589 322.77 75.2268C322.181 75.4946 321.522 75.6286 320.793 75.6286C319.915 75.6286 319.133 75.4411 318.447 75.0661C317.761 74.6911 317.225 74.1554 316.84 73.4589C316.454 72.7625 316.261 71.9482 316.261 71.0161C316.261 70.0839 316.449 69.2696 316.824 68.5732C317.209 67.8768 317.745 67.3411 318.431 66.9661C319.117 66.5911 319.904 66.4036 320.793 66.4036C321.661 66.4036 322.433 66.5857 323.108 66.95C323.783 67.3143 324.308 67.8339 324.683 68.5089C325.068 69.1839 325.261 69.9714 325.261 70.8714ZM322.449 70.1482C322.449 69.6768 322.288 69.3018 321.967 69.0232C321.645 68.7446 321.243 68.6054 320.761 68.6054C320.3 68.6054 319.909 68.7393 319.588 69.0071C319.277 69.275 319.084 69.6554 319.009 70.1482H322.449ZM335.165 70.8714C335.165 71.1286 335.148 71.3964 335.116 71.675H328.897C328.94 72.2321 329.116 72.6607 329.427 72.9607C329.748 73.25 330.14 73.3946 330.6 73.3946C331.286 73.3946 331.763 73.1054 332.031 72.5268H334.956C334.806 73.1161 334.532 73.6464 334.136 74.1179C333.75 74.5893 333.263 74.9589 332.673 75.2268C332.084 75.4946 331.425 75.6286 330.697 75.6286C329.818 75.6286 329.036 75.4411 328.35 75.0661C327.665 74.6911 327.129 74.1554 326.743 73.4589C326.357 72.7625 326.165 71.9482 326.165 71.0161C326.165 70.0839 326.352 69.2696 326.727 68.5732C327.113 67.8768 327.648 67.3411 328.334 66.9661C329.02 66.5911 329.807 66.4036 330.697 66.4036C331.565 66.4036 332.336 66.5857 333.011 66.95C333.686 67.3143 334.211 67.8339 334.586 68.5089C334.972 69.1839 335.165 69.9714 335.165 70.8714ZM332.352 70.1482C332.352 69.6768 332.191 69.3018 331.87 69.0232C331.548 68.7446 331.147 68.6054 330.665 68.6054C330.204 68.6054 329.813 68.7393 329.491 69.0071C329.181 69.275 328.988 69.6554 328.913 70.1482H332.352ZM342.095 75.5L339.363 71.7393V75.5H336.614V63.6071H339.363V70.1804L342.079 66.5321H345.47L341.741 71.0321L345.502 75.5H342.095Z" fill="white"/>
<path d="M29.75 147.125H4.24336C3.07461 147.125 2.125 148.088 2.125 149.27V174.73C2.125 175.912 3.07461 176.875 4.24336 176.875H29.75C30.9188 176.875 31.875 175.912 31.875 174.73V149.27C31.875 148.088 30.9188 147.125 29.75 147.125ZM11.1164 172.625H6.70703V158.427H11.123V172.625H11.1164ZM8.91172 156.488C7.49727 156.488 6.35508 155.339 6.35508 153.932C6.35508 152.524 7.49727 151.375 8.91172 151.375C10.3195 151.375 11.4684 152.524 11.4684 153.932C11.4684 155.346 10.3262 156.488 8.91172 156.488ZM27.6449 172.625H23.2355V165.719C23.2355 164.072 23.2023 161.954 20.9445 161.954C18.6469 161.954 18.2949 163.746 18.2949 165.599V172.625H13.8855V158.427H18.1156V160.366H18.1754C18.7664 159.251 20.2074 158.075 22.3523 158.075C26.8148 158.075 27.6449 161.017 27.6449 164.842V172.625Z" fill="white"/>
<path d="M70.8417 154.363C66.6183 154.363 63.2116 157.77 63.2116 161.993C63.2116 166.217 66.6183 169.623 70.8417 169.623C75.0651 169.623 78.4718 166.217 78.4718 161.993C78.4718 157.77 75.0651 154.363 70.8417 154.363ZM70.8417 166.954C68.1124 166.954 65.8812 164.729 65.8812 161.993C65.8812 159.257 68.1058 157.033 70.8417 157.033C73.5776 157.033 75.8022 159.257 75.8022 161.993C75.8022 164.729 73.571 166.954 70.8417 166.954ZM80.5636 154.051C80.5636 155.041 79.7667 155.831 78.7839 155.831C77.7944 155.831 77.0042 155.034 77.0042 154.051C77.0042 153.068 77.8011 152.271 78.7839 152.271C79.7667 152.271 80.5636 153.068 80.5636 154.051ZM85.6171 155.857C85.5042 153.473 84.9597 151.362 83.2132 149.622C81.4733 147.882 79.3616 147.337 76.9776 147.218C74.5206 147.078 67.1562 147.078 64.6991 147.218C62.3218 147.331 60.2101 147.875 58.4636 149.615C56.7171 151.355 56.1792 153.467 56.0597 155.851C55.9202 158.308 55.9202 165.672 56.0597 168.129C56.1726 170.513 56.7171 172.625 58.4636 174.365C60.2101 176.105 62.3151 176.649 64.6991 176.769C67.1562 176.908 74.5206 176.908 76.9776 176.769C79.3616 176.656 81.4733 176.111 83.2132 174.365C84.953 172.625 85.4976 170.513 85.6171 168.129C85.7565 165.672 85.7565 158.314 85.6171 155.857ZM82.4429 170.766C81.9249 172.067 80.9222 173.07 79.614 173.594C77.655 174.371 73.0065 174.192 70.8417 174.192C68.6769 174.192 64.0218 174.365 62.0694 173.594C60.7679 173.076 59.7651 172.074 59.2405 170.766C58.4636 168.807 58.6429 164.158 58.6429 161.993C58.6429 159.828 58.4702 155.173 59.2405 153.221C59.7585 151.919 60.7612 150.917 62.0694 150.392C64.0284 149.615 68.6769 149.794 70.8417 149.794C73.0065 149.794 77.6616 149.622 79.614 150.392C80.9155 150.91 81.9183 151.913 82.4429 153.221C83.2198 155.18 83.0405 159.828 83.0405 161.993C83.0405 164.158 83.2198 168.813 82.4429 170.766Z" fill="white"/>
<path d="M139.54 158.939C136.617 158.946 133.765 158.035 131.388 156.333V168.201C131.387 170.399 130.715 172.545 129.462 174.351C128.209 176.157 126.434 177.537 124.375 178.307C122.317 179.077 120.072 179.201 117.941 178.661C115.81 178.12 113.895 176.943 112.452 175.285C111.009 173.627 110.106 171.568 109.864 169.383C109.623 167.199 110.054 164.992 111.1 163.059C112.146 161.126 113.758 159.558 115.719 158.566C117.681 157.573 119.898 157.203 122.075 157.505V163.474C121.079 163.161 120.009 163.17 119.019 163.501C118.028 163.832 117.167 164.468 116.559 165.317C115.951 166.166 115.627 167.186 115.633 168.23C115.64 169.275 115.976 170.291 116.593 171.133C117.211 171.975 118.08 172.6 119.074 172.919C120.068 173.238 121.138 173.235 122.131 172.91C123.124 172.585 123.988 171.955 124.601 171.109C125.214 170.263 125.544 169.245 125.544 168.201V145H131.388C131.383 145.493 131.425 145.986 131.511 146.472C131.714 147.557 132.136 148.589 132.752 149.505C133.367 150.421 134.163 151.202 135.091 151.799C136.411 152.672 137.958 153.137 139.54 153.137V158.939Z" fill="white"/>
<path d="M7.074 243.256C8.298 243.256 9.384 243.532 10.332 244.084C11.292 244.624 12.036 245.386 12.564 246.37C13.104 247.342 13.374 248.452 13.374 249.7C13.374 250.948 13.104 252.064 12.564 253.048C12.036 254.02 11.292 254.782 10.332 255.334C9.384 255.874 8.298 256.144 7.074 256.144C5.838 256.144 4.74 255.874 3.78 255.334C2.832 254.782 2.088 254.02 1.548 253.048C1.02 252.064 0.756 250.948 0.756 249.7C0.756 248.452 1.02 247.342 1.548 246.37C2.088 245.386 2.832 244.624 3.78 244.084C4.74 243.532 5.838 243.256 7.074 243.256ZM7.074 244.174C5.994 244.174 5.052 244.402 4.248 244.858C3.444 245.302 2.826 245.944 2.394 246.784C1.962 247.612 1.746 248.584 1.746 249.7C1.746 250.804 1.962 251.776 2.394 252.616C2.826 253.444 3.444 254.092 4.248 254.56C5.052 255.016 5.994 255.244 7.074 255.244C8.142 255.244 9.078 255.016 9.882 254.56C10.686 254.092 11.304 253.444 11.736 252.616C12.168 251.776 12.384 250.804 12.384 249.7C12.384 248.584 12.168 247.612 11.736 246.784C11.304 245.944 10.686 245.302 9.882 244.858C9.09 244.402 8.154 244.174 7.074 244.174ZM7.056 245.596C6.3 245.596 5.622 245.764 5.022 246.1C4.422 246.436 3.948 246.916 3.6 247.54C3.264 248.152 3.096 248.866 3.096 249.682C3.096 250.498 3.264 251.218 3.6 251.842C3.948 252.466 4.422 252.946 5.022 253.282C5.622 253.618 6.3 253.786 7.056 253.786C7.98 253.786 8.778 253.534 9.45 253.03C10.122 252.514 10.56 251.836 10.764 250.996H8.55C8.418 251.332 8.226 251.59 7.974 251.77C7.734 251.95 7.41 252.04 7.002 252.04C6.45 252.04 6.012 251.842 5.688 251.446C5.376 251.038 5.22 250.45 5.22 249.682C5.22 248.914 5.376 248.332 5.688 247.936C6.012 247.54 6.45 247.342 7.002 247.342C7.386 247.342 7.71 247.432 7.974 247.612C8.25 247.792 8.442 248.05 8.55 248.386H10.764C10.56 247.522 10.122 246.844 9.45 246.352C8.79 245.848 7.992 245.596 7.056 245.596ZM15.8788 253.156C17.0308 252.196 17.9488 251.398 18.6328 250.762C19.3168 250.114 19.8868 249.442 20.3428 248.746C20.7988 248.05 21.0268 247.366 21.0268 246.694C21.0268 246.082 20.8828 245.602 20.5948 245.254C20.3068 244.906 19.8628 244.732 19.2628 244.732C18.6628 244.732 18.2008 244.936 17.8768 245.344C17.5528 245.74 17.3848 246.286 17.3728 246.982H14.9248C14.9728 245.542 15.3988 244.45 16.2028 243.706C17.0188 242.962 18.0508 242.59 19.2988 242.59C20.6668 242.59 21.7168 242.956 22.4488 243.688C23.1808 244.408 23.5468 245.362 23.5468 246.55C23.5468 247.486 23.2948 248.38 22.7908 249.232C22.2868 250.084 21.7108 250.828 21.0628 251.464C20.4148 252.088 19.5688 252.844 18.5248 253.732H23.8348V255.82H14.9428V253.948L15.8788 253.156ZM25.4228 249.268C25.4228 247.192 25.7948 245.566 26.5388 244.39C27.2948 243.214 28.5428 242.626 30.2828 242.626C32.0228 242.626 33.2648 243.214 34.0088 244.39C34.7648 245.566 35.1428 247.192 35.1428 249.268C35.1428 251.356 34.7648 252.994 34.0088 254.182C33.2648 255.37 32.0228 255.964 30.2828 255.964C28.5428 255.964 27.2948 255.37 26.5388 254.182C25.7948 252.994 25.4228 251.356 25.4228 249.268ZM32.6588 249.268C32.6588 248.38 32.5988 247.636 32.4788 247.036C32.3708 246.424 32.1428 245.926 31.7948 245.542C31.4588 245.158 30.9548 244.966 30.2828 244.966C29.6108 244.966 29.1008 245.158 28.7528 245.542C28.4168 245.926 28.1888 246.424 28.0688 247.036C27.9608 247.636 27.9068 248.38 27.9068 249.268C27.9068 250.18 27.9608 250.948 28.0688 251.572C28.1768 252.184 28.4048 252.682 28.7528 253.066C29.1008 253.438 29.6108 253.624 30.2828 253.624C30.9548 253.624 31.4648 253.438 31.8128 253.066C32.1608 252.682 32.3888 252.184 32.4968 251.572C32.6048 250.948 32.6588 250.18 32.6588 249.268ZM37.8515 253.156C39.0035 252.196 39.9215 251.398 40.6055 250.762C41.2895 250.114 41.8595 249.442 42.3155 248.746C42.7715 248.05 42.9995 247.366 42.9995 246.694C42.9995 246.082 42.8555 245.602 42.5675 245.254C42.2795 244.906 41.8355 244.732 41.2355 244.732C40.6355 244.732 40.1735 244.936 39.8495 245.344C39.5255 245.74 39.3575 246.286 39.3455 246.982H36.8975C36.9455 245.542 37.3715 244.45 38.1755 243.706C38.9915 242.962 40.0235 242.59 41.2715 242.59C42.6395 242.59 43.6895 242.956 44.4215 243.688C45.1535 244.408 45.5195 245.362 45.5195 246.55C45.5195 247.486 45.2675 248.38 44.7635 249.232C44.2595 250.084 43.6835 250.828 43.0355 251.464C42.3875 252.088 41.5415 252.844 40.4975 253.732H45.8075V255.82H36.9155V253.948L37.8515 253.156ZM56.2154 245.056H50.3834V248.134C50.6354 247.822 50.9954 247.57 51.4634 247.378C51.9314 247.174 52.4294 247.072 52.9574 247.072C53.9174 247.072 54.7034 247.282 55.3154 247.702C55.9274 248.122 56.3714 248.662 56.6474 249.322C56.9234 249.97 57.0614 250.666 57.0614 251.41C57.0614 252.79 56.6654 253.9 55.8734 254.74C55.0934 255.58 53.9774 256 52.5254 256C51.1574 256 50.0654 255.658 49.2494 254.974C48.4334 254.29 47.9714 253.396 47.8634 252.292H50.3114C50.4194 252.772 50.6594 253.156 51.0314 253.444C51.4154 253.732 51.9014 253.876 52.4894 253.876C53.1974 253.876 53.7314 253.654 54.0914 253.21C54.4514 252.766 54.6314 252.178 54.6314 251.446C54.6314 250.702 54.4454 250.138 54.0734 249.754C53.7134 249.358 53.1794 249.16 52.4714 249.16C51.9674 249.16 51.5474 249.286 51.2114 249.538C50.8754 249.79 50.6354 250.126 50.4914 250.546H48.0794V242.842H56.2154V245.056ZM66.0765 245.47V248.62H70.3065V250.618H66.0765V253.948H70.8465V256H63.5565V243.418H70.8465V245.47H66.0765ZM78.6625 245.884C79.8505 245.884 80.8105 246.262 81.5425 247.018C82.2745 247.762 82.6405 248.806 82.6405 250.15V256H80.1205V250.492C80.1205 249.7 79.9225 249.094 79.5265 248.674C79.1305 248.242 78.5905 248.026 77.9065 248.026C77.2105 248.026 76.6585 248.242 76.2505 248.674C75.8545 249.094 75.6565 249.7 75.6565 250.492V256H73.1365V246.028H75.6565V247.27C75.9925 246.838 76.4185 246.502 76.9345 246.262C77.4625 246.01 78.0385 245.884 78.6625 245.884ZM88.9429 245.866C89.6869 245.866 90.3409 246.016 90.9049 246.316C91.4689 246.604 91.9129 246.982 92.2369 247.45V246.028H94.7749V256.072C94.7749 256.996 94.5889 257.818 94.2169 258.538C93.8449 259.27 93.2869 259.846 92.5429 260.266C91.7989 260.698 90.8989 260.914 89.8429 260.914C88.4269 260.914 87.2629 260.584 86.3509 259.924C85.4509 259.264 84.9409 258.364 84.8209 257.224H87.3229C87.4549 257.68 87.7369 258.04 88.1689 258.304C88.6129 258.58 89.1469 258.718 89.7709 258.718C90.5029 258.718 91.0969 258.496 91.5529 258.052C92.0089 257.62 92.2369 256.96 92.2369 256.072V254.524C91.9129 254.992 91.4629 255.382 90.8869 255.694C90.3229 256.006 89.6749 256.162 88.9429 256.162C88.1029 256.162 87.3349 255.946 86.6389 255.514C85.9429 255.082 85.3909 254.476 84.9829 253.696C84.5869 252.904 84.3889 251.998 84.3889 250.978C84.3889 249.97 84.5869 249.076 84.9829 248.296C85.3909 247.516 85.9369 246.916 86.6209 246.496C87.3169 246.076 88.0909 245.866 88.9429 245.866ZM92.2369 251.014C92.2369 250.402 92.1169 249.88 91.8769 249.448C91.6369 249.004 91.3129 248.668 90.9049 248.44C90.4969 248.2 90.0589 248.08 89.5909 248.08C89.1229 248.08 88.6909 248.194 88.2949 248.422C87.8989 248.65 87.5749 248.986 87.3229 249.43C87.0829 249.862 86.9629 250.378 86.9629 250.978C86.9629 251.578 87.0829 252.106 87.3229 252.562C87.5749 253.006 87.8989 253.348 88.2949 253.588C88.7029 253.828 89.1349 253.948 89.5909 253.948C90.0589 253.948 90.4969 253.834 90.9049 253.606C91.3129 253.366 91.6369 253.03 91.8769 252.598C92.1169 252.154 92.2369 251.626 92.2369 251.014ZM98.5141 244.84C98.0701 244.84 97.6981 244.702 97.3981 244.426C97.1101 244.138 96.9661 243.784 96.9661 243.364C96.9661 242.944 97.1101 242.596 97.3981 242.32C97.6981 242.032 98.0701 241.888 98.5141 241.888C98.9581 241.888 99.3241 242.032 99.6121 242.32C99.9121 242.596 100.062 242.944 100.062 243.364C100.062 243.784 99.9121 244.138 99.6121 244.426C99.3241 244.702 98.9581 244.84 98.5141 244.84ZM99.7561 246.028V256H97.2361V246.028H99.7561ZM107.772 245.884C108.96 245.884 109.92 246.262 110.652 247.018C111.384 247.762 111.75 248.806 111.75 250.15V256H109.23V250.492C109.23 249.7 109.032 249.094 108.636 248.674C108.24 248.242 107.7 248.026 107.016 248.026C106.32 248.026 105.768 248.242 105.36 248.674C104.964 249.094 104.766 249.7 104.766 250.492V256H102.246V246.028H104.766V247.27C105.102 246.838 105.528 246.502 106.044 246.262C106.572 246.01 107.148 245.884 107.772 245.884ZM123.416 250.798C123.416 251.158 123.392 251.482 123.344 251.77H116.054C116.114 252.49 116.366 253.054 116.81 253.462C117.254 253.87 117.8 254.074 118.448 254.074C119.384 254.074 120.05 253.672 120.446 252.868H123.164C122.876 253.828 122.324 254.62 121.508 255.244C120.692 255.856 119.69 256.162 118.502 256.162C117.542 256.162 116.678 255.952 115.91 255.532C115.154 255.1 114.56 254.494 114.128 253.714C113.708 252.934 113.498 252.034 113.498 251.014C113.498 249.982 113.708 249.076 114.128 248.296C114.548 247.516 115.136 246.916 115.892 246.496C116.648 246.076 117.518 245.866 118.502 245.866C119.45 245.866 120.296 246.07 121.04 246.478C121.796 246.886 122.378 247.468 122.786 248.224C123.206 248.968 123.416 249.826 123.416 250.798ZM120.806 250.078C120.794 249.43 120.56 248.914 120.104 248.53C119.648 248.134 119.09 247.936 118.43 247.936C117.806 247.936 117.278 248.128 116.846 248.512C116.426 248.884 116.168 249.406 116.072 250.078H120.806ZM134.526 250.798C134.526 251.158 134.502 251.482 134.454 251.77H127.164C127.224 252.49 127.476 253.054 127.92 253.462C128.364 253.87 128.91 254.074 129.558 254.074C130.494 254.074 131.16 253.672 131.556 252.868H134.274C133.986 253.828 133.434 254.62 132.618 255.244C131.802 255.856 130.8 256.162 129.612 256.162C128.652 256.162 127.788 255.952 127.02 255.532C126.264 255.1 125.67 254.494 125.238 253.714C124.818 252.934 124.608 252.034 124.608 251.014C124.608 249.982 124.818 249.076 125.238 248.296C125.658 247.516 126.246 246.916 127.002 246.496C127.758 246.076 128.628 245.866 129.612 245.866C130.56 245.866 131.406 246.07 132.15 246.478C132.906 246.886 133.488 247.468 133.896 248.224C134.316 248.968 134.526 249.826 134.526 250.798ZM131.916 250.078C131.904 249.43 131.67 248.914 131.214 248.53C130.758 248.134 130.2 247.936 129.54 247.936C128.916 247.936 128.388 248.128 127.956 248.512C127.536 248.884 127.278 249.406 127.182 250.078H131.916ZM138.885 247.576C139.209 247.048 139.629 246.634 140.145 246.334C140.673 246.034 141.273 245.884 141.945 245.884V248.53H141.279C140.487 248.53 139.887 248.716 139.479 249.088C139.083 249.46 138.885 250.108 138.885 251.032V256H136.365V246.028H138.885V247.576ZM144.92 244.84C144.476 244.84 144.104 244.702 143.804 244.426C143.516 244.138 143.372 243.784 143.372 243.364C143.372 242.944 143.516 242.596 143.804 242.32C144.104 242.032 144.476 241.888 144.92 241.888C145.364 241.888 145.73 242.032 146.018 242.32C146.318 242.596 146.468 242.944 146.468 243.364C146.468 243.784 146.318 244.138 146.018 244.426C145.73 244.702 145.364 244.84 144.92 244.84ZM146.162 246.028V256H143.642V246.028H146.162ZM154.178 245.884C155.366 245.884 156.326 246.262 157.058 247.018C157.79 247.762 158.156 248.806 158.156 250.15V256H155.636V250.492C155.636 249.7 155.438 249.094 155.042 248.674C154.646 248.242 154.106 248.026 153.422 248.026C152.726 248.026 152.174 248.242 151.766 248.674C151.37 249.094 151.172 249.7 151.172 250.492V256H148.652V246.028H151.172V247.27C151.508 246.838 151.934 246.502 152.45 246.262C152.978 246.01 153.554 245.884 154.178 245.884ZM164.459 245.866C165.203 245.866 165.857 246.016 166.421 246.316C166.985 246.604 167.429 246.982 167.753 247.45V246.028H170.291V256.072C170.291 256.996 170.105 257.818 169.733 258.538C169.361 259.27 168.803 259.846 168.059 260.266C167.315 260.698 166.415 260.914 165.359 260.914C163.943 260.914 162.779 260.584 161.867 259.924C160.967 259.264 160.457 258.364 160.337 257.224H162.839C162.971 257.68 163.253 258.04 163.685 258.304C164.129 258.58 164.663 258.718 165.287 258.718C166.019 258.718 166.613 258.496 167.069 258.052C167.525 257.62 167.753 256.96 167.753 256.072V254.524C167.429 254.992 166.979 255.382 166.403 255.694C165.839 256.006 165.191 256.162 164.459 256.162C163.619 256.162 162.851 255.946 162.155 255.514C161.459 255.082 160.907 254.476 160.499 253.696C160.103 252.904 159.905 251.998 159.905 250.978C159.905 249.97 160.103 249.076 160.499 248.296C160.907 247.516 161.453 246.916 162.137 246.496C162.833 246.076 163.607 245.866 164.459 245.866ZM167.753 251.014C167.753 250.402 167.633 249.88 167.393 249.448C167.153 249.004 166.829 248.668 166.421 248.44C166.013 248.2 165.575 248.08 165.107 248.08C164.639 248.08 164.207 248.194 163.811 248.422C163.415 248.65 163.091 248.986 162.839 249.43C162.599 249.862 162.479 250.378 162.479 250.978C162.479 251.578 162.599 252.106 162.839 252.562C163.091 253.006 163.415 253.348 163.811 253.588C164.219 253.828 164.651 253.948 165.107 253.948C165.575 253.948 166.013 253.834 166.421 253.606C166.829 253.366 167.153 253.03 167.393 252.598C167.633 252.154 167.753 251.626 167.753 251.014ZM186.203 247.324C186.203 247.996 186.041 248.626 185.717 249.214C185.405 249.802 184.907 250.276 184.223 250.636C183.551 250.996 182.699 251.176 181.667 251.176H179.561V256H177.041V243.436H181.667C182.639 243.436 183.467 243.604 184.151 243.94C184.835 244.276 185.345 244.738 185.681 245.326C186.029 245.914 186.203 246.58 186.203 247.324ZM181.559 249.142C182.255 249.142 182.771 248.986 183.107 248.674C183.443 248.35 183.611 247.9 183.611 247.324C183.611 246.1 182.927 245.488 181.559 245.488H179.561V249.142H181.559ZM193.608 245.884C194.364 245.884 195.036 246.052 195.624 246.388C196.212 246.712 196.668 247.198 196.992 247.846C197.328 248.482 197.496 249.25 197.496 250.15V256H194.976V250.492C194.976 249.7 194.778 249.094 194.382 248.674C193.986 248.242 193.446 248.026 192.762 248.026C192.066 248.026 191.514 248.242 191.106 248.674C190.71 249.094 190.512 249.7 190.512 250.492V256H187.992V242.68H190.512V247.27C190.836 246.838 191.268 246.502 191.808 246.262C192.348 246.01 192.948 245.884 193.608 245.884ZM209.432 246.028L203.258 260.716H200.576L202.736 255.748L198.74 246.028H201.566L204.14 252.994L206.75 246.028H209.432ZM214.607 256.162C213.791 256.162 213.059 256.018 212.411 255.73C211.763 255.43 211.247 255.028 210.863 254.524C210.491 254.02 210.287 253.462 210.251 252.85H212.789C212.837 253.234 213.023 253.552 213.347 253.804C213.683 254.056 214.097 254.182 214.589 254.182C215.069 254.182 215.441 254.086 215.705 253.894C215.981 253.702 216.119 253.456 216.119 253.156C216.119 252.832 215.951 252.592 215.615 252.436C215.291 252.268 214.769 252.088 214.049 251.896C213.305 251.716 212.693 251.53 212.213 251.338C211.745 251.146 211.337 250.852 210.989 250.456C210.653 250.06 210.485 249.526 210.485 248.854C210.485 248.302 210.641 247.798 210.953 247.342C211.277 246.886 211.733 246.526 212.321 246.262C212.921 245.998 213.623 245.866 214.427 245.866C215.615 245.866 216.563 246.166 217.271 246.766C217.979 247.354 218.369 248.152 218.441 249.16H216.029C215.993 248.764 215.825 248.452 215.525 248.224C215.237 247.984 214.847 247.864 214.355 247.864C213.899 247.864 213.545 247.948 213.293 248.116C213.053 248.284 212.933 248.518 212.933 248.818C212.933 249.154 213.101 249.412 213.437 249.592C213.773 249.76 214.295 249.934 215.003 250.114C215.723 250.294 216.317 250.48 216.785 250.672C217.253 250.864 217.655 251.164 217.991 251.572C218.339 251.968 218.519 252.496 218.531 253.156C218.531 253.732 218.369 254.248 218.045 254.704C217.733 255.16 217.277 255.52 216.677 255.784C216.089 256.036 215.399 256.162 214.607 256.162ZM221.877 244.84C221.433 244.84 221.061 244.702 220.761 244.426C220.473 244.138 220.329 243.784 220.329 243.364C220.329 242.944 220.473 242.596 220.761 242.32C221.061 242.032 221.433 241.888 221.877 241.888C222.321 241.888 222.687 242.032 222.975 242.32C223.275 242.596 223.425 242.944 223.425 243.364C223.425 243.784 223.275 244.138 222.975 244.426C222.687 244.702 222.321 244.84 221.877 244.84ZM223.119 246.028V256H220.599V246.028H223.119ZM224.961 251.014C224.961 249.982 225.171 249.082 225.591 248.314C226.011 247.534 226.593 246.934 227.337 246.514C228.081 246.082 228.933 245.866 229.893 245.866C231.129 245.866 232.149 246.178 232.953 246.802C233.769 247.414 234.315 248.278 234.591 249.394H231.873C231.729 248.962 231.483 248.626 231.135 248.386C230.799 248.134 230.379 248.008 229.875 248.008C229.155 248.008 228.585 248.272 228.165 248.8C227.745 249.316 227.535 250.054 227.535 251.014C227.535 251.962 227.745 252.7 228.165 253.228C228.585 253.744 229.155 254.002 229.875 254.002C230.895 254.002 231.561 253.546 231.873 252.634H234.591C234.315 253.714 233.769 254.572 232.953 255.208C232.137 255.844 231.117 256.162 229.893 256.162C228.933 256.162 228.081 255.952 227.337 255.532C226.593 255.1 226.011 254.5 225.591 253.732C225.171 252.952 224.961 252.046 224.961 251.014ZM240.253 256.162C239.437 256.162 238.705 256.018 238.057 255.73C237.409 255.43 236.893 255.028 236.509 254.524C236.137 254.02 235.933 253.462 235.897 252.85H238.435C238.483 253.234 238.669 253.552 238.993 253.804C239.329 254.056 239.743 254.182 240.235 254.182C240.715 254.182 241.087 254.086 241.351 253.894C241.627 253.702 241.765 253.456 241.765 253.156C241.765 252.832 241.597 252.592 241.261 252.436C240.937 252.268 240.415 252.088 239.695 251.896C238.951 251.716 238.339 251.53 237.859 251.338C237.391 251.146 236.983 250.852 236.635 250.456C236.299 250.06 236.131 249.526 236.131 248.854C236.131 248.302 236.287 247.798 236.599 247.342C236.923 246.886 237.379 246.526 237.967 246.262C238.567 245.998 239.269 245.866 240.073 245.866C241.261 245.866 242.209 246.166 242.917 246.766C243.625 247.354 244.015 248.152 244.087 249.16H241.675C241.639 248.764 241.471 248.452 241.171 248.224C240.883 247.984 240.493 247.864 240.001 247.864C239.545 247.864 239.191 247.948 238.939 248.116C238.699 248.284 238.579 248.518 238.579 248.818C238.579 249.154 238.747 249.412 239.083 249.592C239.419 249.76 239.941 249.934 240.649 250.114C241.369 250.294 241.963 250.48 242.431 250.672C242.899 250.864 243.301 251.164 243.637 251.572C243.985 251.968 244.165 252.496 244.177 253.156C244.177 253.732 244.015 254.248 243.691 254.704C243.379 255.16 242.923 255.52 242.323 255.784C241.735 256.036 241.045 256.162 240.253 256.162ZM267.329 243.436L263.819 256H260.849L258.491 247.054L256.025 256L253.073 256.018L249.689 243.436H252.389L254.603 253.192L257.159 243.436H259.967L262.379 253.138L264.611 243.436H267.329ZM278.244 250.798C278.244 251.158 278.22 251.482 278.172 251.77H270.882C270.942 252.49 271.194 253.054 271.638 253.462C272.082 253.87 272.628 254.074 273.276 254.074C274.212 254.074 274.878 253.672 275.274 252.868H277.992C277.704 253.828 277.152 254.62 276.336 255.244C275.52 255.856 274.518 256.162 273.33 256.162C272.37 256.162 271.506 255.952 270.738 255.532C269.982 255.1 269.388 254.494 268.956 253.714C268.536 252.934 268.326 252.034 268.326 251.014C268.326 249.982 268.536 249.076 268.956 248.296C269.376 247.516 269.964 246.916 270.72 246.496C271.476 246.076 272.346 245.866 273.33 245.866C274.278 245.866 275.124 246.07 275.868 246.478C276.624 246.886 277.206 247.468 277.614 248.224C278.034 248.968 278.244 249.826 278.244 250.798ZM275.634 250.078C275.622 249.43 275.388 248.914 274.932 248.53C274.476 248.134 273.918 247.936 273.258 247.936C272.634 247.936 272.106 248.128 271.674 248.512C271.254 248.884 270.996 249.406 270.9 250.078H275.634ZM289.354 250.798C289.354 251.158 289.33 251.482 289.282 251.77H281.992C282.052 252.49 282.304 253.054 282.748 253.462C283.192 253.87 283.738 254.074 284.386 254.074C285.322 254.074 285.988 253.672 286.384 252.868H289.102C288.814 253.828 288.262 254.62 287.446 255.244C286.63 255.856 285.628 256.162 284.44 256.162C283.48 256.162 282.616 255.952 281.848 255.532C281.092 255.1 280.498 254.494 280.066 253.714C279.646 252.934 279.436 252.034 279.436 251.014C279.436 249.982 279.646 249.076 280.066 248.296C280.486 247.516 281.074 246.916 281.83 246.496C282.586 246.076 283.456 245.866 284.44 245.866C285.388 245.866 286.234 246.07 286.978 246.478C287.734 246.886 288.316 247.468 288.724 248.224C289.144 248.968 289.354 249.826 289.354 250.798ZM286.744 250.078C286.732 249.43 286.498 248.914 286.042 248.53C285.586 248.134 285.028 247.936 284.368 247.936C283.744 247.936 283.216 248.128 282.784 248.512C282.364 248.884 282.106 249.406 282.01 250.078H286.744ZM297.097 256L293.713 251.752V256H291.193V242.68H293.713V250.258L297.061 246.028H300.337L295.945 251.032L300.373 256H297.097ZM302.821 256.126C302.365 256.126 301.987 255.988 301.687 255.712C301.399 255.424 301.255 255.07 301.255 254.65C301.255 254.23 301.399 253.882 301.687 253.606C301.987 253.318 302.365 253.174 302.821 253.174C303.265 253.174 303.631 253.318 303.919 253.606C304.207 253.882 304.351 254.23 304.351 254.65C304.351 255.07 304.207 255.424 303.919 255.712C303.631 255.988 303.265 256.126 302.821 256.126ZM318.374 253.606H313.37L312.542 256H309.896L314.414 243.418H317.348L321.866 256H319.202L318.374 253.606ZM317.69 251.59L315.872 246.334L314.054 251.59H317.69ZM326.075 242.68V256H323.555V242.68H326.075ZM331.084 242.68V256H328.564V242.68H331.084ZM344.343 256L341.571 251.104H340.383V256H337.863V243.436H342.579C343.551 243.436 344.379 243.61 345.063 243.958C345.747 244.294 346.257 244.756 346.593 245.344C346.941 245.92 347.115 246.568 347.115 247.288C347.115 248.116 346.875 248.866 346.395 249.538C345.915 250.198 345.201 250.654 344.253 250.906L347.259 256H344.343ZM340.383 249.214H342.489C343.173 249.214 343.683 249.052 344.019 248.728C344.355 248.392 344.523 247.93 344.523 247.342C344.523 246.766 344.355 246.322 344.019 246.01C343.683 245.686 343.173 245.524 342.489 245.524H340.383V249.214ZM350.672 244.84C350.228 244.84 349.856 244.702 349.556 244.426C349.268 244.138 349.124 243.784 349.124 243.364C349.124 242.944 349.268 242.596 349.556 242.32C349.856 242.032 350.228 241.888 350.672 241.888C351.116 241.888 351.482 242.032 351.77 242.32C352.07 242.596 352.22 242.944 352.22 243.364C352.22 243.784 352.07 244.138 351.77 244.426C351.482 244.702 351.116 244.84 350.672 244.84ZM351.914 246.028V256H349.394V246.028H351.914ZM358.31 245.866C359.054 245.866 359.708 246.016 360.272 246.316C360.836 246.604 361.28 246.982 361.604 247.45V246.028H364.142V256.072C364.142 256.996 363.956 257.818 363.584 258.538C363.212 259.27 362.654 259.846 361.91 260.266C361.166 260.698 360.266 260.914 359.21 260.914C357.794 260.914 356.63 260.584 355.718 259.924C354.818 259.264 354.308 258.364 354.188 257.224H356.69C356.822 257.68 357.104 258.04 357.536 258.304C357.98 258.58 358.514 258.718 359.138 258.718C359.87 258.718 360.464 258.496 360.92 258.052C361.376 257.62 361.604 256.96 361.604 256.072V254.524C361.28 254.992 360.83 255.382 360.254 255.694C359.69 256.006 359.042 256.162 358.31 256.162C357.47 256.162 356.702 255.946 356.006 255.514C355.31 255.082 354.758 254.476 354.35 253.696C353.954 252.904 353.756 251.998 353.756 250.978C353.756 249.97 353.954 249.076 354.35 248.296C354.758 247.516 355.304 246.916 355.988 246.496C356.684 246.076 357.458 245.866 358.31 245.866ZM361.604 251.014C361.604 250.402 361.484 249.88 361.244 249.448C361.004 249.004 360.68 248.668 360.272 248.44C359.864 248.2 359.426 248.08 358.958 248.08C358.49 248.08 358.058 248.194 357.662 248.422C357.266 248.65 356.942 248.986 356.69 249.43C356.45 249.862 356.33 250.378 356.33 250.978C356.33 251.578 356.45 252.106 356.69 252.562C356.942 253.006 357.266 253.348 357.662 253.588C358.07 253.828 358.502 253.948 358.958 253.948C359.426 253.948 359.864 253.834 360.272 253.606C360.68 253.366 361.004 253.03 361.244 252.598C361.484 252.154 361.604 251.626 361.604 251.014ZM372.219 245.884C372.975 245.884 373.647 246.052 374.235 246.388C374.823 246.712 375.279 247.198 375.603 247.846C375.939 248.482 376.107 249.25 376.107 250.15V256H373.587V250.492C373.587 249.7 373.389 249.094 372.993 248.674C372.597 248.242 372.057 248.026 371.373 248.026C370.677 248.026 370.125 248.242 369.717 248.674C369.321 249.094 369.123 249.7 369.123 250.492V256H366.603V242.68H369.123V247.27C369.447 246.838 369.879 246.502 370.419 246.262C370.959 246.01 371.559 245.884 372.219 245.884ZM381.438 248.098V252.922C381.438 253.258 381.516 253.504 381.672 253.66C381.84 253.804 382.116 253.876 382.5 253.876H383.67V256H382.086C379.962 256 378.9 254.968 378.9 252.904V248.098H377.712V246.028H378.9V243.562H381.438V246.028H383.67V248.098H381.438ZM396.251 256L393.479 251.104H392.291V256H389.771V243.436H394.487C395.459 243.436 396.287 243.61 396.971 243.958C397.655 244.294 398.165 244.756 398.501 245.344C398.849 245.92 399.023 246.568 399.023 247.288C399.023 248.116 398.783 248.866 398.303 249.538C397.823 250.198 397.109 250.654 396.161 250.906L399.167 256H396.251ZM392.291 249.214H394.397C395.081 249.214 395.591 249.052 395.927 248.728C396.263 248.392 396.431 247.93 396.431 247.342C396.431 246.766 396.263 246.322 395.927 246.01C395.591 245.686 395.081 245.524 394.397 245.524H392.291V249.214ZM410.573 250.798C410.573 251.158 410.549 251.482 410.501 251.77H403.211C403.271 252.49 403.523 253.054 403.967 253.462C404.411 253.87 404.957 254.074 405.605 254.074C406.541 254.074 407.207 253.672 407.603 252.868H410.321C410.033 253.828 409.481 254.62 408.665 255.244C407.849 255.856 406.847 256.162 405.659 256.162C404.699 256.162 403.835 255.952 403.067 255.532C402.311 255.1 401.717 254.494 401.285 253.714C400.865 252.934 400.655 252.034 400.655 251.014C400.655 249.982 400.865 249.076 401.285 248.296C401.705 247.516 402.293 246.916 403.049 246.496C403.805 246.076 404.675 245.866 405.659 245.866C406.607 245.866 407.453 246.07 408.197 246.478C408.953 246.886 409.535 247.468 409.943 248.224C410.363 248.968 410.573 249.826 410.573 250.798ZM407.963 250.078C407.951 249.43 407.717 248.914 407.261 248.53C406.805 248.134 406.247 247.936 405.587 247.936C404.963 247.936 404.435 248.128 404.003 248.512C403.583 248.884 403.325 249.406 403.229 250.078H407.963ZM416.228 256.162C415.412 256.162 414.68 256.018 414.032 255.73C413.384 255.43 412.868 255.028 412.484 254.524C412.112 254.02 411.908 253.462 411.872 252.85H414.41C414.458 253.234 414.644 253.552 414.968 253.804C415.304 254.056 415.718 254.182 416.21 254.182C416.69 254.182 417.062 254.086 417.326 253.894C417.602 253.702 417.74 253.456 417.74 253.156C417.74 252.832 417.572 252.592 417.236 252.436C416.912 252.268 416.39 252.088 415.67 251.896C414.926 251.716 414.314 251.53 413.834 251.338C413.366 251.146 412.958 250.852 412.61 250.456C412.274 250.06 412.106 249.526 412.106 248.854C412.106 248.302 412.262 247.798 412.574 247.342C412.898 246.886 413.354 246.526 413.942 246.262C414.542 245.998 415.244 245.866 416.048 245.866C417.236 245.866 418.184 246.166 418.892 246.766C419.6 247.354 419.99 248.152 420.062 249.16H417.65C417.614 248.764 417.446 248.452 417.146 248.224C416.858 247.984 416.468 247.864 415.976 247.864C415.52 247.864 415.166 247.948 414.914 248.116C414.674 248.284 414.554 248.518 414.554 248.818C414.554 249.154 414.722 249.412 415.058 249.592C415.394 249.76 415.916 249.934 416.624 250.114C417.344 250.294 417.938 250.48 418.406 250.672C418.874 250.864 419.276 251.164 419.612 251.572C419.96 251.968 420.14 252.496 420.152 253.156C420.152 253.732 419.99 254.248 419.666 254.704C419.354 255.16 418.898 255.52 418.298 255.784C417.71 256.036 417.02 256.162 416.228 256.162ZM431.491 250.798C431.491 251.158 431.467 251.482 431.419 251.77H424.129C424.189 252.49 424.441 253.054 424.885 253.462C425.329 253.87 425.875 254.074 426.523 254.074C427.459 254.074 428.125 253.672 428.521 252.868H431.239C430.951 253.828 430.399 254.62 429.583 255.244C428.767 255.856 427.765 256.162 426.577 256.162C425.617 256.162 424.753 255.952 423.985 255.532C423.229 255.1 422.635 254.494 422.203 253.714C421.783 252.934 421.573 252.034 421.573 251.014C421.573 249.982 421.783 249.076 422.203 248.296C422.623 247.516 423.211 246.916 423.967 246.496C424.723 246.076 425.593 245.866 426.577 245.866C427.525 245.866 428.371 246.07 429.115 246.478C429.871 246.886 430.453 247.468 430.861 248.224C431.281 248.968 431.491 249.826 431.491 250.798ZM428.881 250.078C428.869 249.43 428.635 248.914 428.179 248.53C427.723 248.134 427.165 247.936 426.505 247.936C425.881 247.936 425.353 248.128 424.921 248.512C424.501 248.884 424.243 249.406 424.147 250.078H428.881ZM435.85 247.576C436.174 247.048 436.594 246.634 437.11 246.334C437.638 246.034 438.238 245.884 438.91 245.884V248.53H438.244C437.452 248.53 436.852 248.716 436.444 249.088C436.048 249.46 435.85 250.108 435.85 251.032V256H433.33V246.028H435.85V247.576ZM444.765 253.678L447.285 246.028H449.967L446.277 256H443.217L439.545 246.028H442.245L444.765 253.678ZM460.653 250.798C460.653 251.158 460.629 251.482 460.581 251.77H453.291C453.351 252.49 453.603 253.054 454.047 253.462C454.491 253.87 455.037 254.074 455.685 254.074C456.621 254.074 457.287 253.672 457.683 252.868H460.401C460.113 253.828 459.561 254.62 458.745 255.244C457.929 255.856 456.927 256.162 455.739 256.162C454.779 256.162 453.915 255.952 453.147 255.532C452.391 255.1 451.797 254.494 451.365 253.714C450.945 252.934 450.735 252.034 450.735 251.014C450.735 249.982 450.945 249.076 451.365 248.296C451.785 247.516 452.373 246.916 453.129 246.496C453.885 246.076 454.755 245.866 455.739 245.866C456.687 245.866 457.533 246.07 458.277 246.478C459.033 246.886 459.615 247.468 460.023 248.224C460.443 248.968 460.653 249.826 460.653 250.798ZM458.043 250.078C458.031 249.43 457.797 248.914 457.341 248.53C456.885 248.134 456.327 247.936 455.667 247.936C455.043 247.936 454.515 248.128 454.083 248.512C453.663 248.884 453.405 249.406 453.309 250.078H458.043ZM461.844 250.978C461.844 249.97 462.042 249.076 462.438 248.296C462.846 247.516 463.398 246.916 464.094 246.496C464.79 246.076 465.564 245.866 466.416 245.866C467.064 245.866 467.682 246.01 468.27 246.298C468.858 246.574 469.326 246.946 469.674 247.414V242.68H472.23V256H469.674V254.524C469.362 255.016 468.924 255.412 468.36 255.712C467.796 256.012 467.142 256.162 466.398 256.162C465.558 256.162 464.79 255.946 464.094 255.514C463.398 255.082 462.846 254.476 462.438 253.696C462.042 252.904 461.844 251.998 461.844 250.978ZM469.692 251.014C469.692 250.402 469.572 249.88 469.332 249.448C469.092 249.004 468.768 248.668 468.36 248.44C467.952 248.2 467.514 248.08 467.046 248.08C466.578 248.08 466.146 248.194 465.75 248.422C465.354 248.65 465.03 248.986 464.778 249.43C464.538 249.862 464.418 250.378 464.418 250.978C464.418 251.578 464.538 252.106 464.778 252.562C465.03 253.006 465.354 253.348 465.75 253.588C466.158 253.828 466.59 253.948 467.046 253.948C467.514 253.948 467.952 253.834 468.36 253.606C468.768 253.366 469.092 253.03 469.332 252.598C469.572 252.154 469.692 251.626 469.692 251.014Z" fill="white"/>
</svg>
