<svg width="494" height="236" viewBox="0 0 494 236" fill="none" xmlns="http://www.w3.org/2000/svg">
<path d="M24.0312 20.8906C24.0312 21.9531 23.8906 22.9792 23.6094 23.9688C23.3385 24.9479 22.9531 25.8698 22.4531 26.7344C21.9531 27.5885 21.349 28.3698 20.6406 29.0781C19.9323 29.7865 19.151 30.3958 18.2969 30.9062C17.4427 31.4062 16.5208 31.7917 15.5312 32.0625C14.5417 32.3438 13.5156 32.4844 12.4531 32.4844C11.3906 32.4844 10.3646 32.3438 9.375 32.0625C8.39583 31.7917 7.47396 31.4062 6.60938 30.9062C5.75521 30.3958 4.97396 29.7865 4.26562 29.0781C3.55729 28.3698 2.94792 27.5885 2.4375 26.7344C1.9375 25.8698 1.54688 24.9479 1.26562 23.9688C0.994792 22.9792 0.859375 21.9531 0.859375 20.8906C0.859375 19.8281 0.994792 18.8021 1.26562 17.8125C1.54688 16.8229 1.9375 15.901 2.4375 15.0469C2.94792 14.1927 3.55729 13.4115 4.26562 12.7031C4.97396 11.9948 5.75521 11.3906 6.60938 10.8906C7.47396 10.3906 8.39583 10.0052 9.375 9.73438C10.3646 9.45312 11.3906 9.3125 12.4531 9.3125C13.5156 9.3125 14.5417 9.45312 15.5312 9.73438C16.5208 10.0052 17.4427 10.3906 18.2969 10.8906C19.151 11.3906 19.9323 11.9948 20.6406 12.7031C21.349 13.4115 21.9531 14.1927 22.4531 15.0469C22.9531 15.901 23.3385 16.8229 23.6094 17.8125C23.8906 18.8021 24.0312 19.8281 24.0312 20.8906ZM19.5781 20.8906C19.5781 19.9115 19.3906 18.9896 19.0156 18.125C18.6406 17.25 18.1302 16.4948 17.4844 15.8594C16.849 15.2135 16.0938 14.7031 15.2188 14.3281C14.3542 13.9531 13.4323 13.7656 12.4531 13.7656C11.4635 13.7656 10.5365 13.9531 9.67188 14.3281C8.80729 14.7031 8.05208 15.2135 7.40625 15.8594C6.76042 16.4948 6.25 17.25 5.875 18.125C5.5 18.9896 5.3125 19.9115 5.3125 20.8906C5.3125 21.8698 5.5 22.7917 5.875 23.6562C6.25 24.5104 6.76042 25.2604 7.40625 25.9062C8.05208 26.5521 8.80729 27.0625 9.67188 27.4375C10.5365 27.8125 11.4635 28 12.4531 28C13.4323 28 14.3542 27.8125 15.2188 27.4375C16.0938 27.0625 16.849 26.5521 17.4844 25.9062C18.1302 25.2604 18.6406 24.5104 19.0156 23.6562C19.3906 22.7917 19.5781 21.8698 19.5781 20.8906ZM44.6562 23.0469C44.6562 24.2865 44.4219 25.4531 43.9531 26.5469C43.4844 27.6302 42.8438 28.5781 42.0312 29.3906C41.2188 30.1927 40.2656 30.8281 39.1719 31.2969C38.0885 31.7656 36.9271 32 35.6875 32C34.4479 32 33.2812 31.7656 32.1875 31.2969C31.1042 30.8281 30.1562 30.1927 29.3438 29.3906C28.5417 28.5781 27.9062 27.6302 27.4375 26.5469C26.9688 25.4531 26.7344 24.2865 26.7344 23.0469V9.59375H31.2031V23.0469C31.2031 23.6615 31.3177 24.2396 31.5469 24.7812C31.7865 25.3229 32.1094 25.7969 32.5156 26.2031C32.9219 26.6094 33.3958 26.9323 33.9375 27.1719C34.4896 27.401 35.0729 27.5156 35.6875 27.5156C36.3021 27.5156 36.8802 27.401 37.4219 27.1719C37.974 26.9323 38.4531 26.6094 38.8594 26.2031C39.2656 25.7969 39.5833 25.3229 39.8125 24.7812C40.0521 24.2396 40.1719 23.6615 40.1719 23.0469V9.59375H44.6562V23.0469ZM53.0312 14.0781V23.0469H57.5156C58.1302 23.0469 58.7083 22.9323 59.25 22.7031C59.7917 22.4635 60.2656 22.1406 60.6719 21.7344C61.0781 21.3281 61.3958 20.8542 61.625 20.3125C61.8646 19.7604 61.9844 19.1771 61.9844 18.5625C61.9844 17.9479 61.8646 17.3698 61.625 16.8281C61.3958 16.276 61.0781 15.7969 60.6719 15.3906C60.2656 14.9844 59.7917 14.6667 59.25 14.4375C58.7083 14.1979 58.1302 14.0781 57.5156 14.0781H53.0312ZM53.0312 32H48.5469V9.59375H57.5156C58.3385 9.59375 59.1302 9.70312 59.8906 9.92188C60.651 10.1302 61.3594 10.4323 62.0156 10.8281C62.6823 11.2135 63.2865 11.6823 63.8281 12.2344C64.3802 12.776 64.849 13.3802 65.2344 14.0469C65.6302 14.7135 65.9323 15.4271 66.1406 16.1875C66.3594 16.9479 66.4688 17.7396 66.4688 18.5625C66.4688 19.3333 66.3698 20.0833 66.1719 20.8125C65.9844 21.5417 65.7083 22.2344 65.3438 22.8906C64.9896 23.5469 64.5521 24.151 64.0312 24.7031C63.5104 25.2552 62.9271 25.7344 62.2812 26.1406L64.7656 32H60L58.0469 27.4844L53.0312 27.5156V32ZM93.75 32H78.3906V9.59375H93.75V14.0781H82.875V18.5625H90.2344V23.0469H82.875V27.5156H93.75V32ZM114.016 9.59375L106.656 32H102.172L94.8438 9.59375H99.9375L104.406 24.5469L108.891 9.59375H114.016ZM131.531 32H116.172V9.59375H131.531V14.0781H120.656V18.5625H128.016V23.0469H120.656V27.5156H131.531V32ZM152.594 32H147.797L139.156 17.25V32H134.672V9.59375H139.469L148.109 24.3594V9.59375H152.594V32ZM166.172 32H161.703V14.0781H154.969V9.59375H172.891V14.0781H166.172V32Z" fill="white"/>
<path d="M3.78 67.1V81H1.5V67.1H3.78ZM12.3334 69.8C13.2001 69.8 13.9734 69.98 14.6534 70.34C15.3468 70.7 15.8868 71.2333 16.2734 71.94C16.6601 72.6467 16.8534 73.5 16.8534 74.5V81H14.5934V74.84C14.5934 73.8533 14.3468 73.1 13.8534 72.58C13.3601 72.0467 12.6868 71.78 11.8334 71.78C10.9801 71.78 10.3001 72.0467 9.79344 72.58C9.3001 73.1 9.05344 73.8533 9.05344 74.84V81H6.77344V69.98H9.05344V71.24C9.42677 70.7867 9.9001 70.4333 10.4734 70.18C11.0601 69.9267 11.6801 69.8 12.3334 69.8ZM20.9217 68.52C20.5084 68.52 20.1617 68.38 19.8817 68.1C19.6017 67.82 19.4617 67.4733 19.4617 67.06C19.4617 66.6467 19.6017 66.3 19.8817 66.02C20.1617 65.74 20.5084 65.6 20.9217 65.6C21.3217 65.6 21.6617 65.74 21.9417 66.02C22.2217 66.3 22.3617 66.6467 22.3617 67.06C22.3617 67.4733 22.2217 67.82 21.9417 68.1C21.6617 68.38 21.3217 68.52 20.9217 68.52ZM22.0417 83.16C22.0417 84.24 21.7684 85.02 21.2217 85.5C20.6884 85.9933 19.9084 86.24 18.8817 86.24H17.7017V84.32H18.4817C18.9484 84.32 19.2751 84.2267 19.4617 84.04C19.6617 83.8667 19.7617 83.5733 19.7617 83.16V69.98H22.0417V83.16ZM35.1352 75.22C35.1352 75.6333 35.1085 76.0067 35.0552 76.34H26.6352C26.7018 77.22 27.0285 77.9267 27.6152 78.46C28.2018 78.9933 28.9218 79.26 29.7752 79.26C31.0018 79.26 31.8685 78.7467 32.3752 77.72H34.8352C34.5018 78.7333 33.8952 79.5667 33.0152 80.22C32.1485 80.86 31.0685 81.18 29.7752 81.18C28.7218 81.18 27.7752 80.9467 26.9352 80.48C26.1085 80 25.4552 79.3333 24.9752 78.48C24.5085 77.6133 24.2752 76.6133 24.2752 75.48C24.2752 74.3467 24.5018 73.3533 24.9552 72.5C25.4218 71.6333 26.0685 70.9667 26.8952 70.5C27.7352 70.0333 28.6952 69.8 29.7752 69.8C30.8152 69.8 31.7418 70.0267 32.5552 70.48C33.3685 70.9333 34.0018 71.5733 34.4552 72.4C34.9085 73.2133 35.1352 74.1533 35.1352 75.22ZM32.7552 74.5C32.7418 73.66 32.4418 72.9867 31.8552 72.48C31.2685 71.9733 30.5418 71.72 29.6752 71.72C28.8885 71.72 28.2152 71.9733 27.6552 72.48C27.0952 72.9733 26.7618 73.6467 26.6552 74.5H32.7552ZM36.6189 75.48C36.6189 74.3467 36.8456 73.3533 37.2989 72.5C37.7656 71.6333 38.4056 70.9667 39.2189 70.5C40.0322 70.0333 40.9656 69.8 42.0189 69.8C43.3522 69.8 44.4522 70.12 45.3189 70.76C46.1989 71.3867 46.7922 72.2867 47.0989 73.46H44.6389C44.4389 72.9133 44.1189 72.4867 43.6789 72.18C43.2389 71.8733 42.6856 71.72 42.0189 71.72C41.0856 71.72 40.3389 72.0533 39.7789 72.72C39.2322 73.3733 38.9589 74.2933 38.9589 75.48C38.9589 76.6667 39.2322 77.5933 39.7789 78.26C40.3389 78.9267 41.0856 79.26 42.0189 79.26C43.3389 79.26 44.2122 78.68 44.6389 77.52H47.0989C46.7789 78.64 46.1789 79.5333 45.2989 80.2C44.4189 80.8533 43.3256 81.18 42.0189 81.18C40.9656 81.18 40.0322 80.9467 39.2189 80.48C38.4056 80 37.7656 79.3333 37.2989 78.48C36.8456 77.6133 36.6189 76.6133 36.6189 75.48ZM52.0311 71.84V77.94C52.0311 78.3533 52.1244 78.6533 52.3111 78.84C52.5111 79.0133 52.8444 79.1 53.3111 79.1H54.7111V81H52.9111C51.8844 81 51.0978 80.76 50.5511 80.28C50.0044 79.8 49.7311 79.02 49.7311 77.94V71.84H48.4311V69.98H49.7311V67.24H52.0311V69.98H54.7111V71.84H52.0311ZM57.9725 68.52C57.5592 68.52 57.2125 68.38 56.9325 68.1C56.6525 67.82 56.5125 67.4733 56.5125 67.06C56.5125 66.6467 56.6525 66.3 56.9325 66.02C57.2125 65.74 57.5592 65.6 57.9725 65.6C58.3725 65.6 58.7125 65.74 58.9925 66.02C59.2725 66.3 59.4125 66.6467 59.4125 67.06C59.4125 67.4733 59.2725 67.82 58.9925 68.1C58.7125 68.38 58.3725 68.52 57.9725 68.52ZM59.0925 69.98V81H56.8125V69.98H59.0925ZM66.8659 81.18C65.8259 81.18 64.8859 80.9467 64.0459 80.48C63.2059 80 62.5459 79.3333 62.0659 78.48C61.5859 77.6133 61.3459 76.6133 61.3459 75.48C61.3459 74.36 61.5926 73.3667 62.0859 72.5C62.5793 71.6333 63.2526 70.9667 64.1059 70.5C64.9593 70.0333 65.9126 69.8 66.9659 69.8C68.0193 69.8 68.9726 70.0333 69.8259 70.5C70.6793 70.9667 71.3526 71.6333 71.8459 72.5C72.3393 73.3667 72.5859 74.36 72.5859 75.48C72.5859 76.6 72.3326 77.5933 71.8259 78.46C71.3193 79.3267 70.6259 80 69.7459 80.48C68.8793 80.9467 67.9193 81.18 66.8659 81.18ZM66.8659 79.2C67.4526 79.2 67.9993 79.06 68.5059 78.78C69.0259 78.5 69.4459 78.08 69.7659 77.52C70.0859 76.96 70.2459 76.28 70.2459 75.48C70.2459 74.68 70.0926 74.0067 69.7859 73.46C69.4793 72.9 69.0726 72.48 68.5659 72.2C68.0593 71.92 67.5126 71.78 66.9259 71.78C66.3393 71.78 65.7926 71.92 65.2859 72.2C64.7926 72.48 64.3993 72.9 64.1059 73.46C63.8126 74.0067 63.6659 74.68 63.6659 75.48C63.6659 76.6667 63.9659 77.5867 64.5659 78.24C65.1793 78.88 65.9459 79.2 66.8659 79.2ZM80.3998 69.8C81.2665 69.8 82.0398 69.98 82.7198 70.34C83.4132 70.7 83.9532 71.2333 84.3398 71.94C84.7265 72.6467 84.9198 73.5 84.9198 74.5V81H82.6598V74.84C82.6598 73.8533 82.4132 73.1 81.9198 72.58C81.4265 72.0467 80.7532 71.78 79.8998 71.78C79.0465 71.78 78.3665 72.0467 77.8598 72.58C77.3665 73.1 77.1198 73.8533 77.1198 74.84V81H74.8398V69.98H77.1198V71.24C77.4932 70.7867 77.9665 70.4333 78.5398 70.18C79.1265 69.9267 79.7465 69.8 80.3998 69.8Z" fill="white"/>
<path d="M16.14 116.1V130H13.86V120.48L9.62 130H8.04L3.78 120.48V130H1.5V116.1H3.96L8.84 127L13.7 116.1H16.14ZM21.4167 116.1V130H19.1367V116.1H21.4167ZM23.6502 123.02C23.6502 121.66 23.9635 120.44 24.5902 119.36C25.2302 118.28 26.0902 117.44 27.1702 116.84C28.2635 116.227 29.4568 115.92 30.7502 115.92C32.2302 115.92 33.5435 116.287 34.6902 117.02C35.8502 117.74 36.6902 118.767 37.2102 120.1H34.4702C34.1102 119.367 33.6102 118.82 32.9702 118.46C32.3302 118.1 31.5902 117.92 30.7502 117.92C29.8302 117.92 29.0102 118.127 28.2902 118.54C27.5702 118.953 27.0035 119.547 26.5902 120.32C26.1902 121.093 25.9902 121.993 25.9902 123.02C25.9902 124.047 26.1902 124.947 26.5902 125.72C27.0035 126.493 27.5702 127.093 28.2902 127.52C29.0102 127.933 29.8302 128.14 30.7502 128.14C31.5902 128.14 32.3302 127.96 32.9702 127.6C33.6102 127.24 34.1102 126.693 34.4702 125.96H37.2102C36.6902 127.293 35.8502 128.32 34.6902 129.04C33.5435 129.76 32.2302 130.12 30.7502 130.12C29.4435 130.12 28.2502 129.82 27.1702 129.22C26.0902 128.607 25.2302 127.76 24.5902 126.68C23.9635 125.6 23.6502 124.38 23.6502 123.02ZM46.2189 130.14C44.9256 130.14 43.7322 129.84 42.6389 129.24C41.5589 128.627 40.6989 127.78 40.0589 126.7C39.4322 125.607 39.1189 124.38 39.1189 123.02C39.1189 121.66 39.4322 120.44 40.0589 119.36C40.6989 118.28 41.5589 117.44 42.6389 116.84C43.7322 116.227 44.9256 115.92 46.2189 115.92C47.5256 115.92 48.7189 116.227 49.7989 116.84C50.8922 117.44 51.7522 118.28 52.3789 119.36C53.0056 120.44 53.3189 121.66 53.3189 123.02C53.3189 124.38 53.0056 125.607 52.3789 126.7C51.7522 127.78 50.8922 128.627 49.7989 129.24C48.7189 129.84 47.5256 130.14 46.2189 130.14ZM46.2189 128.16C47.1389 128.16 47.9589 127.953 48.6789 127.54C49.3989 127.113 49.9589 126.513 50.3589 125.74C50.7722 124.953 50.9789 124.047 50.9789 123.02C50.9789 121.993 50.7722 121.093 50.3589 120.32C49.9589 119.547 49.3989 118.953 48.6789 118.54C47.9589 118.127 47.1389 117.92 46.2189 117.92C45.2989 117.92 44.4789 118.127 43.7589 118.54C43.0389 118.953 42.4722 119.547 42.0589 120.32C41.6589 121.093 41.4589 121.993 41.4589 123.02C41.4589 124.047 41.6589 124.953 42.0589 125.74C42.4722 126.513 43.0389 127.113 43.7589 127.54C44.4789 127.953 45.2989 128.16 46.2189 128.16ZM66.9825 130H64.7025L57.8425 119.62V130H55.5625V116.08H57.8425L64.7025 126.44V116.08H66.9825V130Z" fill="white"/>
<path d="M3.78 166.94V171.02H8.58V172.88H3.78V177.14H9.18V179H1.5V165.08H9.18V166.94H3.78ZM21.7083 169.24C21.7083 169.947 21.5416 170.613 21.2083 171.24C20.8749 171.867 20.3416 172.38 19.6083 172.78C18.8749 173.167 17.9349 173.36 16.7883 173.36H14.2683V179H11.9883V165.1H16.7883C17.8549 165.1 18.7549 165.287 19.4883 165.66C20.2349 166.02 20.7883 166.513 21.1483 167.14C21.5216 167.767 21.7083 168.467 21.7083 169.24ZM16.7883 171.5C17.6549 171.5 18.3016 171.307 18.7283 170.92C19.1549 170.52 19.3683 169.96 19.3683 169.24C19.3683 167.72 18.5083 166.96 16.7883 166.96H14.2683V171.5H16.7883ZM23.1228 172.02C23.1228 170.66 23.4361 169.44 24.0628 168.36C24.7028 167.28 25.5628 166.44 26.6428 165.84C27.7361 165.227 28.9295 164.92 30.2228 164.92C31.7028 164.92 33.0161 165.287 34.1628 166.02C35.3228 166.74 36.1628 167.767 36.6828 169.1H33.9428C33.5828 168.367 33.0828 167.82 32.4428 167.46C31.8028 167.1 31.0628 166.92 30.2228 166.92C29.3028 166.92 28.4828 167.127 27.7628 167.54C27.0428 167.953 26.4761 168.547 26.0628 169.32C25.6628 170.093 25.4628 170.993 25.4628 172.02C25.4628 173.047 25.6628 173.947 26.0628 174.72C26.4761 175.493 27.0428 176.093 27.7628 176.52C28.4828 176.933 29.3028 177.14 30.2228 177.14C31.0628 177.14 31.8028 176.96 32.4428 176.6C33.0828 176.24 33.5828 175.693 33.9428 174.96H36.6828C36.1628 176.293 35.3228 177.32 34.1628 178.04C33.0161 178.76 31.7028 179.12 30.2228 179.12C28.9161 179.12 27.7228 178.82 26.6428 178.22C25.5628 177.607 24.7028 176.76 24.0628 175.68C23.4361 174.6 23.1228 173.38 23.1228 172.02Z" fill="white"/>
<path d="M3.78 215.94V220.02H8.58V221.88H3.78V226.14H9.18V228H1.5V214.08H9.18V215.94H3.78ZM14.2683 218.6C14.6549 218.093 15.1816 217.667 15.8483 217.32C16.5149 216.973 17.2683 216.8 18.1083 216.8C19.0683 216.8 19.9416 217.04 20.7283 217.52C21.5283 217.987 22.1549 218.647 22.6083 219.5C23.0616 220.353 23.2883 221.333 23.2883 222.44C23.2883 223.547 23.0616 224.54 22.6083 225.42C22.1549 226.287 21.5283 226.967 20.7283 227.46C19.9416 227.94 19.0683 228.18 18.1083 228.18C17.2683 228.18 16.5216 228.013 15.8683 227.68C15.2149 227.333 14.6816 226.907 14.2683 226.4V233.24H11.9883V216.98H14.2683V218.6ZM20.9683 222.44C20.9683 221.68 20.8083 221.027 20.4883 220.48C20.1816 219.92 19.7683 219.5 19.2483 219.22C18.7416 218.927 18.1949 218.78 17.6083 218.78C17.0349 218.78 16.4883 218.927 15.9683 219.22C15.4616 219.513 15.0483 219.94 14.7283 220.5C14.4216 221.06 14.2683 221.72 14.2683 222.48C14.2683 223.24 14.4216 223.907 14.7283 224.48C15.0483 225.04 15.4616 225.467 15.9683 225.76C16.4883 226.053 17.0349 226.2 17.6083 226.2C18.1949 226.2 18.7416 226.053 19.2483 225.76C19.7683 225.453 20.1816 225.013 20.4883 224.44C20.8083 223.867 20.9683 223.2 20.9683 222.44ZM31.243 216.8C32.083 216.8 32.8296 216.98 33.483 217.34C34.1496 217.7 34.6696 218.233 35.043 218.94C35.4296 219.647 35.623 220.5 35.623 221.5V228H33.363V221.84C33.363 220.853 33.1163 220.1 32.623 219.58C32.1296 219.047 31.4563 218.78 30.603 218.78C29.7496 218.78 29.0696 219.047 28.563 219.58C28.0696 220.1 27.823 220.853 27.823 221.84V228H25.543V213.2H27.823V218.26C28.2096 217.793 28.6963 217.433 29.283 217.18C29.883 216.927 30.5363 216.8 31.243 216.8ZM48.4513 216.98L41.6913 233.18H39.3313L41.5713 227.82L37.2313 216.98H39.7713L42.8713 225.38L46.0913 216.98H48.4513ZM54.7919 218.84H52.7519V228H50.4519V218.84H49.1519V216.98H50.4519V216.2C50.4519 214.933 50.7852 214.013 51.4519 213.44C52.1319 212.853 53.1919 212.56 54.6319 212.56V214.46C53.9385 214.46 53.4519 214.593 53.1719 214.86C52.8919 215.113 52.7519 215.56 52.7519 216.2V216.98H54.7919V218.84ZM66.9125 222.22C66.9125 222.633 66.8858 223.007 66.8325 223.34H58.4125C58.4792 224.22 58.8058 224.927 59.3925 225.46C59.9792 225.993 60.6992 226.26 61.5525 226.26C62.7792 226.26 63.6458 225.747 64.1525 224.72H66.6125C66.2792 225.733 65.6725 226.567 64.7925 227.22C63.9258 227.86 62.8458 228.18 61.5525 228.18C60.4992 228.18 59.5525 227.947 58.7125 227.48C57.8858 227 57.2325 226.333 56.7525 225.48C56.2858 224.613 56.0525 223.613 56.0525 222.48C56.0525 221.347 56.2792 220.353 56.7325 219.5C57.1992 218.633 57.8458 217.967 58.6725 217.5C59.5125 217.033 60.4725 216.8 61.5525 216.8C62.5925 216.8 63.5192 217.027 64.3325 217.48C65.1458 217.933 65.7792 218.573 66.2325 219.4C66.6858 220.213 66.9125 221.153 66.9125 222.22ZM64.5325 221.5C64.5192 220.66 64.2192 219.987 63.6325 219.48C63.0458 218.973 62.3192 218.72 61.4525 218.72C60.6658 218.72 59.9925 218.973 59.4325 219.48C58.8725 219.973 58.5392 220.647 58.4325 221.5H64.5325ZM73.1563 228.18C72.2896 228.18 71.5096 228.027 70.8163 227.72C70.1363 227.4 69.5963 226.973 69.1963 226.44C68.7963 225.893 68.5829 225.287 68.5563 224.62H70.9163C70.9563 225.087 71.1763 225.48 71.5763 225.8C71.9896 226.107 72.5029 226.26 73.1163 226.26C73.7563 226.26 74.2496 226.14 74.5963 225.9C74.9563 225.647 75.1363 225.327 75.1363 224.94C75.1363 224.527 74.9363 224.22 74.5363 224.02C74.1496 223.82 73.5296 223.6 72.6763 223.36C71.8496 223.133 71.1763 222.913 70.6563 222.7C70.1363 222.487 69.6829 222.16 69.2963 221.72C68.9229 221.28 68.7363 220.7 68.7363 219.98C68.7363 219.393 68.9096 218.86 69.2563 218.38C69.6029 217.887 70.0963 217.5 70.7363 217.22C71.3896 216.94 72.1363 216.8 72.9763 216.8C74.2296 216.8 75.2363 217.12 75.9963 217.76C76.7696 218.387 77.1829 219.247 77.2363 220.34H74.9563C74.9163 219.847 74.7163 219.453 74.3563 219.16C73.9963 218.867 73.5096 218.72 72.8963 218.72C72.2963 218.72 71.8363 218.833 71.5163 219.06C71.1963 219.287 71.0363 219.587 71.0363 219.96C71.0363 220.253 71.1429 220.5 71.3563 220.7C71.5696 220.9 71.8296 221.06 72.1363 221.18C72.4429 221.287 72.8963 221.427 73.4963 221.6C74.2963 221.813 74.9496 222.033 75.4563 222.26C75.9763 222.473 76.4229 222.793 76.7963 223.22C77.1696 223.647 77.3629 224.213 77.3763 224.92C77.3763 225.547 77.2029 226.107 76.8563 226.6C76.5096 227.093 76.0163 227.48 75.3763 227.76C74.7496 228.04 74.0096 228.18 73.1563 228.18ZM82.4998 218.84V224.94C82.4998 225.353 82.5932 225.653 82.7798 225.84C82.9798 226.013 83.3132 226.1 83.7798 226.1H85.1798V228H83.3798C82.3532 228 81.5665 227.76 81.0198 227.28C80.4732 226.8 80.1998 226.02 80.1998 224.94V218.84H78.8998V216.98H80.1998V214.24H82.4998V216.98H85.1798V218.84H82.4998Z" fill="white"/>
<path d="M314.766 32H299.078V9.59375H303.562V27.5156H314.766V32ZM321.594 32H317.109V9.59375H321.594V32ZM343.688 32H338.891L330.25 17.25V32H325.766V9.59375H330.562L339.203 24.3594V9.59375H343.688V32ZM352.344 32H347.859V9.59375H352.344V20.7969L360.688 9.59375H365.781L358.703 19.0469L365.781 32H360.688L355.766 22.9375L352.344 27.5156V32ZM366.547 16.3125C366.547 15.3854 366.724 14.5156 367.078 13.7031C367.432 12.8906 367.911 12.1823 368.516 11.5781C369.13 10.9635 369.844 10.4792 370.656 10.125C371.469 9.77083 372.339 9.59375 373.266 9.59375H383.547V14.0781H373.266C372.953 14.0781 372.661 14.1354 372.391 14.25C372.12 14.3646 371.88 14.526 371.672 14.7344C371.474 14.9323 371.318 15.1667 371.203 15.4375C371.089 15.7083 371.031 16 371.031 16.3125C371.031 16.625 371.089 16.9219 371.203 17.2031C371.318 17.474 371.474 17.7135 371.672 17.9219C371.88 18.1198 372.12 18.276 372.391 18.3906C372.661 18.5052 372.953 18.5625 373.266 18.5625H377.75C378.677 18.5625 379.547 18.7396 380.359 19.0938C381.182 19.4375 381.896 19.9167 382.5 20.5312C383.115 21.1354 383.594 21.849 383.938 22.6719C384.292 23.4844 384.469 24.3542 384.469 25.2812C384.469 26.2083 384.292 27.0781 383.938 27.8906C383.594 28.7031 383.115 29.4167 382.5 30.0312C381.896 30.6354 381.182 31.1146 380.359 31.4688C379.547 31.8229 378.677 32 377.75 32H367.797V27.5156H377.75C378.062 27.5156 378.354 27.4583 378.625 27.3438C378.896 27.2292 379.13 27.0729 379.328 26.875C379.536 26.6667 379.698 26.4271 379.812 26.1562C379.927 25.8854 379.984 25.5938 379.984 25.2812C379.984 24.9688 379.927 24.6771 379.812 24.4062C379.698 24.1354 379.536 23.901 379.328 23.7031C379.13 23.4948 378.896 23.3333 378.625 23.2188C378.354 23.1042 378.062 23.0469 377.75 23.0469H373.266C372.339 23.0469 371.469 22.8698 370.656 22.5156C369.844 22.1615 369.13 21.6823 368.516 21.0781C367.911 20.4635 367.432 19.75 367.078 18.9375C366.724 18.1146 366.547 17.2396 366.547 16.3125Z" fill="white"/>
<path d="M309.6 67.1V81H307.32V74.92H300.78V81H298.5V67.1H300.78V73.06H307.32V67.1H309.6ZM317.382 81.18C316.342 81.18 315.402 80.9467 314.562 80.48C313.722 80 313.062 79.3333 312.582 78.48C312.102 77.6133 311.862 76.6133 311.862 75.48C311.862 74.36 312.108 73.3667 312.602 72.5C313.095 71.6333 313.768 70.9667 314.622 70.5C315.475 70.0333 316.428 69.8 317.482 69.8C318.535 69.8 319.488 70.0333 320.342 70.5C321.195 70.9667 321.868 71.6333 322.362 72.5C322.855 73.3667 323.102 74.36 323.102 75.48C323.102 76.6 322.848 77.5933 322.342 78.46C321.835 79.3267 321.142 80 320.262 80.48C319.395 80.9467 318.435 81.18 317.382 81.18ZM317.382 79.2C317.968 79.2 318.515 79.06 319.022 78.78C319.542 78.5 319.962 78.08 320.282 77.52C320.602 76.96 320.762 76.28 320.762 75.48C320.762 74.68 320.608 74.0067 320.302 73.46C319.995 72.9 319.588 72.48 319.082 72.2C318.575 71.92 318.028 71.78 317.442 71.78C316.855 71.78 316.308 71.92 315.802 72.2C315.308 72.48 314.915 72.9 314.622 73.46C314.328 74.0067 314.182 74.68 314.182 75.48C314.182 76.6667 314.482 77.5867 315.082 78.24C315.695 78.88 316.462 79.2 317.382 79.2ZM338.695 69.8C339.562 69.8 340.335 69.98 341.015 70.34C341.709 70.7 342.249 71.2333 342.635 71.94C343.035 72.6467 343.235 73.5 343.235 74.5V81H340.975V74.84C340.975 73.8533 340.729 73.1 340.235 72.58C339.742 72.0467 339.069 71.78 338.215 71.78C337.362 71.78 336.682 72.0467 336.175 72.58C335.682 73.1 335.435 73.8533 335.435 74.84V81H333.175V74.84C333.175 73.8533 332.929 73.1 332.435 72.58C331.942 72.0467 331.269 71.78 330.415 71.78C329.562 71.78 328.882 72.0467 328.375 72.58C327.882 73.1 327.635 73.8533 327.635 74.84V81H325.355V69.98H327.635V71.24C328.009 70.7867 328.482 70.4333 329.055 70.18C329.629 69.9267 330.242 69.8 330.895 69.8C331.775 69.8 332.562 69.9867 333.255 70.36C333.949 70.7333 334.482 71.2733 334.855 71.98C335.189 71.3133 335.709 70.7867 336.415 70.4C337.122 70 337.882 69.8 338.695 69.8ZM356.237 75.22C356.237 75.6333 356.21 76.0067 356.157 76.34H347.737C347.803 77.22 348.13 77.9267 348.717 78.46C349.303 78.9933 350.023 79.26 350.877 79.26C352.103 79.26 352.97 78.7467 353.477 77.72H355.937C355.603 78.7333 354.997 79.5667 354.117 80.22C353.25 80.86 352.17 81.18 350.877 81.18C349.823 81.18 348.877 80.9467 348.037 80.48C347.21 80 346.557 79.3333 346.077 78.48C345.61 77.6133 345.377 76.6133 345.377 75.48C345.377 74.3467 345.603 73.3533 346.057 72.5C346.523 71.6333 347.17 70.9667 347.997 70.5C348.837 70.0333 349.797 69.8 350.877 69.8C351.917 69.8 352.843 70.0267 353.657 70.48C354.47 70.9333 355.103 71.5733 355.557 72.4C356.01 73.2133 356.237 74.1533 356.237 75.22ZM353.857 74.5C353.843 73.66 353.543 72.9867 352.957 72.48C352.37 71.9733 351.643 71.72 350.777 71.72C349.99 71.72 349.317 71.9733 348.757 72.48C348.197 72.9733 347.863 73.6467 347.757 74.5H353.857Z" fill="white"/>
<path d="M306.88 127.16H301.06L300.06 130H297.68L302.66 116.08H305.3L310.28 130H307.88L306.88 127.16ZM306.24 125.3L303.98 118.84L301.7 125.3H306.24ZM314.725 120.62C315.112 120.087 315.639 119.653 316.305 119.32C316.985 118.973 317.739 118.8 318.565 118.8C319.539 118.8 320.419 119.033 321.205 119.5C321.992 119.967 322.612 120.633 323.065 121.5C323.519 122.353 323.745 123.333 323.745 124.44C323.745 125.547 323.519 126.54 323.065 127.42C322.612 128.287 321.985 128.967 321.185 129.46C320.399 129.94 319.525 130.18 318.565 130.18C317.712 130.18 316.952 130.013 316.285 129.68C315.632 129.347 315.112 128.92 314.725 128.4V130H312.445V115.2H314.725V120.62ZM321.425 124.44C321.425 123.68 321.265 123.027 320.945 122.48C320.639 121.92 320.225 121.5 319.705 121.22C319.199 120.927 318.652 120.78 318.065 120.78C317.492 120.78 316.945 120.927 316.425 121.22C315.919 121.513 315.505 121.94 315.185 122.5C314.879 123.06 314.725 123.72 314.725 124.48C314.725 125.24 314.879 125.907 315.185 126.48C315.505 127.04 315.919 127.467 316.425 127.76C316.945 128.053 317.492 128.2 318.065 128.2C318.652 128.2 319.199 128.053 319.705 127.76C320.225 127.453 320.639 127.013 320.945 126.44C321.265 125.867 321.425 125.2 321.425 124.44ZM330.78 130.18C329.74 130.18 328.8 129.947 327.96 129.48C327.12 129 326.46 128.333 325.98 127.48C325.5 126.613 325.26 125.613 325.26 124.48C325.26 123.36 325.507 122.367 326 121.5C326.493 120.633 327.167 119.967 328.02 119.5C328.873 119.033 329.827 118.8 330.88 118.8C331.933 118.8 332.887 119.033 333.74 119.5C334.593 119.967 335.267 120.633 335.76 121.5C336.253 122.367 336.5 123.36 336.5 124.48C336.5 125.6 336.247 126.593 335.74 127.46C335.233 128.327 334.54 129 333.66 129.48C332.793 129.947 331.833 130.18 330.78 130.18ZM330.78 128.2C331.367 128.2 331.913 128.06 332.42 127.78C332.94 127.5 333.36 127.08 333.68 126.52C334 125.96 334.16 125.28 334.16 124.48C334.16 123.68 334.007 123.007 333.7 122.46C333.393 121.9 332.987 121.48 332.48 121.2C331.973 120.92 331.427 120.78 330.84 120.78C330.253 120.78 329.707 120.92 329.2 121.2C328.707 121.48 328.313 121.9 328.02 122.46C327.727 123.007 327.58 123.68 327.58 124.48C327.58 125.667 327.88 126.587 328.48 127.24C329.093 127.88 329.86 128.2 330.78 128.2ZM348.734 118.98V130H346.454V128.7C346.094 129.153 345.621 129.513 345.034 129.78C344.461 130.033 343.847 130.16 343.194 130.16C342.327 130.16 341.547 129.98 340.854 129.62C340.174 129.26 339.634 128.727 339.234 128.02C338.847 127.313 338.654 126.46 338.654 125.46V118.98H340.914V125.12C340.914 126.107 341.161 126.867 341.654 127.4C342.147 127.92 342.821 128.18 343.674 128.18C344.527 128.18 345.201 127.92 345.694 127.4C346.201 126.867 346.454 126.107 346.454 125.12V118.98H348.734ZM354.402 120.84V126.94C354.402 127.353 354.496 127.653 354.682 127.84C354.882 128.013 355.216 128.1 355.682 128.1H357.082V130H355.282C354.256 130 353.469 129.76 352.922 129.28C352.376 128.8 352.102 128.02 352.102 126.94V120.84H350.802V118.98H352.102V116.24H354.402V118.98H357.082V120.84H354.402Z" fill="white"/>
<path d="M300.78 177.16H305.48V179H298.5V165.1H300.78V177.16ZM312.167 179.18C311.127 179.18 310.187 178.947 309.347 178.48C308.507 178 307.847 177.333 307.367 176.48C306.887 175.613 306.647 174.613 306.647 173.48C306.647 172.36 306.893 171.367 307.387 170.5C307.88 169.633 308.553 168.967 309.407 168.5C310.26 168.033 311.213 167.8 312.267 167.8C313.32 167.8 314.273 168.033 315.127 168.5C315.98 168.967 316.653 169.633 317.147 170.5C317.64 171.367 317.887 172.36 317.887 173.48C317.887 174.6 317.633 175.593 317.127 176.46C316.62 177.327 315.927 178 315.047 178.48C314.18 178.947 313.22 179.18 312.167 179.18ZM312.167 177.2C312.753 177.2 313.3 177.06 313.807 176.78C314.327 176.5 314.747 176.08 315.067 175.52C315.387 174.96 315.547 174.28 315.547 173.48C315.547 172.68 315.393 172.007 315.087 171.46C314.78 170.9 314.373 170.48 313.867 170.2C313.36 169.92 312.813 169.78 312.227 169.78C311.64 169.78 311.093 169.92 310.587 170.2C310.093 170.48 309.7 170.9 309.407 171.46C309.113 172.007 308.967 172.68 308.967 173.48C308.967 174.667 309.267 175.587 309.867 176.24C310.48 176.88 311.247 177.2 312.167 177.2ZM324.581 167.8C325.434 167.8 326.187 167.973 326.841 168.32C327.507 168.653 328.027 169.073 328.401 169.58V167.98H330.701V179.18C330.701 180.193 330.487 181.093 330.061 181.88C329.634 182.68 329.014 183.307 328.201 183.76C327.401 184.213 326.441 184.44 325.321 184.44C323.827 184.44 322.587 184.087 321.601 183.38C320.614 182.687 320.054 181.74 319.921 180.54H322.181C322.354 181.113 322.721 181.573 323.281 181.92C323.854 182.28 324.534 182.46 325.321 182.46C326.241 182.46 326.981 182.18 327.541 181.62C328.114 181.06 328.401 180.247 328.401 179.18V177.34C328.014 177.86 327.487 178.3 326.821 178.66C326.167 179.007 325.421 179.18 324.581 179.18C323.621 179.18 322.741 178.94 321.941 178.46C321.154 177.967 320.527 177.287 320.061 176.42C319.607 175.54 319.381 174.547 319.381 173.44C319.381 172.333 319.607 171.353 320.061 170.5C320.527 169.647 321.154 168.987 321.941 168.52C322.741 168.04 323.621 167.8 324.581 167.8ZM328.401 173.48C328.401 172.72 328.241 172.06 327.921 171.5C327.614 170.94 327.207 170.513 326.701 170.22C326.194 169.927 325.647 169.78 325.061 169.78C324.474 169.78 323.927 169.927 323.421 170.22C322.914 170.5 322.501 170.92 322.181 171.48C321.874 172.027 321.721 172.68 321.721 173.44C321.721 174.2 321.874 174.867 322.181 175.44C322.501 176.013 322.914 176.453 323.421 176.76C323.941 177.053 324.487 177.2 325.061 177.2C325.647 177.2 326.194 177.053 326.701 176.76C327.207 176.467 327.614 176.04 327.921 175.48C328.241 174.907 328.401 174.24 328.401 173.48ZM334.855 166.52C334.442 166.52 334.095 166.38 333.815 166.1C333.535 165.82 333.395 165.473 333.395 165.06C333.395 164.647 333.535 164.3 333.815 164.02C334.095 163.74 334.442 163.6 334.855 163.6C335.255 163.6 335.595 163.74 335.875 164.02C336.155 164.3 336.295 164.647 336.295 165.06C336.295 165.473 336.155 165.82 335.875 166.1C335.595 166.38 335.255 166.52 334.855 166.52ZM335.975 167.98V179H333.695V167.98H335.975ZM344.529 167.8C345.395 167.8 346.169 167.98 346.849 168.34C347.542 168.7 348.082 169.233 348.469 169.94C348.855 170.647 349.049 171.5 349.049 172.5V179H346.789V172.84C346.789 171.853 346.542 171.1 346.049 170.58C345.555 170.047 344.882 169.78 344.029 169.78C343.175 169.78 342.495 170.047 341.989 170.58C341.495 171.1 341.249 171.853 341.249 172.84V179H338.969V167.98H341.249V169.24C341.622 168.787 342.095 168.433 342.669 168.18C343.255 167.927 343.875 167.8 344.529 167.8Z" fill="white"/>
<path d="M305.72 228L302.52 222.44H300.78V228H298.5V214.1H303.3C304.367 214.1 305.267 214.287 306 214.66C306.747 215.033 307.3 215.533 307.66 216.16C308.033 216.787 308.22 217.487 308.22 218.26C308.22 219.167 307.953 219.993 307.42 220.74C306.9 221.473 306.093 221.973 305 222.24L308.44 228H305.72ZM300.78 220.62H303.3C304.153 220.62 304.793 220.407 305.22 219.98C305.66 219.553 305.88 218.98 305.88 218.26C305.88 217.54 305.667 216.98 305.24 216.58C304.813 216.167 304.167 215.96 303.3 215.96H300.78V220.62ZM321.237 222.22C321.237 222.633 321.21 223.007 321.157 223.34H312.737C312.803 224.22 313.13 224.927 313.717 225.46C314.303 225.993 315.023 226.26 315.877 226.26C317.103 226.26 317.97 225.747 318.477 224.72H320.937C320.603 225.733 319.997 226.567 319.117 227.22C318.25 227.86 317.17 228.18 315.877 228.18C314.823 228.18 313.877 227.947 313.037 227.48C312.21 227 311.557 226.333 311.077 225.48C310.61 224.613 310.377 223.613 310.377 222.48C310.377 221.347 310.603 220.353 311.057 219.5C311.523 218.633 312.17 217.967 312.997 217.5C313.837 217.033 314.797 216.8 315.877 216.8C316.917 216.8 317.843 217.027 318.657 217.48C319.47 217.933 320.103 218.573 320.557 219.4C321.01 220.213 321.237 221.153 321.237 222.22ZM318.857 221.5C318.843 220.66 318.543 219.987 317.957 219.48C317.37 218.973 316.643 218.72 315.777 218.72C314.99 218.72 314.317 218.973 313.757 219.48C313.197 219.973 312.863 220.647 312.757 221.5H318.857ZM327.92 216.8C328.774 216.8 329.527 216.973 330.18 217.32C330.847 217.653 331.367 218.073 331.74 218.58V216.98H334.04V228.18C334.04 229.193 333.827 230.093 333.4 230.88C332.974 231.68 332.354 232.307 331.54 232.76C330.74 233.213 329.78 233.44 328.66 233.44C327.167 233.44 325.927 233.087 324.94 232.38C323.954 231.687 323.394 230.74 323.26 229.54H325.52C325.694 230.113 326.06 230.573 326.62 230.92C327.194 231.28 327.874 231.46 328.66 231.46C329.58 231.46 330.32 231.18 330.88 230.62C331.454 230.06 331.74 229.247 331.74 228.18V226.34C331.354 226.86 330.827 227.3 330.16 227.66C329.507 228.007 328.76 228.18 327.92 228.18C326.96 228.18 326.08 227.94 325.28 227.46C324.494 226.967 323.867 226.287 323.4 225.42C322.947 224.54 322.72 223.547 322.72 222.44C322.72 221.333 322.947 220.353 323.4 219.5C323.867 218.647 324.494 217.987 325.28 217.52C326.08 217.04 326.96 216.8 327.92 216.8ZM331.74 222.48C331.74 221.72 331.58 221.06 331.26 220.5C330.954 219.94 330.547 219.513 330.04 219.22C329.534 218.927 328.987 218.78 328.4 218.78C327.814 218.78 327.267 218.927 326.76 219.22C326.254 219.5 325.84 219.92 325.52 220.48C325.214 221.027 325.06 221.68 325.06 222.44C325.06 223.2 325.214 223.867 325.52 224.44C325.84 225.013 326.254 225.453 326.76 225.76C327.28 226.053 327.827 226.2 328.4 226.2C328.987 226.2 329.534 226.053 330.04 225.76C330.547 225.467 330.954 225.04 331.26 224.48C331.58 223.907 331.74 223.24 331.74 222.48ZM338.195 215.52C337.782 215.52 337.435 215.38 337.155 215.1C336.875 214.82 336.735 214.473 336.735 214.06C336.735 213.647 336.875 213.3 337.155 213.02C337.435 212.74 337.782 212.6 338.195 212.6C338.595 212.6 338.935 212.74 339.215 213.02C339.495 213.3 339.635 213.647 339.635 214.06C339.635 214.473 339.495 214.82 339.215 215.1C338.935 215.38 338.595 215.52 338.195 215.52ZM339.315 216.98V228H337.035V216.98H339.315ZM346.309 228.18C345.442 228.18 344.662 228.027 343.969 227.72C343.289 227.4 342.749 226.973 342.349 226.44C341.949 225.893 341.735 225.287 341.709 224.62H344.069C344.109 225.087 344.329 225.48 344.729 225.8C345.142 226.107 345.655 226.26 346.269 226.26C346.909 226.26 347.402 226.14 347.749 225.9C348.109 225.647 348.289 225.327 348.289 224.94C348.289 224.527 348.089 224.22 347.689 224.02C347.302 223.82 346.682 223.6 345.829 223.36C345.002 223.133 344.329 222.913 343.809 222.7C343.289 222.487 342.835 222.16 342.449 221.72C342.075 221.28 341.889 220.7 341.889 219.98C341.889 219.393 342.062 218.86 342.409 218.38C342.755 217.887 343.249 217.5 343.889 217.22C344.542 216.94 345.289 216.8 346.129 216.8C347.382 216.8 348.389 217.12 349.149 217.76C349.922 218.387 350.335 219.247 350.389 220.34H348.109C348.069 219.847 347.869 219.453 347.509 219.16C347.149 218.867 346.662 218.72 346.049 218.72C345.449 218.72 344.989 218.833 344.669 219.06C344.349 219.287 344.189 219.587 344.189 219.96C344.189 220.253 344.295 220.5 344.509 220.7C344.722 220.9 344.982 221.06 345.289 221.18C345.595 221.287 346.049 221.427 346.649 221.6C347.449 221.813 348.102 222.033 348.609 222.26C349.129 222.473 349.575 222.793 349.949 223.22C350.322 223.647 350.515 224.213 350.529 224.92C350.529 225.547 350.355 226.107 350.009 226.6C349.662 227.093 349.169 227.48 348.529 227.76C347.902 228.04 347.162 228.18 346.309 228.18ZM355.652 218.84V224.94C355.652 225.353 355.746 225.653 355.932 225.84C356.132 226.013 356.466 226.1 356.932 226.1H358.332V228H356.532C355.506 228 354.719 227.76 354.172 227.28C353.626 226.8 353.352 226.02 353.352 224.94V218.84H352.052V216.98H353.352V214.24H355.652V216.98H358.332V218.84H355.652ZM370.534 222.22C370.534 222.633 370.507 223.007 370.454 223.34H362.034C362.1 224.22 362.427 224.927 363.014 225.46C363.6 225.993 364.32 226.26 365.174 226.26C366.4 226.26 367.267 225.747 367.774 224.72H370.234C369.9 225.733 369.294 226.567 368.414 227.22C367.547 227.86 366.467 228.18 365.174 228.18C364.12 228.18 363.174 227.947 362.334 227.48C361.507 227 360.854 226.333 360.374 225.48C359.907 224.613 359.674 223.613 359.674 222.48C359.674 221.347 359.9 220.353 360.354 219.5C360.82 218.633 361.467 217.967 362.294 217.5C363.134 217.033 364.094 216.8 365.174 216.8C366.214 216.8 367.14 217.027 367.954 217.48C368.767 217.933 369.4 218.573 369.854 219.4C370.307 220.213 370.534 221.153 370.534 222.22ZM368.154 221.5C368.14 220.66 367.84 219.987 367.254 219.48C366.667 218.973 365.94 218.72 365.074 218.72C364.287 218.72 363.614 218.973 363.054 219.48C362.494 219.973 362.16 220.647 362.054 221.5H368.154ZM375.057 218.58C375.391 218.02 375.831 217.587 376.377 217.28C376.937 216.96 377.597 216.8 378.357 216.8V219.16H377.777C376.884 219.16 376.204 219.387 375.737 219.84C375.284 220.293 375.057 221.08 375.057 222.2V228H372.777V216.98H375.057V218.58Z" fill="white"/>
</svg>
